<svg width="198" height="48" viewBox="0 0 198 48" fill="none" xmlns="http://www.w3.org/2000/svg">
<path d="M 45.2538,2.42957 H 0 V 47.6868 h 45.2538 z" fill="#FEE600"/>
<path d="m 32.7238,21.8388 5.7677,-5.7677 1.5418,1.5417 0.0103,-0.0103 c 0,-0.9911 -0.2925,-4.398 -3.0284,-7.0651 -3.0628,-2.98707 -6.1291,-1.23886 -7.189,-0.1858 l -5.5543,5.5543 1.3765,1.3766 -3.0215,3.0215 -3.0215,-3.0215 1.3765,-1.3766 -5.5543,-5.5543 c -1.0565,-1.05651 -4.1228,-2.80127 -7.189,0.1858 -2.73588,2.6671 -3.02839,6.074 -3.02839,7.0651 l 0.01032,0.0103 1.54173,-1.5417 5.76774,5.7677 1.5899,-1.5899 v -3.7992 l 1.6346,1.6346 v 4.5942 l 2.2507,2.2507 -11.68,11.6799 4.6217,4.6218 11.68,-11.68 11.68,11.68 4.6217,-4.6218 -11.68,-11.6799 2.2507,-2.2507 v -4.5942 l 1.6346,-1.6346 v 3.7992 z" fill="#2B2D33"/>
<path d="M 69.8973,21.825 65.6748,14.1543 H 63.9644 V 21.825 H 59.8589 V 2.42957 h 7.7878 c 1.3318,0 2.4812,0.22368 3.4516,0.67106 0.9705,0.44738 1.7104,1.09779 2.2232,1.95469 0.5127,0.8569 0.7708,1.88242 0.7708,3.08001 0,1.40751 -0.3751,2.58447 -1.1253,3.53767 -0.7502,0.9533 -1.8205,1.6175 -3.2073,1.996 l 4.7077,8.156 H 69.9042 Z M 63.9644,5.96728 v 4.93492 h 3.1936 c 0.8569,0 1.5108,-0.2134 1.9685,-0.6401 0.4577,-0.42674 0.6848,-1.04963 0.6848,-1.86867 0,-0.81904 -0.2271,-1.4729 -0.6848,-1.85489 -0.4577,-0.38199 -1.1219,-0.57126 -1.996,-0.57126 z" fill="#2B2D33" fill-rule="nonzero" transform="translate(0 12.735)"/>
<path d="m 86.2403,6.73471 h 3.906 V 21.8216 h -3.906 v -1.7964 c -0.4955,0.6848 -1.1219,1.2217 -1.8824,1.6106 -0.7605,0.3888 -1.6174,0.585 -2.5672,0.585 -1.2355,0 -2.3402,-0.3373 -3.3072,-1.0118 -0.9704,-0.6745 -1.7241,-1.6174 -2.2678,-2.8253 -0.5438,-1.2079 -0.8122,-2.5707 -0.8122,-4.0918 0,-1.5211 0.2719,-2.9148 0.8122,-4.1227 0.5403,-1.20794 1.2974,-2.14743 2.2678,-2.82193 0.9705,-0.67451 2.0717,-1.01176 3.3072,-1.01176 0.9498,0 1.8067,0.1996 2.5672,0.5988 0.7605,0.39919 1.3869,0.94293 1.8824,1.62776 z M 84.6986,18.1703 c 0.5128,-0.3407 0.9188,-0.8431 1.2114,-1.497 0.2959,-0.6573 0.4404,-1.4488 0.4404,-2.3814 0,-0.9326 -0.1479,-1.7241 -0.4404,-2.3814 -0.296,-0.6539 -0.6986,-1.1563 -1.2114,-1.497 -0.5128,-0.3407 -1.1012,-0.51275 -1.7689,-0.51275 -0.6676,0 -1.2595,0.17205 -1.7826,0.51275 -0.5231,0.3407 -0.9257,0.8431 -1.2113,1.497 -0.2857,0.6573 -0.4268,1.4488 -0.4268,2.3814 0,0.9326 0.1411,1.7241 0.4268,2.3814 0.2856,0.6539 0.6882,1.1563 1.2113,1.497 0.5231,0.3442 1.1185,0.5128 1.7826,0.5128 0.6642,0 1.2561,-0.1721 1.7689,-0.5128 z" fill="#2B2D33" fill-rule="nonzero" transform="translate(0.02 12.735)"/>
<path d="M 93.8113,3.98165 C 93.3846,3.55492 93.1712,2.99742 93.1712,2.31259 c 0,-0.68483 0.2134,-1.24233 0.6401,-1.669057 C 94.238,0.216805 94.7955,0 95.4803,0 c 0.6849,0 1.2355,0.213364 1.6553,0.643533 0.4164,0.426727 0.6264,0.984227 0.6264,1.669057 0,0.68483 -0.21,1.24233 -0.6264,1.66906 -0.4198,0.42672 -0.9704,0.64353 -1.6553,0.64353 -0.6848,0 -1.2423,-0.21336 -1.669,-0.64353 z m 3.579,17.83995 H 93.4844 V 6.73473 h 3.9059 z" fill="#2B2D33" fill-rule="nonzero" transform="translate(0 12.735)"/>
<path d="M7.1 2.43H10.5L17.6 21.825H12.45L12.025 17.6L5.575 17.6L5.15 21.825H0ZM6.567 7.73L11.033 7.73L11.693 14.3L5.907 14.3Z" fill="#2B2D33" fill-rule="evenodd" transform="translate(99.21 12.735)"/>
<path d="M12.516 9.393A7 7.942 0 1 0 12.516 19.172L9.403 17.141A3.05 4.642 0 1 1 9.403 11.424Z" fill="#2B2D33" fill-rule="nonzero" transform="translate(117.96 12.735)"/>
<path d="M12.516 9.393A7 7.942 0 1 0 12.516 19.172L9.403 17.141A3.05 4.642 0 1 1 9.403 11.424Z" fill="#2B2D33" fill-rule="nonzero" transform="translate(133.66 12.735)"/>
<path d="m 135.07,15.6616 h -10.183 c 0.134,1.1425 0.502,1.9685 1.111,2.4812 0.609,0.5128 1.501,0.7709 2.681,0.7709 0.816,0 1.573,-0.117 2.268,-0.3545 0.695,-0.2374 1.297,-0.5747 1.81,-1.0117 l 1.683,2.6808 c -0.761,0.647 -1.645,1.1425 -2.653,1.4832 -1.009,0.3407 -2.093,0.5128 -3.252,0.5128 -1.635,0 -3.043,-0.3132 -4.223,-0.9395 -1.18,-0.6263 -2.079,-1.5314 -2.695,-2.7084 -0.619,-1.1803 -0.925,-2.5775 -0.925,-4.1915 0,-1.614 0.303,-3.0043 0.912,-4.2226 0.609,-1.21821 1.469,-2.15769 2.581,-2.82532 1.111,-0.66418 2.381,-0.99799 3.806,-0.99799 1.425,0 2.67,0.32349 3.737,0.97046 1.064,0.64698 1.886,1.56926 2.468,2.76685 0.578,1.1976 0.87,2.6051 0.87,4.2225 v 1.3697 z m -10.183,-2.6808 h 6.246 c -0.097,-1.1219 -0.41,-1.9581 -0.94,-2.5087 -0.533,-0.55066 -1.256,-0.82597 -2.168,-0.82597 -1.824,0 -2.87,1.11157 -3.138,3.33807 z" fill="#2B2D33" fill-rule="nonzero" transform="translate(28.57 12.735)"/>
<path d="M0 6.54H4.1V27.425H0ZM0 14.282A7.3 7.942 0 1 1 14.6 14.282A7.3 7.942 0 1 1 0 14.282ZM3.95 14.282A3.35 4.642 0 1 0 10.65 14.282A3.35 4.642 0 1 0 3.95 14.282Z" fill="#2B2D33" fill-rule="nonzero" transform="translate(165.39 12.735)"/>
<path d="M3.3 3.1H7.4V6.45H10.2V9.75H7.4V16.925A1.2 1.2 0 0 0 9.403 17.817L12.146 20.864A5.3 5.3 0 0 1 3.3 16.925V9.75H0V6.45H3.3Z" fill="#2B2D33" fill-rule="nonzero" transform="translate(181.89 12.735)"/>
</svg>
