<svg width="264" height="48" viewBox="0 0 264 48" fill="none" xmlns="http://www.w3.org/2000/svg">
<path d="M 45.2538,2.42957 H 0 V 47.6868 h 45.2538 z" fill="#FEE600"/>
<path d="m 32.7238,21.8388 5.7677,-5.7677 1.5418,1.5417 0.0103,-0.0103 c 0,-0.9911 -0.2925,-4.398 -3.0284,-7.0651 -3.0628,-2.98707 -6.1291,-1.23886 -7.189,-0.1858 l -5.5543,5.5543 1.3765,1.3766 -3.0215,3.0215 -3.0215,-3.0215 1.3765,-1.3766 -5.5543,-5.5543 c -1.0565,-1.05651 -4.1228,-2.80127 -7.189,0.1858 -2.73588,2.6671 -3.02839,6.074 -3.02839,7.0651 l 0.01032,0.0103 1.54173,-1.5417 5.76774,5.7677 1.5899,-1.5899 v -3.7992 l 1.6346,1.6346 v 4.5942 l 2.2507,2.2507 -11.68,11.6799 4.6217,4.6218 11.68,-11.68 11.68,11.68 4.6217,-4.6218 -11.68,-11.6799 2.2507,-2.2507 v -4.5942 l 1.6346,-1.6346 v 3.7992 z" fill="#2B2D33"/>
<path d="M 69.8973,21.825 65.6748,14.1543 H 63.9644 V 21.825 H 59.8589 V 2.42957 h 7.7878 c 1.3318,0 2.4812,0.22368 3.4516,0.67106 0.9705,0.44738 1.7104,1.09779 2.2232,1.95469 0.5127,0.8569 0.7708,1.88242 0.7708,3.08001 0,1.40751 -0.3751,2.58447 -1.1253,3.53767 -0.7502,0.9533 -1.8205,1.6175 -3.2073,1.996 l 4.7077,8.156 H 69.9042 Z M 63.9644,5.96728 v 4.93492 h 3.1936 c 0.8569,0 1.5108,-0.2134 1.9685,-0.6401 0.4577,-0.42674 0.6848,-1.04963 0.6848,-1.86867 0,-0.81904 -0.2271,-1.4729 -0.6848,-1.85489 -0.4577,-0.38199 -1.1219,-0.57126 -1.996,-0.57126 z" fill="#2B2D33"/>
<path d="m 86.2403,6.73471 h 3.906 V 21.8216 h -3.906 v -1.7964 c -0.4955,0.6848 -1.1219,1.2217 -1.8824,1.6106 -0.7605,0.3888 -1.6174,0.585 -2.5672,0.585 -1.2355,0 -2.3402,-0.3373 -3.3072,-1.0118 -0.9704,-0.6745 -1.7241,-1.6174 -2.2678,-2.8253 -0.5438,-1.2079 -0.8122,-2.5707 -0.8122,-4.0918 0,-1.5211 0.2719,-2.9148 0.8122,-4.1227 0.5403,-1.20794 1.2974,-2.14743 2.2678,-2.82193 0.9705,-0.67451 2.0717,-1.01176 3.3072,-1.01176 0.9498,0 1.8067,0.1996 2.5672,0.5988 0.7605,0.39919 1.3869,0.94293 1.8824,1.62776 z M 84.6986,18.1703 c 0.5128,-0.3407 0.9188,-0.8431 1.2114,-1.497 0.2959,-0.6573 0.4404,-1.4488 0.4404,-2.3814 0,-0.9326 -0.1479,-1.7241 -0.4404,-2.3814 -0.296,-0.6539 -0.6986,-1.1563 -1.2114,-1.497 -0.5128,-0.3407 -1.1012,-0.51275 -1.7689,-0.51275 -0.6676,0 -1.2595,0.17205 -1.7826,0.51275 -0.5231,0.3407 -0.9257,0.8431 -1.2113,1.497 -0.2857,0.6573 -0.4268,1.4488 -0.4268,2.3814 0,0.9326 0.1411,1.7241 0.4268,2.3814 0.2856,0.6539 0.6882,1.1563 1.2113,1.497 0.5231,0.3442 1.1185,0.5128 1.7826,0.5128 0.6642,0 1.2561,-0.1721 1.7689,-0.5128 z" fill="#2B2D33"/>
<path d="M 93.8113,3.98165 C 93.3846,3.55492 93.1712,2.99742 93.1712,2.31259 c 0,-0.68483 0.2134,-1.24233 0.6401,-1.669057 C 94.238,0.216805 94.7955,0 95.4803,0 c 0.6849,0 1.2355,0.213364 1.6553,0.643533 0.4164,0.426727 0.6264,0.984227 0.6264,1.669057 0,0.68483 -0.21,1.24233 -0.6264,1.66906 -0.4198,0.42672 -0.9704,0.64353 -1.6553,0.64353 -0.6848,0 -1.2423,-0.21336 -1.669,-0.64353 z m 3.579,17.83995 H 93.4844 V 6.73473 h 3.9059 z" fill="#2B2D33"/>
<path d="m 105.749,6.73473 h 4.137 v 3.42417 h -4.137 v 11.6662 h -3.906 V 10.1589 H 99.2761 V 6.73473 h 2.5669 V 5.82277 c 0,-1.65529 0.475,-2.91827 1.425,-3.79238 0.95,-0.8741 2.254,-1.311152 3.906,-1.311152 0.609,0 1.187,0.055062 1.741,0.172068 0.551,0.113564 1.057,0.268424 1.511,0.457704 l -0.998,2.99397 c -0.513,-0.20992 -1.074,-0.31316 -1.683,-0.31316 -0.705,0 -1.211,0.16174 -1.524,0.48523 -0.313,0.32349 -0.472,0.81905 -0.472,1.48323 v 0.73989 z" fill="#2B2D33"/>
<path d="m 115.733,6.73473 h 4.136 v 3.42417 h -4.136 v 11.6662 h -3.906 V 10.1589 H 109.26 V 6.73473 h 2.567 V 5.82277 c 0,-1.65529 0.475,-2.91827 1.424,-3.79238 0.95,-0.8741 2.255,-1.311152 3.906,-1.311152 0.61,0 1.188,0.055062 1.742,0.172068 0.55,0.113564 1.056,0.268424 1.511,0.457704 l -0.998,2.99397 c -0.513,-0.20992 -1.074,-0.31316 -1.683,-0.31316 -0.706,0 -1.212,0.16174 -1.525,0.48523 -0.313,0.32349 -0.471,0.81905 -0.471,1.48323 v 0.73989 z" fill="#2B2D33"/>
<path d="m 135.07,15.6616 h -10.183 c 0.134,1.1425 0.502,1.9685 1.111,2.4812 0.609,0.5128 1.501,0.7709 2.681,0.7709 0.816,0 1.573,-0.117 2.268,-0.3545 0.695,-0.2374 1.297,-0.5747 1.81,-1.0117 l 1.683,2.6808 c -0.761,0.647 -1.645,1.1425 -2.653,1.4832 -1.009,0.3407 -2.093,0.5128 -3.252,0.5128 -1.635,0 -3.043,-0.3132 -4.223,-0.9395 -1.18,-0.6263 -2.079,-1.5314 -2.695,-2.7084 -0.619,-1.1803 -0.925,-2.5775 -0.925,-4.1915 0,-1.614 0.303,-3.0043 0.912,-4.2226 0.609,-1.21821 1.469,-2.15769 2.581,-2.82532 1.111,-0.66418 2.381,-0.99799 3.806,-0.99799 1.425,0 2.67,0.32349 3.737,0.97046 1.064,0.64698 1.886,1.56926 2.468,2.76685 0.578,1.1976 0.87,2.6051 0.87,4.2225 v 1.3697 z m -10.183,-2.6808 h 6.246 c -0.097,-1.1219 -0.41,-1.9581 -0.94,-2.5087 -0.533,-0.55066 -1.256,-0.82597 -2.168,-0.82597 -1.824,0 -2.87,1.11157 -3.138,3.33807 z" fill="#2B2D33"/>
<path d="m 137.792,3.98165 c -0.427,-0.42673 -0.64,-0.98423 -0.64,-1.66906 0,-0.68483 0.213,-1.24233 0.64,-1.669057 C 138.219,0.216805 138.776,0 139.461,0 c 0.685,0 1.235,0.213364 1.655,0.643533 0.417,0.426727 0.626,0.984227 0.626,1.669057 0,0.68483 -0.209,1.24233 -0.626,1.66906 -0.42,0.42672 -0.97,0.64353 -1.655,0.64353 -0.685,0 -1.242,-0.21336 -1.669,-0.64353 z m 3.579,17.83995 h -3.906 V 6.73473 h 3.906 z" fill="#2B2D33"/>
<path d="m 146.364,21.7253 c -1.067,-0.3338 -1.968,-0.85 -2.708,-1.5555 l 1.824,-2.7944 c 1.122,1.0634 2.546,1.5968 4.277,1.5968 0.761,0 1.336,-0.117 1.725,-0.3579 0.388,-0.2375 0.585,-0.5954 0.585,-1.0703 0,-0.3992 -0.176,-0.7261 -0.527,-0.9842 -0.351,-0.2581 -0.995,-0.499 -1.924,-0.7261 -1.197,-0.265 -2.182,-0.561 -2.952,-0.8844 -0.771,-0.3235 -1.394,-0.7812 -1.869,-1.3697 -0.475,-0.5885 -0.712,-1.3593 -0.712,-2.3091 0,-1.0084 0.258,-1.88247 0.77,-2.62236 0.513,-0.73989 1.246,-1.31116 2.196,-1.71036 0.95,-0.39919 2.055,-0.59879 3.307,-0.59879 1.177,0 2.268,0.17207 3.266,0.51276 0.998,0.34069 1.848,0.84657 2.554,1.51075 l -1.824,2.6808 c -0.513,-0.4749 -1.122,-0.8362 -1.824,-1.08401 -0.702,-0.24777 -1.435,-0.37166 -2.196,-0.37166 -0.76,0 -1.273,0.11356 -1.655,0.34413 -0.382,0.22714 -0.571,0.57124 -0.571,1.02554 0,0.265 0.079,0.4887 0.24,0.671 0.162,0.1824 0.441,0.3545 0.844,0.5266 0.402,0.172 0.97,0.3407 1.71,0.5127 1.025,0.2478 1.91,0.5438 2.653,0.8845 0.74,0.3407 1.349,0.8259 1.824,1.4557 0.475,0.6263 0.712,1.4247 0.712,2.3951 0,0.9705 -0.247,1.8171 -0.743,2.5398 -0.495,0.7226 -1.218,1.2836 -2.168,1.6828 -0.95,0.3992 -2.092,0.5988 -3.424,0.5988 -1.198,0 -2.33,-0.1652 -3.393,-0.499 z" fill="#2B2D33"/>
<path d="m 172.061,15.6616 h -10.183 c 0.134,1.1425 0.502,1.9685 1.111,2.4812 0.61,0.5128 1.501,0.7709 2.681,0.7709 0.816,0 1.573,-0.117 2.268,-0.3545 0.695,-0.2374 1.297,-0.5747 1.81,-1.0117 l 1.683,2.6808 c -0.76,0.647 -1.645,1.1425 -2.653,1.4832 -1.009,0.3407 -2.093,0.5128 -3.252,0.5128 -1.635,0 -3.042,-0.3132 -4.223,-0.9395 -1.18,-0.6263 -2.078,-1.5314 -2.694,-2.7084 -0.62,-1.1803 -0.926,-2.5775 -0.926,-4.1915 0,-1.614 0.303,-3.0043 0.912,-4.2226 0.609,-1.21821 1.469,-2.15769 2.581,-2.82532 1.111,-0.66418 2.381,-0.99799 3.806,-0.99799 1.425,0 2.67,0.32349 3.737,0.97046 1.064,0.64698 1.886,1.56926 2.468,2.76685 0.578,1.1976 0.87,2.6051 0.87,4.2225 v 1.3697 z m -10.183,-2.6808 h 6.246 c -0.096,-1.1219 -0.41,-1.9581 -0.94,-2.5087 -0.533,-0.55066 -1.256,-0.82597 -2.168,-0.82597 -1.824,0 -2.87,1.11157 -3.138,3.33807 z" fill="#2B2D33"/>
<path d="m 185.678,7.03412 c 0.809,0.46458 1.432,1.14597 1.869,2.04072 0.437,0.89475 0.657,1.96846 0.657,3.22456 v 9.5257 h -3.937 v -9.0405 c 0,-0.9704 -0.223,-1.6966 -0.671,-2.1818 -0.447,-0.4852 -1.125,-0.72612 -2.041,-0.72612 -0.684,0 -1.287,0.15142 -1.81,0.45772 -0.523,0.3063 -0.984,0.7605 -1.383,1.3696 v 10.1245 h -3.906 V 6.7416 h 3.906 v 1.76886 c 0.475,-0.68483 1.098,-1.21824 1.869,-1.59679 0.77,-0.37855 1.631,-0.57126 2.581,-0.57126 1.101,0 2.057,0.23401 2.866,0.69859 z" fill="#2B2D33"/>
<path d="m 211.144,13.3972 c 0.551,0.788 0.826,1.755 0.826,2.8941 0,1.7689 -0.568,3.1351 -1.696,4.0918 -1.133,0.9601 -2.733,1.4419 -4.805,1.4419 h -7.787 V 2.42957 h 7.103 c 2.054,0 3.641,0.44049 4.762,1.32492 1.122,0.88442 1.683,2.13364 1.683,3.75107 0,1.92028 -0.826,3.30024 -2.481,4.13654 1.046,0.382 1.845,0.967 2.395,1.7551 z m -9.357,-7.48843 v 4.53573 h 2.681 c 0.874,0 1.518,-0.1893 1.924,-0.57129 0.409,-0.37855 0.612,-0.93949 0.612,-1.68282 0,-0.8156 -0.22,-1.40063 -0.657,-1.75509 -0.437,-0.35102 -1.094,-0.52653 -1.968,-0.52653 h -2.595 z m 3.194,12.43363 c 0.895,0 1.562,-0.1893 2.01,-0.5713 0.447,-0.3785 0.671,-0.9876 0.671,-1.8239 0,-0.7812 -0.214,-1.3593 -0.641,-1.7413 -0.426,-0.382 -1.135,-0.5713 -2.123,-0.5713 h -3.107 v 4.7078 h 3.193 z" fill="#2B2D33"/>
<path d="m 224.321,6.73471 h 3.906 V 21.8216 h -3.906 v -1.7964 c -0.495,0.6848 -1.122,1.2217 -1.882,1.6106 -0.761,0.3888 -1.618,0.585 -2.567,0.585 -1.236,0 -2.341,-0.3373 -3.308,-1.0118 -0.97,-0.6745 -1.724,-1.6174 -2.267,-2.8253 -0.544,-1.2079 -0.813,-2.5707 -0.813,-4.0918 0,-1.5211 0.272,-2.9148 0.813,-4.1227 0.54,-1.20794 1.297,-2.14743 2.267,-2.82193 0.971,-0.67451 2.072,-1.01176 3.308,-1.01176 0.949,0 1.806,0.1996 2.567,0.5988 0.76,0.39919 1.387,0.94293 1.882,1.62776 z m -1.542,11.43559 c 0.513,-0.3407 0.919,-0.8431 1.212,-1.497 0.296,-0.6573 0.44,-1.4488 0.44,-2.3814 0,-0.9326 -0.148,-1.7241 -0.44,-2.3814 -0.296,-0.6539 -0.699,-1.1563 -1.212,-1.497 -0.512,-0.3407 -1.101,-0.51275 -1.768,-0.51275 -0.668,0 -1.26,0.17205 -1.783,0.51275 -0.523,0.3407 -0.926,0.8431 -1.211,1.497 -0.286,0.6573 -0.427,1.4488 -0.427,2.3814 0,0.9326 0.141,1.7241 0.427,2.3814 0.285,0.6539 0.688,1.1563 1.211,1.497 0.523,0.3442 1.118,0.5128 1.783,0.5128 0.664,0 1.256,-0.1721 1.768,-0.5128 z" fill="#2B2D33"/>
<path d="m 242.787,7.03412 c 0.809,0.46458 1.432,1.14597 1.869,2.04072 0.437,0.89475 0.657,1.96846 0.657,3.22456 v 9.5257 h -3.937 v -9.0405 c 0,-0.9704 -0.223,-1.6966 -0.671,-2.1818 -0.447,-0.4852 -1.125,-0.72612 -2.04,-0.72612 -0.685,0 -1.287,0.15142 -1.81,0.45772 -0.524,0.3063 -0.985,0.7605 -1.384,1.3696 v 10.1245 h -3.906 V 6.7416 h 3.906 v 1.76886 c 0.475,-0.68483 1.098,-1.21824 1.869,-1.59679 0.771,-0.37855 1.631,-0.57126 2.581,-0.57126 1.101,0 2.058,0.23401 2.866,0.69859 z" fill="#2B2D33"/>
<path d="m 256.033,13.7792 6.047,8.0424 h -4.677 l -5.162,-6.8448 v 6.8448 h -3.906 V 1.28705 h 3.906 V 12.8672 l 4.907,-6.13249 h 4.65 l -5.761,7.04449 z" fill="#2B2D33"/>
<path d="M 61.5417,47.6834 H 59.8589 V 28.288 h 1.6828 z" fill="#2B2D33"/>
<path d="m 74.5466,33.3949 c 0.7227,0.3992 1.2802,0.9808 1.6691,1.7413 0.3888,0.7606 0.585,1.6725 0.585,2.7394 v 9.8113 h -1.6243 v -9.6117 c 0,-1.2183 -0.3132,-2.1474 -0.9395,-2.7944 -0.6263,-0.647 -1.5108,-0.9705 -2.6533,-0.9705 -1.8446,0 -3.3003,0.8844 -4.3636,2.6533 V 47.6869 H 65.5956 V 33.1127 H 67.22 v 2.2816 c 0.5127,-0.8156 1.1735,-1.4556 1.9822,-1.9099 0.8087,-0.4577 1.7344,-0.6848 2.7806,-0.6848 0.9877,0 1.8446,0.1996 2.5672,0.5988 z" fill="#2B2D33"/>
<path d="m 88.577,47.3703 c -0.819,0.4164 -1.7689,0.6263 -2.8529,0.6263 -2.815,0 -4.2225,-1.4351 -4.2225,-4.3086 v -9.0989 h -2.7393 v -1.4833 h 2.7393 v -3.7373 h 1.6277 v 3.7373 h 5.107 v 1.4833 h -5.107 v 8.9544 c 0,1.0083 0.2237,1.7482 0.6711,2.2231 0.4474,0.4749 1.146,0.7123 2.0958,0.7123 0.8569,0 1.5796,-0.1617 2.168,-0.4852 l 0.5128,1.3697 z" fill="#2B2D33"/>
<path d="M 101.926,40.9246 H 91.1442 c 0.0757,1.8446 0.5472,3.2383 1.411,4.1778 0.8638,0.9395 2.0786,1.411 3.6375,1.411 1.8618,0 3.3381,-0.6367 4.4223,-1.91 l 0.857,1.1701 c -0.627,0.702 -1.394,1.2492 -2.2957,1.6381 -0.9016,0.3888 -1.9168,0.585 -3.0387,0.585 -1.3696,0 -2.5569,-0.2994 -3.5652,-0.8982 -1.0083,-0.5988 -1.7826,-1.466 -2.3229,-2.5948 -0.5403,-1.1322 -0.8122,-2.4846 -0.8122,-4.0642 0,-1.5796 0.2616,-2.9148 0.7846,-4.0643 0.5231,-1.1494 1.2596,-2.0338 2.2094,-2.6532 0.9498,-0.616 2.0545,-0.9258 3.3071,-0.9258 1.2527,0 2.3195,0.3029 3.2521,0.912 0.9326,0.6091 1.6555,1.4867 2.1685,2.6395 0.512,1.1494 0.77,2.5053 0.77,4.0643 v 0.5127 z m -9.3846,-5.248 c -0.7984,0.9119 -1.2561,2.2231 -1.3696,3.9369 h 9.0992 c -0.076,-1.6932 -0.5131,-3.0009 -1.3115,-3.9232 -0.7983,-0.9223 -1.8721,-1.3834 -3.2245,-1.3834 -1.3525,0 -2.3952,0.4577 -3.1936,1.3697 z" fill="#2B2D33"/>
<path d="m 111.737,32.9957 v 1.5968 c -0.42,-0.0378 -0.733,-0.0585 -0.939,-0.0585 -0.971,0 -1.807,0.2478 -2.509,0.7399 -0.705,0.4955 -1.321,1.2182 -1.855,2.168 V 47.68 H 104.81 V 33.1058 h 1.624 v 2.7944 c 0.513,-0.9498 1.132,-1.6759 1.855,-2.1818 0.723,-0.5024 1.587,-0.7571 2.595,-0.7571 0.382,0 0.664,0.0103 0.857,0.0275 z" fill="#2B2D33"/>
<path d="m 123.176,33.3949 c 0.723,0.3992 1.281,0.9808 1.669,1.7413 0.389,0.7606 0.585,1.6725 0.585,2.7394 v 9.8113 h -1.624 v -9.6117 c 0,-1.2183 -0.313,-2.1474 -0.939,-2.7944 -0.627,-0.647 -1.511,-0.9705 -2.654,-0.9705 -1.844,0 -3.3,0.8844 -4.363,2.6533 v 10.7233 h -1.625 V 33.1127 h 1.625 v 2.2816 c 0.512,-0.8156 1.173,-1.4556 1.982,-1.9099 0.809,-0.4577 1.734,-0.6848 2.781,-0.6848 0.987,0 1.844,0.1996 2.567,0.5988 z" fill="#2B2D33"/>
<path d="m 139.034,33.1093 h 1.624 v 14.5741 h -1.624 v -2.9079 c -0.458,1.0083 -1.118,1.7963 -1.982,2.3676 -0.867,0.5713 -1.858,0.8569 -2.98,0.8569 -1.181,0 -2.23,-0.3132 -3.153,-0.9395 -0.922,-0.6263 -1.645,-1.5107 -2.168,-2.6533 -0.523,-1.1425 -0.784,-2.4709 -0.784,-3.9919 0,-1.5211 0.261,-2.8564 0.784,-4.0058 0.523,-1.1494 1.246,-2.0407 2.168,-2.667 0.923,-0.6264 1.972,-0.9395 3.153,-0.9395 1.18,0 2.116,0.2856 2.98,0.8569 0.864,0.5712 1.524,1.3696 1.982,2.3952 v -2.939 z m -2.123,12.6504 c 0.712,-0.4853 1.263,-1.1873 1.655,-2.1096 0.389,-0.9223 0.585,-1.9994 0.585,-3.2383 0,-1.2389 -0.196,-2.3435 -0.585,-3.2658 -0.389,-0.9223 -0.939,-1.6244 -1.655,-2.1096 -0.713,-0.4852 -1.535,-0.7261 -2.468,-0.7261 -0.932,0 -1.782,0.2443 -2.495,0.7261 -0.712,0.4852 -1.27,1.1873 -1.669,2.1096 -0.399,0.9223 -0.599,2.0097 -0.599,3.2658 0,1.2561 0.2,2.3401 0.599,3.2521 0.399,0.9119 0.957,1.6105 1.669,2.0958 0.713,0.4852 1.545,0.7261 2.495,0.7261 0.95,0 1.755,-0.2409 2.468,-0.7261 z" fill="#2B2D33"/>
<path d="m 152.779,47.3703 c -0.819,0.4164 -1.769,0.6263 -2.853,0.6263 -2.815,0 -4.223,-1.4351 -4.223,-4.3086 v -9.0989 h -2.739 v -1.4833 h 2.739 v -3.7373 h 1.628 v 3.7373 h 5.107 v 1.4833 h -5.107 v 8.9544 c 0,1.0083 0.224,1.7482 0.671,2.2231 0.448,0.4749 1.146,0.7123 2.096,0.7123 0.857,0 1.58,-0.1617 2.168,-0.4852 l 0.513,1.3697 z" fill="#2B2D33"/>
<path d="m 155.092,29.5165 c -0.248,-0.2271 -0.372,-0.5334 -0.372,-0.912 0,-0.3785 0.124,-0.6882 0.372,-0.9257 0.247,-0.2374 0.55,-0.3579 0.911,-0.3579 0.379,0 0.689,0.1205 0.926,0.3579 0.238,0.2375 0.358,0.5472 0.358,0.9257 0,0.3786 -0.12,0.6849 -0.358,0.912 -0.237,0.2271 -0.547,0.3407 -0.926,0.3407 -0.378,0 -0.664,-0.1136 -0.911,-0.3407 z m 1.71,18.1669 h -1.624 V 33.1093 h 1.624 z" fill="#2B2D33"/>
<path d="m 162.876,47.0708 c -1.008,-0.616 -1.793,-1.5004 -2.354,-2.6532 -0.561,-1.1495 -0.843,-2.4847 -0.843,-4.0092 0,-1.5245 0.285,-2.8598 0.857,-4.023 0.571,-1.1597 1.359,-2.0476 2.367,-2.667 1.009,-0.616 2.148,-0.9257 3.421,-0.9257 1.273,0 2.443,0.3097 3.452,0.9257 1.008,0.6194 1.793,1.5039 2.354,2.6533 0.561,1.1494 0.843,2.495 0.843,4.0367 0,1.5417 -0.282,2.8563 -0.843,4.0092 -0.561,1.1494 -1.346,2.0338 -2.354,2.6532 -1.009,0.616 -2.158,0.9258 -3.452,0.9258 -1.294,0 -2.443,-0.3098 -3.452,-0.9258 z m 6.06,-1.3111 c 0.75,-0.4852 1.332,-1.1838 1.741,-2.0958 0.41,-0.912 0.613,-1.996 0.613,-3.2521 0,-1.2561 -0.203,-2.3435 -0.613,-3.2658 -0.409,-0.9223 -0.987,-1.6243 -1.741,-2.1096 -0.75,-0.4852 -1.621,-0.7261 -2.608,-0.7261 -0.988,0 -1.855,0.2443 -2.595,0.7261 -0.744,0.4853 -1.318,1.1873 -1.724,2.1096 -0.41,0.9223 -0.613,2.0097 -0.613,3.2658 0,1.2561 0.203,2.3401 0.613,3.2521 0.409,0.912 0.984,1.6106 1.724,2.0958 0.74,0.4852 1.607,0.7261 2.595,0.7261 0.987,0 1.858,-0.2409 2.608,-0.7261 z" fill="#2B2D33"/>
<path d="m 184.811,33.3949 c 0.723,0.3992 1.28,0.9808 1.669,1.7413 0.389,0.7606 0.585,1.6725 0.585,2.7394 v 9.8113 h -1.624 v -9.6117 c 0,-1.2183 -0.313,-2.1474 -0.94,-2.7944 -0.626,-0.647 -1.51,-0.9705 -2.653,-0.9705 -1.844,0 -3.3,0.8844 -4.364,2.6533 V 47.6869 H 175.86 V 33.1127 h 1.624 v 2.2816 c 0.513,-0.8156 1.174,-1.4556 1.983,-1.9099 0.808,-0.4577 1.734,-0.6848 2.78,-0.6848 0.988,0 1.845,0.1996 2.568,0.5988 z" fill="#2B2D33"/>
<path d="m 200.669,33.1093 h 1.624 v 14.5741 h -1.624 v -2.9079 c -0.458,1.0083 -1.119,1.7963 -1.982,2.3676 -0.868,0.5713 -1.859,0.8569 -2.981,0.8569 -1.18,0 -2.23,-0.3132 -3.152,-0.9395 -0.922,-0.6263 -1.645,-1.5107 -2.168,-2.6533 -0.523,-1.1425 -0.785,-2.4709 -0.785,-3.9919 0,-1.5211 0.262,-2.8564 0.785,-4.0058 0.523,-1.1494 1.246,-2.0407 2.168,-2.667 0.922,-0.6264 1.972,-0.9395 3.152,-0.9395 1.181,0 2.117,0.2856 2.981,0.8569 0.863,0.5712 1.524,1.3696 1.982,2.3952 v -2.939 z m -2.124,12.6504 c 0.713,-0.4853 1.263,-1.1873 1.656,-2.1096 0.389,-0.9223 0.585,-1.9994 0.585,-3.2383 0,-1.2389 -0.196,-2.3435 -0.585,-3.2658 -0.389,-0.9223 -0.94,-1.6244 -1.656,-2.1096 -0.715,-0.4852 -1.534,-0.7261 -2.467,-0.7261 -0.933,0 -1.783,0.2443 -2.495,0.7261 -0.712,0.4852 -1.27,1.1873 -1.669,2.1096 -0.399,0.9223 -0.599,2.0097 -0.599,3.2658 0,1.2561 0.2,2.3401 0.599,3.2521 0.399,0.9119 0.957,1.6105 1.669,2.0958 0.712,0.4852 1.545,0.7261 2.495,0.7261 0.95,0 1.755,-0.2409 2.467,-0.7261 z" fill="#2B2D33"/>
<path d="m 207.94,47.6834 h -1.624 V 27.1489 h 1.624 z" fill="#2B2D33"/>
</svg>
