<?xml version="1.0" encoding="UTF-8" standalone="no"?>
<!-- Created with Inkscape (http://www.inkscape.org/) -->

<svg
   width="445.27744mm"
   height="146.29227mm"
   viewBox="0 0 445.27743 146.29227"
   version="1.1"
   id="svg1"
   xml:space="preserve"
   inkscape:version="1.4.3 (0d15f75, 2025-12-25)"
   sodipodi:docname="vela-logo.svg"
   xmlns:inkscape="http://www.inkscape.org/namespaces/inkscape"
   xmlns:sodipodi="http://sodipodi.sourceforge.net/DTD/sodipodi-0.dtd"
   xmlns:xlink="http://www.w3.org/1999/xlink"
   xmlns="http://www.w3.org/2000/svg"
   xmlns:svg="http://www.w3.org/2000/svg"><sodipodi:namedview
     id="namedview1"
     pagecolor="#505050"
     bordercolor="#ffffff"
     borderopacity="1"
     inkscape:showpageshadow="0"
     inkscape:pageopacity="0"
     inkscape:pagecheckerboard="1"
     inkscape:deskcolor="#505050"
     inkscape:document-units="mm"
     inkscape:zoom="0.12995318"
     inkscape:cx="942.64719"
     inkscape:cy="1496.6929"
     inkscape:window-width="3440"
     inkscape:window-height="1369"
     inkscape:window-x="-8"
     inkscape:window-y="-8"
     inkscape:window-maximized="1"
     inkscape:current-layer="layer1"
     showguides="true"><inkscape:page
       x="0"
       y="0"
       width="445.27744"
       height="146.29227"
       id="page2"
       margin="0"
       bleed="0" /></sodipodi:namedview><defs
     id="defs1"><linearGradient
       id="linearGradient5"
       inkscape:collect="always"><stop
         style="stop-color:#FACC15;stop-opacity:1;"
         offset="0"
         id="stop1" /><stop
         style="stop-color:#F59E0B;stop-opacity:1;"
         offset="0.20795684"
         id="stop2" /><stop
         style="stop-color:#ff2e2e;stop-opacity:1;"
         offset="0.46613425"
         id="stop3" /><stop
         style="stop-color:#a31238;stop-opacity:1;"
         offset="0.75824177"
         id="stop4" /><stop
         style="stop-color:#7F1D3B;stop-opacity:1;"
         offset="1"
         id="stop5" /></linearGradient><filter
       style="color-interpolation-filters:sRGB"
       inkscape:label="Blur"
       id="filter28"
       x="-0.06928479"
       y="-0.019133034"
       width="1.1385696"
       height="1.0382661"><feGaussianBlur
         stdDeviation="2 2"
         result="blur"
         id="feGaussianBlur28" /></filter><filter
       style="color-interpolation-filters:sRGB"
       inkscape:label="Blur"
       id="filter29"
       x="-0.071476008"
       y="-0.022600283"
       width="1.142952"
       height="1.0452006"><feGaussianBlur
         stdDeviation="2 2"
         result="blur"
         id="feGaussianBlur29" /></filter><filter
       style="color-interpolation-filters:sRGB"
       inkscape:label="Blur"
       id="filter27"
       x="-0.012852712"
       y="-0.03507554"
       width="1.0257054"
       height="1.0701511"><feGaussianBlur
         stdDeviation="2 2"
         result="blur"
         id="feGaussianBlur27" /></filter><linearGradient
       inkscape:collect="always"
       xlink:href="#linearGradient5"
       id="linearGradient24"
       gradientUnits="userSpaceOnUse"
       gradientTransform="matrix(1,0,0,1.1441098,1472.4334,-997.0171)"
       x1="345.85626"
       y1="16.103294"
       x2="243.74724"
       y2="88.771858" /></defs><g
     inkscape:label="Layer 1"
     inkscape:groupmode="layer"
     id="layer1"
     transform="translate(-1695.7539,1009.6384)"><g
       id="g206"><g
         id="g162"
         transform="translate(12.724936,-7.3221323)"><path
           id="path158"
           style="font-weight:bold;font-size:140.326px;font-family:'Clash Display';-inkscape-font-specification:'Clash Display Bold';letter-spacing:0px;fill:#f9f9f9;stroke-width:2.94684"
           d="m 2091.6812,-954.99007 c -23.9957,0 -39.7123,12.06782 -39.7123,30.8715 v 0.28061 h 26.3813 v -0.56121 c 0,-5.89369 2.6661,-7.57783 11.3663,-7.57783 9.4018,0 12.4891,1.12297 12.4891,8.2796 v 1.40301 l -28.7667,2.80655 c -15.9972,1.54358 -22.873,8.70031 -22.873,18.66346 0,12.06803 8.9806,19.36522 24.9778,19.36522 15.2955,0 23.9957,-6.31492 26.6619,-16.27807 h 1.4036 v 14.87454 h 24.6972 v -40.27351 c 0,-19.78596 -11.9278,-31.85387 -36.6252,-31.85387 z m 10.3844,47.28962 c -0.7017,6.31467 -5.8938,7.85844 -18.6635,7.85844 -4.0694,0 -6.3148,-0.4213 -6.3148,-2.66651 0,-1.54359 0.9821,-2.38533 3.3677,-2.66598 z" /><path
           style="font-weight:bold;font-size:140.326px;font-family:'Clash Display';-inkscape-font-specification:'Clash Display Bold';letter-spacing:0px;fill:#f9f9f9;stroke-width:2.94684"
           d="m 2043.9967,-882.86269 v -94.01843 h -26.3813 v 94.01843 z"
           id="path156" /><path
           id="path155"
           style="font-weight:bold;font-size:140.326px;font-family:'Clash Display';-inkscape-font-specification:'Clash Display Bold';letter-spacing:0px;fill:#f9f9f9;stroke-width:2.94684"
           d="m 1969.8427,-956.3936 c -23.5747,0 -40.2735,13.75174 -40.2735,36.7652 0,26.52162 16.839,36.76571 40.8347,36.76571 23.8555,0 38.8705,-11.08598 38.8705,-26.80249 v -1.68414 h -26.3814 v 1.54358 c 0,4.20978 -2.8063,6.03425 -13.471,6.03425 -11.2261,0 -15.0152,-2.38569 -15.4362,-10.94558 h 55.4291 c 0.2806,-2.52587 0.4207,-4.34996 0.4207,-6.73551 0,-22.73281 -15.5761,-34.94102 -39.9929,-34.94102 z m -0.5612,20.20704 c 9.8229,0 14.0322,2.1045 15.0145,8.13852 h -29.8891 c 1.1226,-6.03402 5.1921,-8.13852 14.8746,-8.13852 z" /><path
           style="font-weight:bold;font-size:140.326px;font-family:'Clash Display';-inkscape-font-specification:'Clash Display Bold';letter-spacing:0px;fill:#f9f9f9;stroke-width:2.94684"
           d="m 1903.3533,-882.86269 37.7477,-94.01843 h -31.7137 l -23.7151,67.35648 h -1.8242 l 0.065,-67.35648 h -28.1498 l 0.089,94.01843 z"
           id="text326"
           sodipodi:nodetypes="ccccccccc" /></g><rect
         style="fill:#f9f9f9;fill-opacity:1;fill-rule:nonzero;stroke:none;stroke-width:21.2057"
         id="rect18"
         width="144.23181"
         height="146.29227"
         x="1695.7539"
         y="-1009.6384"
         rx="25.449871"
         ry="27.74036" /><g
         id="g163"
         transform="translate(0,2.7734375e-5)"><path
           id="path19"
           style="fill:url(#linearGradient24);fill-opacity:1;fill-rule:nonzero;stroke-width:1.06963"
           d="m 1766.5071,-978.5912 v 5.2e-4 c -0.855,0.0383 -1.7583,0.61642 -2.1301,1.43919 -0.2046,0.4526 -1.1089,3.16976 -2.0097,6.03787 l -1.6376,5.21467 0.7394,2.47117 c 0.4067,1.35923 1.4432,3.32111 2.4583,6.31796 2.2386,6.60873 2.5613,9.08764 1.6516,15.27142 -2.2697,15.42797 -4.1154,23.84466 -5.84,29.62558 13.3187,-1.65382 26.2327,-4.59859 37.4654,-11.42876 -1.8142,-6.07367 -5.3753,-16.93778 -8.0791,-24.45019 -5.4067,-15.02276 -8.2104,-21.84625 -9.3782,-22.82651 -1.17,-0.98206 -11.7874,-7.3619 -12.6628,-7.60884 -0.1851,-0.0522 -0.3799,-0.0729 -0.5772,-0.0641 z m 2.7156,8.9793 a 1.8659934,1.8659934 0 0 1 1.866,1.86603 1.8659934,1.8659934 0 0 1 -1.866,1.86604 1.8659934,1.8659934 0 0 1 -1.8661,-1.86604 1.8659934,1.8659934 0 0 1 1.8661,-1.86603 z m -13.069,2.93574 c -0.6995,-0.0211 -1.6421,0.68378 -3.1946,2.23914 -2.4713,2.47589 -6.3588,6.57404 -7.0683,7.45122 -0.6997,0.86503 -0.7848,1.18524 -3.2867,12.34757 -3.8432,17.14618 -6.3284,28.18397 -7.8915,35.33324 7.1996,-0.7447 14.5819,-1.24308 21.8514,-2.21744 1.4103,-6.35988 3.5398,-19.36001 4.8979,-30.22502 0.6663,-5.33086 0.7019,-5.9322 0.4372,-7.46776 -0.4673,-2.71054 -4.1482,-15.84753 -4.6695,-16.66514 -0.3243,-0.50868 -0.6561,-0.78312 -1.0759,-0.79581 z m -1.571,9.48004 a 1.8659934,1.8659934 0 0 1 1.8661,1.86603 1.8659934,1.8659934 0 0 1 -1.8661,1.86604 1.8659934,1.8659934 0 0 1 -1.866,-1.86604 1.8659934,1.8659934 0 0 1 1.866,-1.86603 z m 55.3905,25.44496 c -3.9477,0.0907 -7.8409,0.23622 -7.8409,0.23822 -0.054,0.0618 0.3848,2.18921 2.1167,2.35128 3.1308,0.29301 2.391,2.39824 2.298,2.48254 -24.0915,21.91539 -59.6557,17.88957 -89.7237,22.39863 -0.6498,0.0975 -0.7238,0.27633 -0.5819,0.84181 0.2725,1.08561 1.8206,3.28863 3.236,4.60437 1.3085,1.2164 2.7262,2.07151 4.5615,2.75177 0.7623,0.28259 7.2314,0.33889 34.1457,0.29869 11.3334,-0.0169 24.4004,1.14806 35.3219,-0.7922 2.626,-0.92167 5.2874,-2.47527 7.2393,-4.22558 4.3562,-3.9063 10.8946,-16.68052 12.6592,-18.70635 0.061,-0.0698 2.3418,-0.35808 2.3828,2.18694 0.029,1.76952 2.27,2.27374 2.342,2.24379 l 5e-4,-5.1e-4 c 0.032,-0.0317 0.3354,-16.25769 0.011,-16.58245 -0.2178,-0.21779 -4.2201,-0.18164 -8.1679,-0.091 z" /><g
           id="g95"><path
             id="path22"
             style="opacity:0.2;fill:#000000;stroke-width:7;filter:url(#filter27)"
             d="m 1093.0558,78.194621 c 0,0 -11.2059,28.518289 -29.9199,36.003909 -19.4454,7.77817 5.9403,89.85552 -342.98242,88.06054 4.94563,4.59742 10.3034,7.82933 17.24023,10.4004 2.88121,1.06803 27.33128,1.28279 129.05469,1.13085 42.83486,-0.064 92.2219,4.33716 133.5,-2.99609 9.9253,-3.48348 19.9841,-9.35536 27.3613,-15.9707 16.4643,-14.76397 41.1763,-63.04449 47.8457,-70.70117 0.2298,-0.26366 8.8509,-1.35335 9.0059,8.26562 0.1081,6.71416 8.6418,8.60994 8.8515,8.48047 v 0 c 0.1191,-0.11991 1.2686,-61.446409 0.041,-62.673829 z"
             sodipodi:nodetypes="csccscsssccc"
             transform="matrix(0.26458333,0,0,0.26458333,1528.9367,-952.34893)" /><path
             id="path20"
             style="opacity:0.2;fill:#000000;stroke-width:4.0427;filter:url(#filter28)"
             d="m 897.9034,-95.18039 c -3.23138,0.14486 -6.64525,2.32784 -8.05078,5.4375 -0.77314,1.71063 -4.19111,11.98021 -7.59571,22.82032 l -6.18945,19.70898 2.79492,9.33984 c 1.53718,5.13726 5.45431,12.55225 9.29102,23.87891 8.46081,24.97788 9.68043,34.34894 6.24219,57.7207 -8.57817,58.31073 -15.55579,90.11974 -22.07422,111.96875 21.73775,-2.69922 43.1917,-6.30875 63.9707,-11.61718 19.15727,-92.24927 -19.18478,-175.49102 -25.94336,-189.16797 -1.91682,0.5993 -3.99293,0.24864 -6.25195,-1.04688 -7.5298,-4.31826 -5.38681,-16.60313 2.31054,-18.2539 -8.49332,-10.77133 -8.5039,-30.78907 -8.5039,-30.78907 z"
             transform="matrix(0.26458333,0,0,0.26458333,1528.9367,-953.40727)" /><path
             style="opacity:0.2;fill:#000000;stroke-width:4.18681;filter:url(#filter29)"
             d="m 860.29598,-50.15094 c 0,0 -1.32883,23.3158 -6.8418,33.20508 6.51549,1.37581 9.44959,11.80245 4.44531,17.94335003 C 856.20482,3.07707 854.33383,4.00921 851.85457,4.00921 c -0.0635,0 -0.12634,-9.2e-4 -0.18945,-0.002 -1.29321,14.92706 -9.35555,98.83568 -31.75196,158.22852 14.10683,-1.12495 28.22354,-2.36614 42.24805,-3.93164 6.40033,-24.0376 16.06339,-73.17224 22.22656,-114.23633 3.02397,-20.14816 3.18371,-22.42087 1.98243,-28.22461 -2.1205,-10.24455 -18.8237,-59.89615 -21.18946,-62.98633 -1.47182,-1.92256 -2.97999,-2.95984 -4.88476,-3.00781 z"
             transform="matrix(0.22034707,0,0,0.26458333,1566.5897,-953.40727)"
             id="path21" /><path
             id="path23"
             style="opacity:0.2;fill:#000000;stroke-width:1.57123"
             d="m 1769.2225,-970.53216 a 2.7862091,2.7862091 0 0 0 -2.7863,2.78618 2.7862091,2.7862091 0 0 0 2.7863,2.78618 2.7862091,2.7862091 0 0 0 2.7862,-2.78618 2.7862091,2.7862091 0 0 0 -2.7862,-2.78618 z m 0,0.91999 a 1.8659934,1.8659934 0 0 1 1.8661,1.86619 1.8659934,1.8659934 0 0 1 -1.8661,1.86584 1.8659934,1.8659934 0 0 1 -1.8659,-1.86584 1.8659934,1.8659934 0 0 1 1.8659,-1.86619 z" /><path
             id="path24"
             style="opacity:0.2;fill:#000000;stroke-width:1.57123"
             d="m 1754.5826,-958.11629 a 2.7862091,2.7862091 0 0 0 -2.7863,2.78618 2.7862091,2.7862091 0 0 0 2.7863,2.78618 2.7862091,2.7862091 0 0 0 2.7862,-2.78618 2.7862091,2.7862091 0 0 0 -2.7862,-2.78618 z m 0,0.91999 a 1.8659934,1.8659934 0 0 1 1.8661,1.86619 1.8659934,1.8659934 0 0 1 -1.8661,1.86584 1.8659934,1.8659934 0 0 1 -1.8659,-1.86584 1.8659934,1.8659934 0 0 1 1.8659,-1.86619 z" /></g></g></g></g></svg>
