<?xml version="1.0" encoding="UTF-8" standalone="no"?>
<!-- Created with Inkscape (http://www.inkscape.org/) -->

<svg
   width="144.23189mm"
   height="146.29227mm"
   viewBox="0 0 144.23189 146.29227"
   version="1.1"
   id="svg1"
   xml:space="preserve"
   inkscape:version="1.4.3 (0d15f75, 2025-12-25)"
   sodipodi:docname="vela-logo-original.svg"
   xmlns:inkscape="http://www.inkscape.org/namespaces/inkscape"
   xmlns:sodipodi="http://sodipodi.sourceforge.net/DTD/sodipodi-0.dtd"
   xmlns="http://www.w3.org/2000/svg"
   xmlns:svg="http://www.w3.org/2000/svg"><sodipodi:namedview
     id="namedview1"
     pagecolor="#505050"
     bordercolor="#ffffff"
     borderopacity="1"
     inkscape:showpageshadow="0"
     inkscape:pageopacity="0"
     inkscape:pagecheckerboard="1"
     inkscape:deskcolor="#505050"
     inkscape:document-units="mm"
     inkscape:zoom="0.12995318"
     inkscape:cx="2243.1156"
     inkscape:cy="1927.6173"
     inkscape:window-width="3440"
     inkscape:window-height="1369"
     inkscape:window-x="-8"
     inkscape:window-y="-8"
     inkscape:window-maximized="1"
     inkscape:current-layer="layer1"
     showguides="true"><inkscape:page
       x="0"
       y="0"
       width="144.23189"
       height="146.29227"
       id="page2"
       margin="0"
       bleed="0" /></sodipodi:namedview><defs
     id="defs1"><filter
       style="color-interpolation-filters:sRGB"
       inkscape:label="Blur"
       id="filter28"
       x="-0.06928479"
       y="-0.019133034"
       width="1.1385696"
       height="1.0382661"><feGaussianBlur
         stdDeviation="2 2"
         result="blur"
         id="feGaussianBlur28" /></filter><filter
       style="color-interpolation-filters:sRGB"
       inkscape:label="Blur"
       id="filter29"
       x="-0.05015555"
       y="-0.018376362"
       width="1.1003111"
       height="1.0367527"><feGaussianBlur
         stdDeviation="2 2"
         result="blur"
         id="feGaussianBlur29" /></filter><filter
       style="color-interpolation-filters:sRGB"
       inkscape:label="Blur"
       id="filter27"
       x="-0.012852712"
       y="-0.03507554"
       width="1.0257054"
       height="1.0701511"><feGaussianBlur
         stdDeviation="2 2"
         result="blur"
         id="feGaussianBlur27" /></filter></defs><g
     inkscape:label="Layer 1"
     inkscape:groupmode="layer"
     id="layer1"
     transform="translate(-2568.7889,790.85584)"><g
       id="g533"><rect
         style="fill:#000000;fill-opacity:1;fill-rule:nonzero;stroke:none;stroke-width:21.2057"
         id="rect504"
         width="144.23181"
         height="146.29227"
         x="2568.7888"
         y="-790.85583"
         rx="25.449871"
         ry="27.74036" /><g
         id="g506"
         style="fill:#e6e6e6"
         transform="translate(541.31295)"><path
           id="path504"
           style="fill:#e6e6e6;fill-opacity:1;fill-rule:nonzero;stroke-width:1.06963"
           d="m 2098.229,-758.75007 c -0.855,0.0383 -1.7583,0.61642 -2.1301,1.43919 -0.2046,0.4526 -1.1089,3.16976 -2.0097,6.03787 l -1.6377,5.21467 0.7395,2.47117 c 0.4067,1.35923 1.4432,3.32111 2.4583,6.31796 2.2386,6.60873 2.5613,9.08764 1.6516,15.27142 -2.2697,15.42797 -4.1154,23.84466 -5.84,29.62558 13.3187,-1.65382 26.2327,-4.59859 37.4654,-11.42876 -1.8142,-6.07367 -5.3753,-16.93778 -8.0791,-24.45019 -5.4067,-15.02276 -8.2104,-21.84625 -9.3782,-22.82651 -1.17,-0.98206 -11.7874,-7.3619 -12.6628,-7.60884 -0.1851,-0.0522 -0.3799,-0.0724 -0.5772,-0.0636 z m 2.7187,8.09821 c 1.9778,0 3.0141,2.70866 1.665,4.35168 -0.7866,0.95798 -1.6908,1.13118 -2.7451,0.52658 -2.1376,-1.22591 -1.329,-4.87826 1.0801,-4.87826 z" /><path
           id="path505"
           style="fill:#e6e6e6;fill-opacity:1;fill-rule:nonzero;stroke-width:1.10776"
           d="m 2088.2787,-746.83551 c -0.84,-0.0211 -1.9718,0.68378 -3.836,2.23914 -2.9674,2.47589 -7.6353,6.57404 -8.4873,7.45122 -0.8402,0.86503 -0.9423,1.18524 -3.9465,12.34757 -4.6148,17.14618 -7.5985,28.18397 -9.4754,35.33324 8.6449,-0.7447 17.5093,-1.24307 26.2382,-2.21743 1.6934,-6.35988 4.2506,-19.36002 5.8813,-30.22503 0.8001,-5.33086 0.8423,-5.9322 0.5245,-7.46776 -0.5611,-2.71054 -4.9805,-15.84753 -5.6064,-16.66514 -0.3894,-0.50868 -0.7884,-0.78312 -1.2924,-0.79581 z m -2.1978,8.7452 c 1.9885,0 2.9833,3.04579 1.5637,4.78782 -0.4484,0.55022 -0.9434,0.79633 -1.5994,0.79633 -1.3242,0 -2.2489,-1.17137 -2.2489,-2.84995 0,-1.67101 0.8878,-2.7342 2.2846,-2.7342 z"
           sodipodi:nodetypes="ssssccsssssssss" /><path
           style="fill:#e6e6e6;fill-opacity:1;fill-rule:nonzero;stroke-width:1"
           d="m 2055.7606,-677.30013 c -1.8353,-0.68026 -3.2527,-1.53532 -4.5612,-2.75172 -1.4154,-1.31574 -2.9637,-3.51856 -3.2362,-4.60417 -0.1419,-0.56548 -0.068,-0.7443 0.5818,-0.8418 30.068,-4.50906 65.6325,-0.48345 89.724,-22.39884 0.093,-0.0843 0.8327,-2.18955 -2.2981,-2.48256 -1.7387,-0.16271 -2.1746,-2.30537 -2.1167,-2.3511 0,-0.004 15.5732,-0.58273 16.0088,-0.14716 0.3247,0.32476 0.021,16.55058 -0.011,16.58231 -0.038,0.0386 -2.3134,-0.4601 -2.3422,-2.24352 -0.041,-2.54502 -2.3221,-2.25658 -2.3829,-2.18682 -1.7646,2.02583 -8.3029,14.80004 -12.6591,18.70634 -1.9519,1.75031 -4.6136,3.30387 -7.2396,4.22554 -10.9215,1.94026 -23.9885,0.77556 -35.3219,0.79249 -26.9143,0.0402 -33.3834,-0.0164 -34.1457,-0.29899 z"
           id="path506"
           sodipodi:nodetypes="cssssssssssssscc" /></g><path
         style="baseline-shift:baseline;display:inline;overflow:visible;opacity:0.3;vector-effect:none;fill:#000000;stroke-width:1.37561;enable-background:accumulate;stop-color:#000000"
         d="m 2642.2672,-752.13382 c -1.8332,0 -3.1439,1.43795 -3.5115,3.09798 -0.3676,1.66002 0.2014,3.63038 1.8337,4.56649 0.7658,0.43918 1.5426,0.62594 2.2883,0.4828 0.7456,-0.14314 1.4226,-0.61094 1.9994,-1.31333 1.0445,-1.27203 1.1798,-3.01178 0.6531,-4.38832 -0.5268,-1.37654 -1.7346,-2.44562 -3.263,-2.44562 z m 0,1.4714 c 1.0152,0 1.7432,0.67024 2.0849,1.56335 0.3418,0.89312 0.2786,1.9495 -0.4119,2.79047 -0.435,0.52964 -0.8459,0.78866 -1.2735,0.87077 -0.4278,0.0821 -0.9121,-0.007 -1.5021,-0.34486 -1.1168,-0.64048 -1.4028,-1.80845 -1.163,-2.89105 0.2397,-1.08261 1.0005,-1.98868 2.2656,-1.98868 z"
         id="path507" /><path
         style="baseline-shift:baseline;display:inline;overflow:visible;opacity:0.3;vector-effect:none;fill:#000000;stroke-width:1.41956;enable-background:accumulate;stop-color:#000000"
         d="m 2627.4038,-739.66214 c -1.0274,0 -1.9401,0.40104 -2.5831,1.17018 -0.6428,0.76914 -0.9861,1.87882 -0.9861,3.12049 0,2.50544 1.5189,4.43809 3.524,4.43809 0.9715,0 1.8292,-0.42336 2.5029,-1.25004 2.189,-2.68623 0.6235,-7.47872 -2.4577,-7.47872 z m 0,1.57254 c 2.0149,0 2.9985,3.01271 1.5491,4.79128 -0.4755,0.58354 -0.8845,0.79241 -1.5943,0.79241 -1.3889,0 -2.2426,-1.06884 -2.2426,-2.86556 0,-0.89973 0.227,-1.54618 0.6007,-1.99331 0.3738,-0.44712 0.9244,-0.72482 1.6871,-0.72482 z"
         id="path508" /><g
         id="g511"
         transform="translate(541.31295)"><path
           id="path509"
           style="opacity:0.2;fill:#000000;stroke-width:4.0427;filter:url(#filter28)"
           d="m 897.9034,-95.18039 c -3.23138,0.14486 -6.64525,2.32784 -8.05078,5.4375 -0.77314,1.71063 -4.19111,11.98021 -7.59571,22.82032 l -6.18945,19.70898 2.79492,9.33984 c 1.53718,5.13726 5.45431,12.55225 9.29102,23.87891 8.46081,24.97788 9.68043,34.34894 6.24219,57.7207 -8.57817,58.31073 -15.55579,90.11974 -22.07422,111.96875 21.73775,-2.69922 43.1917,-6.30875 63.9707,-11.61718 19.15727,-92.24927 -19.18478,-175.49102 -25.94336,-189.16797 -1.91682,0.5993 -3.99293,0.24864 -6.25195,-1.04688 -7.5298,-4.31826 -5.38681,-16.60313 2.31054,-18.2539 -8.49332,-10.77133 -8.5039,-30.78907 -8.5039,-30.78907 z"
           transform="matrix(0.26458333,0,0,0.26458333,1860.6587,-733.56641)" /><path
           id="path510"
           style="opacity:0.2;fill:#000000;stroke-width:4.18681;filter:url(#filter29)"
           d="m 860.29598,-50.15094 c 0,0 -1.32883,23.3158 -6.8418,33.20508 6.51549,1.37581 9.44959,11.80245 4.44531,17.94335003 C 856.20482,3.07707 854.33383,4.00921 851.85457,4.00921 c -0.0635,0 -0.12634,-9.2e-4 -0.18945,-0.002 -1.29321,14.92706 -9.35555,98.83568 -31.75196,158.22852 14.10683,-1.12495 28.22354,-2.36614 42.24805,-3.93164 6.40033,-24.0376 16.06339,-73.17224 22.22656,-114.23633 3.02397,-20.14816 3.18371,-22.42087 1.98243,-28.22461 -2.1205,-10.24455 -18.8237,-59.89615 -21.18946,-62.98633 -1.47182,-1.92256 -2.97999,-2.95984 -4.88476,-3.00781 z m -63.19336,255.01953 c -1.85343,2.24902 -3.76478,4.31772 -5.73633,6.18555 4.51066,-1.77853 9.67707,-3.82476 15.59961,-6.17579 -3.44601,-0.002 -6.7315,-0.005 -9.86328,-0.01 z"
           transform="matrix(0.26458333,0,0,0.26458333,1860.6587,-733.56641)" /><path
           id="path511"
           style="opacity:0.2;fill:#000000;stroke-width:7;filter:url(#filter27)"
           d="m 1093.0558,78.194621 c 0,0 -11.2059,28.518289 -29.9199,36.003909 -19.4454,7.77817 5.9403,89.85552 -342.98242,88.06054 4.94563,4.59742 10.3034,7.82933 17.24023,10.4004 2.88121,1.06803 27.33128,1.28279 129.05469,1.13085 42.83486,-0.064 92.2219,4.33716 133.5,-2.99609 9.9253,-3.48348 19.9841,-9.35536 27.3613,-15.9707 16.4643,-14.76397 41.1763,-63.04449 47.8457,-70.70117 0.2298,-0.26366 8.8509,-1.35335 9.0059,8.26562 0.1081,6.71416 8.6418,8.60994 8.8515,8.48047 v 0 c 0.1191,-0.11991 1.2686,-61.446409 0.041,-62.673829 z"
           sodipodi:nodetypes="csccscsssccc"
           transform="matrix(0.26458333,0,0,0.26458333,1860.6587,-733.56641)" /></g></g></g></svg>
