<?xml version="1.0" encoding="UTF-8" standalone="no"?>
<!-- Created with Inkscape (http://www.inkscape.org/) -->

<svg
   width="144.23189mm"
   height="146.29227mm"
   viewBox="0 0 144.23189 146.29227"
   version="1.1"
   id="svg1"
   xml:space="preserve"
   inkscape:version="1.4.3 (0d15f75, 2025-12-25)"
   sodipodi:docname="vela-logo-original.svg"
   xmlns:inkscape="http://www.inkscape.org/namespaces/inkscape"
   xmlns:sodipodi="http://sodipodi.sourceforge.net/DTD/sodipodi-0.dtd"
   xmlns:xlink="http://www.w3.org/1999/xlink"
   xmlns="http://www.w3.org/2000/svg"
   xmlns:svg="http://www.w3.org/2000/svg"><sodipodi:namedview
     id="namedview1"
     pagecolor="#505050"
     bordercolor="#ffffff"
     borderopacity="1"
     inkscape:showpageshadow="0"
     inkscape:pageopacity="0"
     inkscape:pagecheckerboard="1"
     inkscape:deskcolor="#505050"
     inkscape:document-units="mm"
     inkscape:zoom="0.12995318"
     inkscape:cx="2243.1156"
     inkscape:cy="1927.6173"
     inkscape:window-width="3440"
     inkscape:window-height="1369"
     inkscape:window-x="-8"
     inkscape:window-y="-8"
     inkscape:window-maximized="1"
     inkscape:current-layer="layer1"
     showguides="true"><inkscape:page
       x="0"
       y="0"
       width="144.23189"
       height="146.29227"
       id="page2"
       margin="0"
       bleed="0" /></sodipodi:namedview><defs
     id="defs1"><linearGradient
       id="linearGradient152"
       inkscape:collect="always"><stop
         style="stop-color:#FACC15;stop-opacity:1;"
         offset="0"
         id="stop149" /><stop
         style="stop-color:#F59E0B;stop-opacity:1;"
         offset="0.20795684"
         id="stop150" /><stop
         style="stop-color:#FF2E4D;stop-opacity:1;"
         offset="0.46613425"
         id="stop151" /><stop
         style="stop-color:#A31234;stop-opacity:1;"
         offset="0.75824177"
         id="stop152" /><stop
         style="stop-color:#7F1D3B;stop-opacity:1;"
         offset="1"
         id="stop153" /></linearGradient><linearGradient
       inkscape:collect="always"
       xlink:href="#linearGradient152"
       id="linearGradient521"
       gradientUnits="userSpaceOnUse"
       gradientTransform="matrix(1,0,0,1.1441098,2179.5353,-613.27907)"
       x1="344.50818"
       y1="67.128716"
       x2="242.40085"
       y2="103.01679" /><linearGradient
       inkscape:collect="always"
       xlink:href="#linearGradient152"
       id="linearGradient522"
       gradientUnits="userSpaceOnUse"
       gradientTransform="matrix(1,0,0,1.2271315,2179.5353,-616.86335)"
       x1="344.50818"
       y1="67.128716"
       x2="242.40085"
       y2="103.01679" /><linearGradient
       inkscape:collect="always"
       xlink:href="#linearGradient152"
       id="linearGradient523"
       gradientUnits="userSpaceOnUse"
       gradientTransform="translate(2180.8832,-616.10921)"
       x1="344.50818"
       y1="67.128716"
       x2="242.40085"
       y2="103.01679" /></defs><g
     inkscape:label="Layer 1"
     inkscape:groupmode="layer"
     id="layer1"
     transform="translate(-2402.8557,626.95866)"><g
       id="g534"><rect
         style="fill:#000000;fill-opacity:1;fill-rule:nonzero;stroke:none;stroke-width:21.2057"
         id="rect512"
         width="144.23181"
         height="146.29227"
         x="2402.8557"
         y="-626.95868"
         rx="25.449871"
         ry="27.74036" /><path
         id="path512"
         style="fill:url(#linearGradient521);fill-opacity:1;fill-rule:nonzero;stroke-width:1.06963"
         d="m 2473.6089,-594.8529 c -0.855,0.0383 -1.7583,0.61642 -2.1301,1.43919 -0.2046,0.4526 -1.1089,3.16976 -2.0098,6.03787 l -1.6376,5.21467 0.7395,2.47117 c 0.4066,1.35923 1.4431,3.32111 2.4582,6.31796 2.2387,6.60873 2.5613,9.08764 1.6516,15.27142 -2.2697,15.42797 -4.1154,23.84466 -5.84,29.62558 13.3188,-1.65382 26.2327,-4.59859 37.4654,-11.42876 -1.8142,-6.07367 -5.3753,-16.93778 -8.079,-24.45019 -5.4067,-15.02276 -8.2104,-21.84625 -9.3783,-22.82651 -1.17,-0.98206 -11.7873,-7.3619 -12.6628,-7.60884 -0.1851,-0.0522 -0.3799,-0.0724 -0.5772,-0.0636 z m 2.7187,8.09821 c 1.9777,0 3.0141,2.70866 1.665,4.35168 -0.7866,0.95798 -1.6909,1.13118 -2.7452,0.52658 -2.1376,-1.22591 -1.3289,-4.87826 1.0802,-4.87826 z" /><path
         style="baseline-shift:baseline;display:inline;overflow:visible;opacity:0.3;vector-effect:none;fill:#000000;stroke-width:1.37561;enable-background:accumulate;stop-color:#000000"
         d="m 2476.3341,-588.23665 c -1.8332,0 -3.1439,1.43795 -3.5116,3.09798 -0.3676,1.66002 0.2014,3.63038 1.8338,4.56649 0.7657,0.43918 1.5425,0.62594 2.2882,0.4828 0.7456,-0.14314 1.4227,-0.61094 1.9994,-1.31333 1.0445,-1.27203 1.1798,-3.01178 0.6531,-4.38832 -0.5268,-1.37654 -1.7346,-2.44562 -3.2629,-2.44562 z m 0,1.4714 c 1.0153,0 1.7431,0.67024 2.0849,1.56335 0.3418,0.89312 0.2785,1.9495 -0.4119,2.79047 -0.4349,0.52964 -0.8458,0.78866 -1.2735,0.87077 -0.4278,0.0821 -0.9121,-0.007 -1.5021,-0.34486 -1.1168,-0.64048 -1.4028,-1.80845 -1.1631,-2.89105 0.2397,-1.08261 1.0007,-1.98868 2.2657,-1.98868 z"
         id="path513" /><path
         id="path514"
         style="fill:url(#linearGradient522);fill-opacity:1;fill-rule:nonzero;stroke-width:1.10776"
         d="m 2463.6586,-582.93834 c -0.84,-0.0211 -1.9719,0.68378 -3.8361,2.23914 -2.9673,2.47589 -7.6352,6.57404 -8.4872,7.45122 -0.8402,0.86503 -0.9423,1.18524 -3.9465,12.34757 -4.6149,17.14618 -7.5985,28.18397 -9.4755,35.33324 8.645,-0.7447 17.5094,-1.24307 26.2383,-2.21743 1.6934,-6.35988 4.2505,-19.36002 5.8813,-30.22503 0.8001,-5.33086 0.8422,-5.9322 0.5245,-7.46776 -0.5611,-2.71054 -4.9805,-15.84753 -5.6064,-16.66514 -0.3894,-0.50868 -0.7884,-0.78312 -1.2924,-0.79581 z m -2.1978,8.7452 c 1.9885,0 2.9833,3.04579 1.5636,4.78782 -0.4483,0.55022 -0.9434,0.79633 -1.5994,0.79633 -1.3242,0 -2.2488,-1.17137 -2.2488,-2.84995 0,-1.67101 0.8877,-2.7342 2.2846,-2.7342 z"
         sodipodi:nodetypes="ssssccsssssssss" /><path
         style="baseline-shift:baseline;display:inline;overflow:visible;opacity:0.3;vector-effect:none;fill:#000000;stroke-width:1.41956;enable-background:accumulate;stop-color:#000000"
         d="m 2461.4707,-575.76497 c -1.0274,0 -1.9401,0.40104 -2.5831,1.17018 -0.6429,0.76914 -0.9861,1.87882 -0.9861,3.12049 0,2.50544 1.5189,4.43809 3.5241,4.43809 0.9714,0 1.8291,-0.42336 2.5028,-1.25004 2.189,-2.68623 0.6235,-7.47872 -2.4577,-7.47872 z m 0,1.57254 c 2.015,0 2.9986,3.01271 1.5491,4.79128 -0.4754,0.58354 -0.8846,0.79241 -1.5942,0.79241 -1.3889,0 -2.2427,-1.06884 -2.2427,-2.86556 0,-0.89973 0.2271,-1.54618 0.6007,-1.99331 0.3738,-0.44712 0.9245,-0.72482 1.6871,-0.72482 z"
         id="path515" /><path
         style="fill:url(#linearGradient523);fill-opacity:1;fill-rule:nonzero;stroke-width:1"
         d="m 2431.1404,-513.40296 c -1.8352,-0.68026 -3.2527,-1.53532 -4.5612,-2.75172 -1.4153,-1.31574 -2.9636,-3.51856 -3.2361,-4.60417 -0.142,-0.56548 -0.068,-0.7443 0.5817,-0.8418 30.068,-4.50906 65.6326,-0.48345 89.724,-22.39884 0.093,-0.0843 0.8327,-2.18955 -2.2981,-2.48256 -1.7387,-0.16271 -2.1746,-2.30537 -2.1166,-2.3511 0,-0.004 15.5731,-0.58273 16.0087,-0.14716 0.3247,0.32476 0.021,16.55058 -0.011,16.58231 -0.038,0.0386 -2.3134,-0.4601 -2.3422,-2.24352 -0.041,-2.54502 -2.3222,-2.25658 -2.383,-2.18682 -1.7645,2.02583 -8.3029,14.80004 -12.6591,18.70634 -1.9519,1.75031 -4.6135,3.30387 -7.2396,4.22554 -10.9215,1.94026 -23.9885,0.77556 -35.3218,0.79249 -26.9144,0.0402 -33.3835,-0.0164 -34.1458,-0.29899 z"
         id="path516"
         sodipodi:nodetypes="cssssssssssssscc" /></g></g></svg>
