<?xml version="1.0" encoding="UTF-8" standalone="no"?>
<!-- Created with Inkscape (http://www.inkscape.org/) -->

<svg
   width="144.2318mm"
   height="146.29227mm"
   viewBox="0 0 144.23179 146.29227"
   version="1.1"
   id="svg1"
   xml:space="preserve"
   inkscape:version="1.4.3 (0d15f75, 2025-12-25)"
   sodipodi:docname="vela-logo.svg"
   xmlns:inkscape="http://www.inkscape.org/namespaces/inkscape"
   xmlns:sodipodi="http://sodipodi.sourceforge.net/DTD/sodipodi-0.dtd"
   xmlns="http://www.w3.org/2000/svg"
   xmlns:svg="http://www.w3.org/2000/svg"><sodipodi:namedview
     id="namedview1"
     pagecolor="#505050"
     bordercolor="#ffffff"
     borderopacity="1"
     inkscape:showpageshadow="0"
     inkscape:pageopacity="0"
     inkscape:pagecheckerboard="1"
     inkscape:deskcolor="#505050"
     inkscape:document-units="mm"
     inkscape:zoom="0.12995318"
     inkscape:cx="942.64719"
     inkscape:cy="1496.6929"
     inkscape:window-width="3440"
     inkscape:window-height="1369"
     inkscape:window-x="-8"
     inkscape:window-y="-8"
     inkscape:window-maximized="1"
     inkscape:current-layer="layer1"
     showguides="true"><inkscape:page
       x="0"
       y="0"
       width="144.2318"
       height="146.29227"
       id="page2"
       margin="0"
       bleed="0" /></sodipodi:namedview><defs
     id="defs1" /><g
     inkscape:label="Layer 1"
     inkscape:groupmode="layer"
     id="layer1"
     transform="translate(-2031.0509,668.93358)"><g
       id="g199"><rect
         style="fill:#f9f9f9;fill-opacity:1;fill-rule:nonzero;stroke:none;stroke-width:21.2057"
         id="rect112"
         width="144.23181"
         height="146.29227"
         x="2031.0509"
         y="-668.93359"
         rx="25.449871"
         ry="27.74036" /><path
         id="path113"
         style="fill:#808080;fill-opacity:1;fill-rule:nonzero;stroke-width:1.06963"
         d="m 2101.8039,-637.35724 v 5.2e-4 c -0.855,0.0383 -1.7583,0.61642 -2.1301,1.43919 -0.2046,0.4526 -1.1089,3.16976 -2.0097,6.03787 l -1.6376,5.21467 0.7394,2.47117 c 0.4067,1.35923 1.4432,3.32111 2.4583,6.31796 2.2386,6.60873 2.5613,9.08764 1.6516,15.27142 -2.2697,15.42797 -4.1154,23.84466 -5.84,29.62558 13.3187,-1.65382 26.2327,-4.59859 37.4654,-11.42876 -1.8142,-6.07367 -5.3753,-16.93778 -8.0791,-24.45019 -5.4067,-15.02276 -8.2104,-21.84625 -9.3782,-22.82651 -1.17,-0.98206 -11.7874,-7.3619 -12.6628,-7.60884 -0.1851,-0.0522 -0.3799,-0.0729 -0.5772,-0.0641 z m 2.7156,8.9793 a 1.8659934,1.8659934 0 0 1 1.866,1.86603 1.8659934,1.8659934 0 0 1 -1.866,1.86604 1.8659934,1.8659934 0 0 1 -1.8661,-1.86604 1.8659934,1.8659934 0 0 1 1.8661,-1.86603 z m -13.069,2.93574 c -0.6995,-0.0211 -1.6421,0.68378 -3.1946,2.23914 -2.4713,2.47589 -6.3588,6.57404 -7.0683,7.45122 -0.6997,0.86503 -0.7848,1.18524 -3.2867,12.34757 -3.8432,17.14618 -6.3284,28.18397 -7.8915,35.33324 7.1996,-0.7447 14.5819,-1.24308 21.8514,-2.21744 1.4103,-6.35988 3.5398,-19.36001 4.8979,-30.22502 0.6663,-5.33086 0.7019,-5.9322 0.4372,-7.46776 -0.4673,-2.71054 -4.1482,-15.84753 -4.6695,-16.66514 -0.3243,-0.50868 -0.6561,-0.78312 -1.0759,-0.79581 z m -1.571,9.48004 a 1.8659934,1.8659934 0 0 1 1.8661,1.86603 1.8659934,1.8659934 0 0 1 -1.8661,1.86604 1.8659934,1.8659934 0 0 1 -1.866,-1.86604 1.8659934,1.8659934 0 0 1 1.866,-1.86603 z m 55.3905,25.44496 c -3.9477,0.0907 -7.8409,0.23622 -7.8409,0.23822 -0.054,0.0618 0.3848,2.18921 2.1167,2.35128 3.1308,0.29301 2.391,2.39824 2.298,2.48254 -24.0915,21.91539 -59.6557,17.88957 -89.7237,22.39863 -0.6498,0.0975 -0.7238,0.27633 -0.5819,0.84181 0.2725,1.08561 1.8206,3.28863 3.236,4.60437 1.3085,1.2164 2.7262,2.07151 4.5615,2.75177 0.7623,0.28259 7.2314,0.33889 34.1457,0.29869 11.3334,-0.0169 24.4004,1.14806 35.3219,-0.7922 2.626,-0.92167 5.2874,-2.47527 7.2393,-4.22558 4.3562,-3.9063 10.8946,-16.68052 12.6592,-18.70635 0.061,-0.0698 2.3418,-0.35808 2.3828,2.18694 0.029,1.76952 2.27,2.27374 2.342,2.24379 l 5e-4,-5.1e-4 c 0.032,-0.0317 0.3354,-16.25769 0.011,-16.58245 -0.2178,-0.21779 -4.2201,-0.18164 -8.1679,-0.091 z" /></g></g></svg>
