<?xml version="1.0" encoding="UTF-8"?>
<!-- Vela brand asset — vertical lockup, ink wordmark. Wordmark is outlined (no font dependency). -->
<svg width="640" height="660" viewBox="0 0 640 660" xmlns="http://www.w3.org/2000/svg" xmlns:svg="http://www.w3.org/2000/svg" xmlns:inkscape="http://www.inkscape.org/namespaces/inkscape" xmlns:sodipodi="http://sodipodi.sourceforge.net/DTD/sodipodi-0.dtd" xmlns:xlink="http://www.w3.org/1999/xlink">
  <svg x="137" y="6" width="366" height="358"
  
  
   viewBox="0 0 102.10736 99.943557"
   version="1.1"
   id="svg1"
   xml:space="preserve"
   inkscape:version="1.4.3 (0d15f75, 2025-12-25)"
   sodipodi:docname="Vela logo.svg"
   xmlns:inkscape="http://www.inkscape.org/namespaces/inkscape"
   xmlns:sodipodi="http://sodipodi.sourceforge.net/DTD/sodipodi-0.dtd"
   xmlns:xlink="http://www.w3.org/1999/xlink"
   xmlns="http://www.w3.org/2000/svg"
   xmlns:svg="http://www.w3.org/2000/svg"><sodipodi:namedview
     id="namedview1"
     pagecolor="#505050"
     bordercolor="#ffffff"
     borderopacity="1"
     inkscape:showpageshadow="0"
     inkscape:pageopacity="0"
     inkscape:pagecheckerboard="1"
     inkscape:deskcolor="#505050"
     inkscape:document-units="mm"
     inkscape:zoom="0.18378155"
     inkscape:cx="1531.7098"
     inkscape:cy="1684.0646"
     inkscape:window-width="3440"
     inkscape:window-height="1369"
     inkscape:window-x="-8"
     inkscape:window-y="-8"
     inkscape:window-maximized="1"
     inkscape:current-layer="layer1"
     showguides="true"><inkscape:page
       x="0"
       y="0"
       width="102.10736"
       height="99.943558"
       id="page2"
       margin="0"
       bleed="0" /></sodipodi:namedview><defs
     id="defs1"><linearGradient
       id="linearGradient152"
       inkscape:collect="always"><stop
         style="stop-color:#FACC15;stop-opacity:1;"
         offset="0"
         id="stop149" /><stop
         style="stop-color:#F59E0B;stop-opacity:1;"
         offset="0.20795684"
         id="stop150" /><stop
         style="stop-color:#FF2E4D;stop-opacity:1;"
         offset="0.46613425"
         id="stop151" /><stop
         style="stop-color:#A31234;stop-opacity:1;"
         offset="0.75824177"
         id="stop152" /><stop
         style="stop-color:#7F1D3B;stop-opacity:1;"
         offset="1"
         id="stop153" /></linearGradient><linearGradient
       inkscape:collect="always"
       xlink:href="#linearGradient152"
       id="linearGradient238"
       gradientUnits="userSpaceOnUse"
       x1="344.50818"
       y1="67.128716"
       x2="242.40085"
       y2="103.01679" /><linearGradient
       inkscape:collect="always"
       xlink:href="#linearGradient152"
       id="linearGradient239"
       gradientUnits="userSpaceOnUse"
       x1="344.50818"
       y1="67.128716"
       x2="242.40085"
       y2="103.01679" /><linearGradient
       inkscape:collect="always"
       xlink:href="#linearGradient152"
       id="linearGradient240"
       gradientUnits="userSpaceOnUse"
       x1="344.50818"
       y1="67.128716"
       x2="242.40085"
       y2="103.01679" /><linearGradient
       inkscape:collect="always"
       xlink:href="#linearGradient152"
       id="linearGradient241"
       gradientUnits="userSpaceOnUse"
       x1="344.50818"
       y1="67.128716"
       x2="242.40085"
       y2="103.01679" /></defs><g
     inkscape:label="Layer 1"
     inkscape:groupmode="layer"
     id="layer1"
     transform="translate(-489.98059,1145.8418)"><g
       id="g1"
       transform="translate(2.8793242,-169.88013)"><path
         style="fill:#000000"
         d="m 515.75354,-902.88686 c 0.0127,-0.30822 0.0754,-0.37092 0.15985,-0.15985 0.0764,0.191 0.067,0.4192 -0.0209,0.50712 -0.0879,0.0879 -0.15045,-0.0684 -0.13896,-0.34727 z"
         id="path165" /><path
         style="fill:#000000"
         d="m 559.91807,-876.25857 c 0,-0.13693 0.1177,-0.32171 0.26155,-0.41062 0.14999,-0.0927 0.19434,0.0135 0.10399,0.24897 -0.17589,0.45837 -0.36554,0.54224 -0.36554,0.16165 z"
         id="path188" /><g
         id="g191"
         style="fill:url(#linearGradient241);fill-opacity:1;fill-rule:nonzero"
         transform="translate(244.70042,-992.06526)"><path
           id="path189"
           style="fill:url(#linearGradient238);fill-opacity:1;fill-rule:nonzero"
           d="m 294.07342,16.105392 c -0.85497,0.0335 -1.75823,0.53867 -2.13011,1.257804 -0.20456,0.395594 -1.10889,2.77035 -2.00969,5.277197 l -1.63763,4.557862 0.73949,2.160075 c 0.40671,1.188025 1.44299,2.90294 2.45812,5.522315 2.23859,5.776307 2.56141,7.942972 1.65171,13.347851 -2.75447,16.365314 -4.8846,23.704 -6.93153,28.85368 -0.20974,0.52767 0.81216,0.303381 6.51967,-1.886839 9.28143,-3.561692 17.8571,-5.327176 27.25621,-5.611556 5.63866,-0.17061 5.95313,-0.252662 5.95313,-1.545642 0,-1.14953 -5.46599,-16.083107 -9.25112,-25.27546 -5.40673,-13.130521 -8.21038,-19.09445 -9.37824,-19.951237 -1.17001,-0.858357 -11.78742,-6.434921 -12.66279,-6.650757 -0.18508,-0.04563 -0.37992,-0.06302 -0.57722,-0.05529 z m 2.71869,7.078121 c 1.97781,0 3.01412,2.367326 1.66502,3.803385 -0.78663,0.837321 -1.69081,0.988885 -2.74506,0.460437 -2.13763,-1.071494 -1.32906,-4.263822 1.08004,-4.263822 z"
           sodipodi:nodetypes="ssccssssssssssssssss" /><path
           id="path190"
           style="fill:url(#linearGradient239);fill-opacity:1;fill-rule:nonzero"
           d="m 284.12312,27.645773 c -0.83997,-0.01724 -1.97179,0.557219 -3.83594,1.824694 -2.96744,2.01763 -7.63536,5.357161 -8.48734,6.071981 -0.84019,0.704922 -0.94231,0.966163 -3.94653,10.062435 -13.84537,41.921354 -13.00859,39.033034 -11.64993,40.201704 0.39176,0.33698 0.99752,0.61237 1.34617,0.61237 0.67433,0 2.82222,-0.65973 15.21199,-4.6762 7.69504,-2.49455 7.82142,-2.54739 8.96689,-3.73311 0.63939,-0.66186 1.54714,-2.04576 2.01848,-3.07735 1.54378,-3.378715 4.80575,-16.412819 6.7505,-26.972002 0.80009,-4.344162 0.84235,-4.83407 0.52451,-6.085417 -0.56105,-2.208841 -4.98043,-12.914287 -5.60637,-13.580566 -0.38943,-0.414528 -0.78845,-0.638198 -1.29243,-0.648539 z m -2.1978,7.126696 c 1.98848,0 2.98333,2.48197 1.56373,3.901571 -0.44838,0.448381 -0.94342,0.649056 -1.59939,0.649056 -1.32423,0 -2.24896,-0.954968 -2.24896,-2.322856 0,-1.361723 0.88785,-2.227771 2.28462,-2.227771 z" /><path
           style="fill:url(#linearGradient240);fill-opacity:1;fill-rule:nonzero"
           d="m 250.25728,102.70625 c -1.83537,-0.68026 -3.25271,-1.53532 -4.56124,-2.751723 -1.41539,-1.31574 -2.9637,-3.51856 -3.23617,-4.60417 -0.14193,-0.56548 -0.0574,-0.68776 0.58177,-0.8418 0.82985,-0.19999 6.47644,-2.01423 16.09364,-5.17087 3.4925,-1.14634 10.99344,-3.59345 16.66875,-5.43803 5.67531,-1.84458 14.24781,-4.66237 19.05,-6.26175 22.43078,-7.47061 21.8115,-4.694739 37.91162,-5.528192 0.12507,-0.0065 0.83267,-2.18955 -2.29813,-2.48255 -1.73866,-0.162714 -2.17456,-2.30538 -2.11667,-2.35111 0.005,-0.0036 15.57321,-0.582722 16.00876,-0.147154 0.32479,0.324756 0.0206,16.550579 -0.0109,16.582306 -0.0383,0.0386 -2.31345,-0.4601 -2.34216,-2.24352 -0.041,-2.54502 -2.32218,-2.25658 -2.38297,-2.18682 -1.76463,2.02583 -8.30288,14.80004 -12.65905,18.70634 -1.95188,1.75031 -4.61361,3.303873 -7.23968,4.225543 l -2.11666,0.74289 -33.20521,0.0496 c -26.91432,0.0402 -33.38339,-0.0164 -34.14571,-0.29899 z"
           id="path191"
           sodipodi:nodetypes="cssssssssssssssscsc" /></g><path
         style="baseline-shift:baseline;display:inline;overflow:visible;opacity:0.3;vector-effect:none;fill:#000000;stroke-width:1.28606;enable-background:accumulate;stop-color:#000000"
         d="m 541.49926,-970.17713 c -1.83313,0 -3.14394,1.25682 -3.51154,2.70776 -0.36761,1.45093 0.20134,3.17311 1.83364,3.9913 0.7658,0.38387 1.54264,0.5471 2.28828,0.42199 0.74563,-0.12511 1.42267,-0.53399 1.99942,-1.14791 1.04448,-1.1118 1.17981,-2.63241 0.65308,-3.83557 -0.52675,-1.20315 -1.73456,-2.13757 -3.26288,-2.13757 z m 0,1.28606 c 1.01527,0 1.74308,0.58581 2.08482,1.36644 0.34176,0.78062 0.2786,1.70394 -0.41194,2.43899 -0.43489,0.46293 -0.84573,0.68931 -1.27349,0.76108 -0.42776,0.0718 -0.91206,-0.006 -1.50208,-0.30142 -1.11683,-0.55981 -1.40272,-1.58066 -1.16298,-2.5269 0.23974,-0.94624 1.00056,-1.73819 2.26567,-1.73819 z"
         id="path192" /><path
         style="baseline-shift:baseline;display:inline;overflow:visible;opacity:0.3;vector-effect:none;fill:#000000;stroke-width:1.28147;enable-background:accumulate;stop-color:#000000"
         d="m 526.63574,-958.57384 c -1.02739,0 -1.94004,0.32681 -2.58295,0.95359 -0.64292,0.62678 -0.98613,1.53107 -0.98613,2.54291 0,2.04171 1.51891,3.61664 3.52403,3.61664 0.97153,0 1.82919,-0.345 2.50286,-1.01867 2.18904,-2.18903 0.62355,-6.09447 -2.45781,-6.09447 z m 0,1.28147 c 2.01508,0 2.99865,2.45509 1.54928,3.90446 -0.47553,0.47553 -0.88464,0.64574 -1.59433,0.64574 -1.38887,0 -2.24256,-0.87101 -2.24256,-2.33517 0,-0.73319 0.22693,-1.25999 0.60069,-1.62436 0.37374,-0.36436 0.92437,-0.59067 1.68692,-0.59067 z"
         id="path193" /><path
         id="path194"
         style="opacity:0.2;fill:#000000"
         d="m 589.05976,-924.93655 c 0,0 -0.82011,4.13446 -4.86916,7.10376 -27.5691,11.14394 -14.65174,25.40023 -95.4999,23.80133 0.5267,0.69727 1.12736,1.38307 1.70583,1.92082 1.30853,1.21641 2.7256,2.07151 4.56097,2.75177 0.76232,0.28259 7.2314,0.33889 34.14572,0.29869 l 33.2052,-0.0496 2.11667,-0.74259 c 2.62607,-0.92167 5.28799,-2.47527 7.23987,-4.22558 4.35617,-3.9063 10.89454,-16.68053 12.65917,-18.70636 0.0608,-0.0698 2.3418,-0.35807 2.3828,2.18695 0.0285,1.76949 2.26854,2.27423 2.34095,2.24431 l 5.1e-4,-5.2e-4 5.2e-4,-5.2e-4 c 0.0315,-0.0317 0.33548,-16.23288 0.0119,-16.58141 z"
         sodipodi:nodetypes="cccsssccsssccssc" /><path
         id="path195"
         style="opacity:0.2;fill:#000000"
         d="m 538.77394,-975.95979 c -0.85497,0.0335 -1.75822,0.53868 -2.1301,1.25781 -0.20456,0.39559 -1.1089,2.77035 -2.0097,5.27719 l -1.63762,4.55787 0.73949,2.16007 c 0.40671,1.18803 1.44312,2.90277 2.45825,5.52214 2.23859,5.77631 2.56127,7.94315 1.65157,13.34803 -2.75447,16.36531 -4.88494,23.70385 -6.93187,28.85353 -0.20974,0.52767 0.8125,0.30351 6.52001,-1.88671 3.9036,-1.49798 7.68227,-2.67815 11.44995,-3.56412 5.17764,-21.41109 -5.02348,-40.76946 -6.81715,-43.94202 -0.50716,0.13859 -1.05647,0.0577 -1.65417,-0.24184 -1.99226,-0.99863 -1.42526,-3.8397 0.61133,-4.22145 -2.24719,-2.49095 -2.24999,-7.1205 -2.24999,-7.1205 z" /><path
         id="path196"
         style="opacity:0.2;fill:#000000"
         d="m 528.82365,-964.41941 c 0,0 -0.35159,5.02702 -1.81023,7.15926 1.72389,0.29664 2.50021,2.54496 1.17616,3.86901 -0.44838,0.44838 -0.94342,0.64906 -1.59939,0.64906 -0.0168,0 -0.0334,-2.1e-4 -0.0501,-5.2e-4 -0.45999,4.32677 -4.15736,35.53425 -15.95406,44.64172 1.84478,-0.59275 4.10427,-1.32302 6.87607,-2.22157 7.69504,-2.49455 7.82142,-2.54739 8.96689,-3.73311 0.63939,-0.66186 1.54714,-2.04574 2.01848,-3.07733 1.54378,-3.37871 4.80574,-16.41281 6.75049,-26.97199 0.80009,-4.34417 0.84236,-4.83407 0.52452,-6.08542 -0.56105,-2.20884 -4.98044,-12.91429 -5.60638,-13.58057 -0.38942,-0.41452 -0.78845,-0.63819 -1.29242,-0.64854 z" /></g></g></svg>

  <path transform="translate(110,562) scale(0.758)" fill="#2A1D22" d="M125.84 0L198.12-174.20L151.32-174.20L99.84-39.52L97.24-39.52L44.98-174.20L-2.08-174.20L70.20 0M275.60 2.60C316.94 2.60 344.50-17.16 344.50-45.50L344.50-48.36L305.50-48.36L305.50-45.76C305.50-34.58 297.44-28.60 274.30-28.60C249.08-28.60 239.72-37.18 238.68-57.20L344.76-57.20C345.28-61.62 345.80-65 345.80-69.68C345.80-110.50 317.46-132.86 274.82-132.86C231.92-132.86 202.54-106.60 202.54-65C202.54-18.72 232.18 2.60 275.60 2.60M274.04-102.44C296.92-102.44 307.32-94.90 308.36-77.74L239.20-77.74C241.02-94.64 250.90-102.44 274.04-102.44M401.44 0L401.44-174.20L362.44-174.20L362.44 0M462.02 2.60C490.88 2.60 509.08-9.62 515.06-29.90L517.14-29.90L517.14 0L553.54 0L553.54-76.44C553.54-110.50 533-132.86 489.58-132.86C446.68-132.86 419.64-110.50 419.64-78.26L419.64-77.48L458.90-77.48L458.90-78.52C458.90-93.34 466.96-98.54 486.72-98.54C507.52-98.54 515.06-93.86 515.06-76.96L515.06-72.02L459.16-66.30C431.34-63.44 417.04-51.48 417.04-32.24C417.04-10.40 433.94 2.60 462.02 2.60M456.30-34.84C456.30-41.08 460.46-43.68 469.82-44.46L515.06-49.66C514.02-31.20 499.72-24.96 473.20-24.96C461.76-24.96 456.30-27.82 456.30-34.84"/>
</svg>
