<?xml version="1.0" encoding="UTF-8"?>
<!-- Vela brand asset — horizontal lockup, ink wordmark. Wordmark is outlined (no font dependency). -->
<svg width="950" height="320" viewBox="0 0 950 320" xmlns="http://www.w3.org/2000/svg">
  <defs>
    <linearGradient id="vm-front" gradientUnits="userSpaceOnUse" x1="312" y1="70" x2="244" y2="316">
      <stop offset="0" stop-color="#FACC15"/><stop offset="0.42" stop-color="#F59E0B"/><stop offset="1" stop-color="#FF2E4D"/>
    </linearGradient>
    <linearGradient id="vm-back" gradientUnits="userSpaceOnUse" x1="184" y1="116" x2="124" y2="316">
      <stop offset="0" stop-color="#FF2E4D"/><stop offset="0.55" stop-color="#A31234"/><stop offset="1" stop-color="#7F1D3B"/>
    </linearGradient>
    <linearGradient id="vm-hull" gradientUnits="userSpaceOnUse" x1="56" y1="390" x2="452" y2="360">
      <stop offset="0" stop-color="#7F1D3B"/><stop offset="0.3" stop-color="#A31234"/><stop offset="0.62" stop-color="#FF2E4D"/><stop offset="0.86" stop-color="#F59E0B"/><stop offset="1" stop-color="#FACC15"/>
    </linearGradient>
    <linearGradient id="vm-wake" gradientUnits="userSpaceOnUse" x1="230" y1="430" x2="436" y2="396">
      <stop offset="0" stop-color="#FF2E4D" stop-opacity="0.55"/><stop offset="0.7" stop-color="#F59E0B"/><stop offset="1" stop-color="#FACC15"/>
    </linearGradient>
  </defs>
  <g transform="translate(6,8) scale(0.62)">
      <path fill="url(#vm-back)" fill-rule="evenodd" d="M 168 122 Q 174 100 189 98 L 204 104 Q 214 109 216 124 C 226 178 231 246 232 296 Q 233 318 214 318 L 140 318 Q 123 318 126 299 C 132 242 147 178 168 122 Z M 192 136 a 9 9 0 1 0 0.001 0 Z"/>
      <path fill="url(#vm-front)" fill-rule="evenodd" d="M 280 86 Q 286 60 304 56 L 322 63 Q 334 69 337 88 C 356 164 367 248 369 295 Q 371 318 350 318 L 262 318 Q 243 318 246 297 C 252 236 264 154 280 86 Z M 309 102 a 12 12 0 1 0 0.001 0 Z"/>
      <path fill="url(#vm-hull)" d="M 58 340 C 150 362 300 360 382 338 L 394 334 Q 400 332 398 326 L 392 312 Q 390 304 398 309 L 446 332 Q 453 336 446 341 C 420 360 388 380 352 396 C 292 422 202 420 148 400 C 108 384 76 362 58 340 Z"/>
      <path fill="url(#vm-wake)" d="M 234 432 C 304 452 372 440 428 396 Q 436 389 426 390 C 368 424 306 432 242 416 Q 228 413 234 432 Z"/>
  </g>
  <path transform="translate(336,247)" fill="#2A1D22" d="M125.84 0L198.12-174.20L151.32-174.20L99.84-39.52L97.24-39.52L44.98-174.20L-2.08-174.20L70.20 0M275.60 2.60C316.94 2.60 344.50-17.16 344.50-45.50L344.50-48.36L305.50-48.36L305.50-45.76C305.50-34.58 297.44-28.60 274.30-28.60C249.08-28.60 239.72-37.18 238.68-57.20L344.76-57.20C345.28-61.62 345.80-65 345.80-69.68C345.80-110.50 317.46-132.86 274.82-132.86C231.92-132.86 202.54-106.60 202.54-65C202.54-18.72 232.18 2.60 275.60 2.60M274.04-102.44C296.92-102.44 307.32-94.90 308.36-77.74L239.20-77.74C241.02-94.64 250.90-102.44 274.04-102.44M401.44 0L401.44-174.20L362.44-174.20L362.44 0M462.02 2.60C490.88 2.60 509.08-9.62 515.06-29.90L517.14-29.90L517.14 0L553.54 0L553.54-76.44C553.54-110.50 533-132.86 489.58-132.86C446.68-132.86 419.64-110.50 419.64-78.26L419.64-77.48L458.90-77.48L458.90-78.52C458.90-93.34 466.96-98.54 486.72-98.54C507.52-98.54 515.06-93.86 515.06-76.96L515.06-72.02L459.16-66.30C431.34-63.44 417.04-51.48 417.04-32.24C417.04-10.40 433.94 2.60 462.02 2.60M456.30-34.84C456.30-41.08 460.46-43.68 469.82-44.46L515.06-49.66C514.02-31.20 499.72-24.96 473.20-24.96C461.76-24.96 456.30-27.82 456.30-34.84"/>
</svg>
