<?xml version="1.0" encoding="UTF-8"?>
<!-- Vela brand asset — mark, mono ink. Wordmark is outlined (no font dependency). -->
<svg width="512" height="512" viewBox="0 0 512 512" xmlns="http://www.w3.org/2000/svg" xmlns:svg="http://www.w3.org/2000/svg" xmlns:inkscape="http://www.inkscape.org/namespaces/inkscape" xmlns:sodipodi="http://sodipodi.sourceforge.net/DTD/sodipodi-0.dtd" xmlns:xlink="http://www.w3.org/1999/xlink">
  <svg x="10" y="15" width="492" height="482"
  
  
   viewBox="0 0 102.10737 99.94355"
   version="1.1"
   id="svg1"
   xml:space="preserve"
   inkscape:version="1.4.3 (0d15f75, 2025-12-25)"
   sodipodi:docname="Vela logo.svg"
   xmlns:inkscape="http://www.inkscape.org/namespaces/inkscape"
   xmlns:sodipodi="http://sodipodi.sourceforge.net/DTD/sodipodi-0.dtd"
   xmlns="http://www.w3.org/2000/svg"
   xmlns:svg="http://www.w3.org/2000/svg"><sodipodi:namedview
     id="namedview1"
     pagecolor="#505050"
     bordercolor="#ffffff"
     borderopacity="1"
     inkscape:showpageshadow="0"
     inkscape:pageopacity="0"
     inkscape:pagecheckerboard="1"
     inkscape:deskcolor="#505050"
     inkscape:document-units="mm"
     inkscape:zoom="0.18378155"
     inkscape:cx="1531.7098"
     inkscape:cy="1684.0646"
     inkscape:window-width="3440"
     inkscape:window-height="1369"
     inkscape:window-x="-8"
     inkscape:window-y="-8"
     inkscape:window-maximized="1"
     inkscape:current-layer="layer1"
     showguides="true"><inkscape:page
       x="5.1157809e-21"
       y="0"
       width="102.10737"
       height="99.94355"
       id="page2"
       margin="0"
       bleed="0" /></sodipodi:namedview><defs
     id="defs1" /><g
     inkscape:label="Layer 1"
     inkscape:groupmode="layer"
     id="layer1"
     transform="translate(-805.3691,1145.8418)"><g
       id="g26"
       transform="translate(157.0257)"><path
         style="fill:#000000"
         d="m 676.9957,-1072.767 c 0.0127,-0.3082 0.0754,-0.3709 0.15985,-0.1598 0.0764,0.191 0.067,0.4192 -0.0209,0.5071 -0.0879,0.088 -0.15045,-0.068 -0.13896,-0.3473 z"
         id="path1" /><path
         style="fill:#000000"
         d="m 721.16023,-1046.1387 c 0,-0.1369 0.1177,-0.3217 0.26155,-0.4106 0.14999,-0.093 0.19434,0.013 0.10399,0.2489 -0.17589,0.4584 -0.36554,0.5423 -0.36554,0.1617 z"
         id="path2" /><g
         id="g5"
         style="fill:#2A1D22;fill-opacity:1;fill-rule:nonzero"
         transform="translate(405.94258,-1161.9454)"><path
           id="path3"
           style="fill:#2A1D22;fill-opacity:1;fill-rule:nonzero"
           d="m 294.07342,16.105392 c -0.85497,0.0335 -1.75823,0.53867 -2.13011,1.257804 -0.20456,0.395594 -1.10889,2.77035 -2.00969,5.277197 l -1.63763,4.557862 0.73949,2.160075 c 0.40671,1.188025 1.44299,2.90294 2.45812,5.522315 2.23859,5.776307 2.56141,7.942972 1.65171,13.347851 -2.75447,16.365314 -4.8846,23.704 -6.93153,28.85368 -0.20974,0.52767 0.81216,0.303381 6.51967,-1.886839 9.28143,-3.561692 17.8571,-5.327176 27.25621,-5.611556 5.63866,-0.17061 5.95313,-0.252662 5.95313,-1.545642 0,-1.14953 -5.46599,-16.083107 -9.25112,-25.27546 -5.40673,-13.130521 -8.21038,-19.09445 -9.37824,-19.951237 -1.17001,-0.858357 -11.78742,-6.434921 -12.66279,-6.650757 -0.18508,-0.04563 -0.37992,-0.06302 -0.57722,-0.05529 z m 2.71869,7.078121 c 1.97781,0 3.01412,2.367326 1.66502,3.803385 -0.78663,0.837321 -1.69081,0.988885 -2.74506,0.460437 -2.13763,-1.071494 -1.32906,-4.263822 1.08004,-4.263822 z"
           sodipodi:nodetypes="ssccssssssssssssssss" /><path
           id="path4"
           style="fill:#2A1D22;fill-opacity:1;fill-rule:nonzero"
           d="m 284.12312,27.645773 c -0.83997,-0.01724 -1.97179,0.557219 -3.83594,1.824694 -2.96744,2.01763 -7.63536,5.357161 -8.48734,6.071981 -0.84019,0.704922 -0.94231,0.966163 -3.94653,10.062435 -13.84537,41.921354 -13.00859,39.033034 -11.64993,40.201704 0.39176,0.33698 0.99752,0.61237 1.34617,0.61237 0.67433,0 2.82222,-0.65973 15.21199,-4.6762 7.69504,-2.49455 7.82142,-2.54739 8.96689,-3.73311 0.63939,-0.66186 1.54714,-2.04576 2.01848,-3.07735 1.54378,-3.378715 4.80575,-16.412819 6.7505,-26.972002 0.80009,-4.344162 0.84235,-4.83407 0.52451,-6.085417 -0.56105,-2.208841 -4.98043,-12.914287 -5.60637,-13.580566 -0.38943,-0.414528 -0.78845,-0.638198 -1.29243,-0.648539 z m -2.1978,7.126696 c 1.98848,0 2.98333,2.48197 1.56373,3.901571 -0.44838,0.448381 -0.94342,0.649056 -1.59939,0.649056 -1.32423,0 -2.24896,-0.954968 -2.24896,-2.322856 0,-1.361723 0.88785,-2.227771 2.28462,-2.227771 z" /><path
           style="fill:#2A1D22;fill-opacity:1;fill-rule:nonzero"
           d="m 250.25728,102.70625 c -1.83537,-0.68026 -3.25271,-1.53532 -4.56124,-2.751723 -1.41539,-1.31574 -2.9637,-3.51856 -3.23617,-4.60417 -0.14193,-0.56548 -0.0574,-0.68776 0.58177,-0.8418 0.82985,-0.19999 6.47644,-2.01423 16.09364,-5.17087 3.4925,-1.14634 10.99344,-3.59345 16.66875,-5.43803 5.67531,-1.84458 14.24781,-4.66237 19.05,-6.26175 22.43078,-7.47061 21.8115,-4.694739 37.91162,-5.528192 0.12507,-0.0065 0.83267,-2.18955 -2.29813,-2.48255 -1.73866,-0.162714 -2.17456,-2.30538 -2.11667,-2.35111 0.005,-0.0036 15.57321,-0.582722 16.00876,-0.147154 0.32479,0.324756 0.0206,16.550579 -0.0109,16.582306 -0.0383,0.0386 -2.31345,-0.4601 -2.34216,-2.24352 -0.041,-2.54502 -2.32218,-2.25658 -2.38297,-2.18682 -1.76463,2.02583 -8.30288,14.80004 -12.65905,18.70634 -1.95188,1.75031 -4.61361,3.303873 -7.23968,4.225543 l -2.11666,0.74289 -33.20521,0.0496 c -26.91432,0.0402 -33.38339,-0.0164 -34.14571,-0.29899 z"
           id="path5"
           sodipodi:nodetypes="cssssssssssssssscsc" /></g></g></g></svg>

</svg>
