<?xml version="1.0" encoding="UTF-8" standalone="no"?>
<!-- Created with Inkscape (http://www.inkscape.org/) -->

<svg
   width="1017.411mm"
   height="528.97205mm"
   viewBox="0 0 1017.411 528.97204"
   version="1.1"
   id="svg1"
   xml:space="preserve"
   inkscape:version="1.4.3 (0d15f75, 2025-12-25)"
   sodipodi:docname="vela-logo-original.svg"
   xmlns:inkscape="http://www.inkscape.org/namespaces/inkscape"
   xmlns:sodipodi="http://sodipodi.sourceforge.net/DTD/sodipodi-0.dtd"
   xmlns:xlink="http://www.w3.org/1999/xlink"
   xmlns="http://www.w3.org/2000/svg"
   xmlns:svg="http://www.w3.org/2000/svg"><sodipodi:namedview
     id="namedview1"
     pagecolor="#505050"
     bordercolor="#ffffff"
     borderopacity="1"
     inkscape:showpageshadow="0"
     inkscape:pageopacity="0"
     inkscape:pagecheckerboard="1"
     inkscape:deskcolor="#505050"
     inkscape:document-units="mm"
     inkscape:zoom="0.12995318"
     inkscape:cx="942.64719"
     inkscape:cy="1496.6929"
     inkscape:window-width="3440"
     inkscape:window-height="1369"
     inkscape:window-x="-8"
     inkscape:window-y="-8"
     inkscape:window-maximized="1"
     inkscape:current-layer="layer1"
     showguides="true" /><defs
     id="defs1"><linearGradient
       id="linearGradient152"
       inkscape:collect="always"><stop
         style="stop-color:#FACC15;stop-opacity:1;"
         offset="0"
         id="stop149" /><stop
         style="stop-color:#F59E0B;stop-opacity:1;"
         offset="0.20795684"
         id="stop150" /><stop
         style="stop-color:#FF2E4D;stop-opacity:1;"
         offset="0.46613425"
         id="stop151" /><stop
         style="stop-color:#A31234;stop-opacity:1;"
         offset="0.75824177"
         id="stop152" /><stop
         style="stop-color:#7F1D3B;stop-opacity:1;"
         offset="1"
         id="stop153" /></linearGradient><filter
       style="color-interpolation-filters:sRGB"
       inkscape:label="Blur"
       id="filter28"
       x="-0.06928479"
       y="-0.019133034"
       width="1.1385696"
       height="1.0382661"><feGaussianBlur
         stdDeviation="2 2"
         result="blur"
         id="feGaussianBlur28" /></filter><filter
       style="color-interpolation-filters:sRGB"
       inkscape:label="Blur"
       id="filter29"
       x="-0.05015555"
       y="-0.018376362"
       width="1.1003111"
       height="1.0367527"><feGaussianBlur
         stdDeviation="2 2"
         result="blur"
         id="feGaussianBlur29" /></filter><filter
       style="color-interpolation-filters:sRGB"
       inkscape:label="Blur"
       id="filter27"
       x="-0.012852712"
       y="-0.03507554"
       width="1.0257054"
       height="1.0701511"><feGaussianBlur
         stdDeviation="2 2"
         result="blur"
         id="feGaussianBlur27" /></filter><linearGradient
       inkscape:collect="always"
       xlink:href="#linearGradient152"
       id="linearGradient422"
       gradientUnits="userSpaceOnUse"
       gradientTransform="matrix(3.7795276,0,0,4.3241946,-213.55568,-164.82457)"
       x1="344.50818"
       y1="67.128716"
       x2="242.40085"
       y2="103.01679" /><linearGradient
       inkscape:collect="always"
       xlink:href="#linearGradient152"
       id="linearGradient423"
       gradientUnits="userSpaceOnUse"
       gradientTransform="matrix(3.7795276,0,0,4.6379774,-213.55568,-178.37144)"
       x1="344.50818"
       y1="67.128716"
       x2="242.40085"
       y2="103.01679" /><linearGradient
       inkscape:collect="always"
       xlink:href="#linearGradient152"
       id="linearGradient424"
       gradientUnits="userSpaceOnUse"
       gradientTransform="matrix(3.7795276,0,0,3.7795276,-208.46117,-175.52115)"
       x1="344.50818"
       y1="67.128716"
       x2="242.40085"
       y2="103.01679" /><linearGradient
       inkscape:collect="always"
       xlink:href="#linearGradient152"
       id="linearGradient432"
       gradientUnits="userSpaceOnUse"
       gradientTransform="matrix(3.7795276,0,0,4.3241946,-213.55568,-164.82457)"
       x1="344.50818"
       y1="67.128716"
       x2="242.40085"
       y2="103.01679" /><linearGradient
       inkscape:collect="always"
       xlink:href="#linearGradient152"
       id="linearGradient433"
       gradientUnits="userSpaceOnUse"
       gradientTransform="matrix(3.7795276,0,0,4.6379774,-213.55568,-178.37144)"
       x1="344.50818"
       y1="67.128716"
       x2="242.40085"
       y2="103.01679" /><linearGradient
       inkscape:collect="always"
       xlink:href="#linearGradient152"
       id="linearGradient434"
       gradientUnits="userSpaceOnUse"
       gradientTransform="matrix(3.7795276,0,0,3.7795276,-208.46117,-175.52115)"
       x1="344.50818"
       y1="67.128716"
       x2="242.40085"
       y2="103.01679" /><linearGradient
       inkscape:collect="always"
       xlink:href="#linearGradient152"
       id="linearGradient442"
       gradientUnits="userSpaceOnUse"
       gradientTransform="matrix(3.7795276,0,0,4.3241946,-213.55568,-164.82457)"
       x1="344.50818"
       y1="67.128716"
       x2="242.40085"
       y2="103.01679" /><linearGradient
       inkscape:collect="always"
       xlink:href="#linearGradient152"
       id="linearGradient443"
       gradientUnits="userSpaceOnUse"
       gradientTransform="matrix(3.7795276,0,0,4.6379774,-213.55568,-178.37144)"
       x1="344.50818"
       y1="67.128716"
       x2="242.40085"
       y2="103.01679" /><linearGradient
       inkscape:collect="always"
       xlink:href="#linearGradient152"
       id="linearGradient444"
       gradientUnits="userSpaceOnUse"
       gradientTransform="matrix(3.7795276,0,0,3.7795276,-208.46117,-175.52115)"
       x1="344.50818"
       y1="67.128716"
       x2="242.40085"
       y2="103.01679" /><linearGradient
       inkscape:collect="always"
       xlink:href="#linearGradient152"
       id="linearGradient471"
       gradientUnits="userSpaceOnUse"
       gradientTransform="matrix(1,0,0,1.1441098,1638.2223,-613.27907)"
       x1="344.50818"
       y1="67.128716"
       x2="242.40085"
       y2="103.01679" /><linearGradient
       inkscape:collect="always"
       xlink:href="#linearGradient152"
       id="linearGradient472"
       gradientUnits="userSpaceOnUse"
       gradientTransform="matrix(1,0,0,1.2271315,1638.2223,-616.86335)"
       x1="344.50818"
       y1="67.128716"
       x2="242.40085"
       y2="103.01679" /><linearGradient
       inkscape:collect="always"
       xlink:href="#linearGradient152"
       id="linearGradient473"
       gradientUnits="userSpaceOnUse"
       gradientTransform="translate(1639.5702,-616.10921)"
       x1="344.50818"
       y1="67.128716"
       x2="242.40085"
       y2="103.01679" /><linearGradient
       inkscape:collect="always"
       xlink:href="#linearGradient152"
       id="linearGradient521"
       gradientUnits="userSpaceOnUse"
       gradientTransform="matrix(1,0,0,1.1441098,2179.5353,-613.27907)"
       x1="344.50818"
       y1="67.128716"
       x2="242.40085"
       y2="103.01679" /><linearGradient
       inkscape:collect="always"
       xlink:href="#linearGradient152"
       id="linearGradient522"
       gradientUnits="userSpaceOnUse"
       gradientTransform="matrix(1,0,0,1.2271315,2179.5353,-616.86335)"
       x1="344.50818"
       y1="67.128716"
       x2="242.40085"
       y2="103.01679" /><linearGradient
       inkscape:collect="always"
       xlink:href="#linearGradient152"
       id="linearGradient523"
       gradientUnits="userSpaceOnUse"
       gradientTransform="translate(2180.8832,-616.10921)"
       x1="344.50818"
       y1="67.128716"
       x2="242.40085"
       y2="103.01679" /><linearGradient
       inkscape:collect="always"
       xlink:href="#linearGradient152"
       id="linearGradient524"
       gradientUnits="userSpaceOnUse"
       gradientTransform="matrix(3.7795276,0,0,4.3241946,-213.55568,-164.82457)"
       x1="344.50818"
       y1="67.128716"
       x2="242.40085"
       y2="103.01679" /><linearGradient
       inkscape:collect="always"
       xlink:href="#linearGradient152"
       id="linearGradient525"
       gradientUnits="userSpaceOnUse"
       gradientTransform="matrix(3.7795276,0,0,4.6379774,-213.55568,-178.37144)"
       x1="344.50818"
       y1="67.128716"
       x2="242.40085"
       y2="103.01679" /><linearGradient
       inkscape:collect="always"
       xlink:href="#linearGradient152"
       id="linearGradient526"
       gradientUnits="userSpaceOnUse"
       gradientTransform="matrix(3.7795276,0,0,3.7795276,-208.46117,-175.52115)"
       x1="344.50818"
       y1="67.128716"
       x2="242.40085"
       y2="103.01679" /><linearGradient
       inkscape:collect="always"
       xlink:href="#linearGradient152"
       id="linearGradient527"
       gradientUnits="userSpaceOnUse"
       gradientTransform="matrix(3.7795276,0,0,4.3241946,-213.55568,-164.82457)"
       x1="344.50818"
       y1="67.128716"
       x2="242.40085"
       y2="103.01679" /><linearGradient
       inkscape:collect="always"
       xlink:href="#linearGradient152"
       id="linearGradient528"
       gradientUnits="userSpaceOnUse"
       gradientTransform="matrix(3.7795276,0,0,4.6379774,-213.55568,-178.37144)"
       x1="344.50818"
       y1="67.128716"
       x2="242.40085"
       y2="103.01679" /><linearGradient
       inkscape:collect="always"
       xlink:href="#linearGradient152"
       id="linearGradient529"
       gradientUnits="userSpaceOnUse"
       gradientTransform="matrix(3.7795276,0,0,3.7795276,-208.46117,-175.52115)"
       x1="344.50818"
       y1="67.128716"
       x2="242.40085"
       y2="103.01679" /><linearGradient
       inkscape:collect="always"
       xlink:href="#linearGradient152"
       id="linearGradient530"
       gradientUnits="userSpaceOnUse"
       gradientTransform="matrix(3.7795276,0,0,4.3241946,-213.55568,-164.82457)"
       x1="344.50818"
       y1="67.128716"
       x2="242.40085"
       y2="103.01679" /><linearGradient
       inkscape:collect="always"
       xlink:href="#linearGradient152"
       id="linearGradient531"
       gradientUnits="userSpaceOnUse"
       gradientTransform="matrix(3.7795276,0,0,4.6379774,-213.55568,-178.37144)"
       x1="344.50818"
       y1="67.128716"
       x2="242.40085"
       y2="103.01679" /><linearGradient
       inkscape:collect="always"
       xlink:href="#linearGradient152"
       id="linearGradient532"
       gradientUnits="userSpaceOnUse"
       gradientTransform="matrix(3.7795276,0,0,3.7795276,-208.46117,-175.52115)"
       x1="344.50818"
       y1="67.128716"
       x2="242.40085"
       y2="103.01679" /></defs><g
     inkscape:label="Layer 1"
     inkscape:groupmode="layer"
     id="layer1"
     transform="translate(-1695.6096,1009.6384)"><g
       id="g540"
       inkscape:export-filename="wordmark-horizontal.svg"
       inkscape:export-xdpi="96"
       inkscape:export-ydpi="96"><text
         xml:space="preserve"
         style="font-size:140.326px;font-family:Serif;-inkscape-font-specification:Serif;letter-spacing:0px;writing-mode:lr-tb;direction:ltr;fill:#f9f9f9;fill-opacity:1;fill-rule:nonzero;stroke:none;stroke-width:2.94684"
         x="1856.7144"
         y="-884.26617"
         id="text326"><tspan
           sodipodi:role="line"
           id="tspan326"
           style="font-style:normal;font-variant:normal;font-weight:bold;font-stretch:normal;font-size:140.326px;font-family:'Space Grotesk';-inkscape-font-specification:'Space Grotesk Bold';fill:#f9f9f9;fill-opacity:1;stroke:none;stroke-width:2.94684"
           x="1856.7144"
           y="-884.26617">Vela</tspan></text><g
         id="g424"
         transform="translate(786.32073,-489.65552)"><rect
           style="fill:#f9f9f9;fill-opacity:1;fill-rule:nonzero;stroke:none;stroke-width:21.2057"
           id="rect326"
           width="144.23181"
           height="146.29227"
           x="910.7356"
           y="-519.98285"
           rx="25.449871"
           ry="27.74036" /><g
           id="g422"
           transform="matrix(0.26458333,0,0,0.26458333,743.91839,-462.69341)"><path
             id="path415"
             style="fill:url(#linearGradient422);fill-opacity:1;fill-rule:nonzero;stroke-width:4.0427"
             d="m 897.9034,-95.18234 c -3.23139,0.14486 -6.64525,2.32977 -8.05078,5.43945 -0.77314,1.71063 -4.19111,11.98022 -7.59571,22.82032 l -6.18945,19.70898 2.79492,9.33984 c 1.53718,5.13724 5.4543,12.55222 9.29102,23.87891 8.46081,24.97787 9.68043,34.347 6.24219,57.71875 -8.57813,58.31046 -15.55418,90.12156 -22.07227,111.9707 50.33833,-6.25067 99.14729,-17.38051 141.60158,-43.19531 -6.857,-22.95561 -20.3163,-64.01679 -30.53517,-92.41016 -20.43489,-56.77893 -31.03136,-82.56851 -35.44532,-86.27343 -4.42208,-3.71171 -44.55089,-27.8245 -47.85937,-28.75782 -0.69952,-0.19731 -1.43594,-0.27366 -2.18164,-0.24023 z m 10.27539,30.60742 c 7.47519,0 11.39193,10.23746 6.29297,16.44727 -2.97309,3.62074 -6.39043,4.27535 -10.375,1.99023 -8.07923,-4.63335 -5.02323,-18.4375 4.08203,-18.4375 z" /><path
             style="baseline-shift:baseline;display:inline;overflow:visible;opacity:0.3;vector-effect:none;fill:#000000;stroke-width:5.19915;enable-background:accumulate;stop-color:#000000"
             d="m 908.20375,-70.17602 c -6.92836,0 -11.88261,5.43474 -13.27196,11.70887 -1.38939,6.27412 0.76097,13.72115 6.93029,17.25918 2.89436,1.65989 5.83045,2.36575 8.64862,1.82476 2.81813,-0.54099 5.37702,-2.30908 7.55686,-4.96378 3.94764,-4.80766 4.45913,-11.38308 2.46834,-16.58576 -1.99087,-5.20268 -6.55582,-9.24327 -12.33215,-9.24327 z m 0,5.56117 c 3.83724,0 6.58802,2.53318 7.87964,5.90875 1.29169,3.37557 1.05297,7.36817 -1.55694,10.54666 -1.64368,2.00178 -3.19646,2.98074 -4.81319,3.29109 -1.61673,0.31039 -3.44716,-0.0246 -5.67716,-1.3034 -4.22109,-2.42074 -5.30161,-6.83509 -4.39551,-10.92683 0.9061,-4.09174 3.78164,-7.51627 8.56316,-7.51627 z"
             id="path416" /><path
             id="path417"
             style="opacity:0.2;fill:#000000;stroke-width:4.0427;filter:url(#filter28)"
             d="m 897.9034,-95.18039 c -3.23138,0.14486 -6.64525,2.32784 -8.05078,5.4375 -0.77314,1.71063 -4.19111,11.98021 -7.59571,22.82032 l -6.18945,19.70898 2.79492,9.33984 c 1.53718,5.13726 5.45431,12.55225 9.29102,23.87891 8.46081,24.97788 9.68043,34.34894 6.24219,57.7207 -8.57817,58.31073 -15.55579,90.11974 -22.07422,111.96875 21.73775,-2.69922 43.1917,-6.30875 63.9707,-11.61718 19.15727,-92.24927 -19.18478,-175.49102 -25.94336,-189.16797 -1.91682,0.5993 -3.99293,0.24864 -6.25195,-1.04688 -7.5298,-4.31826 -5.38681,-16.60313 2.31054,-18.2539 -8.49332,-10.77133 -8.5039,-30.78907 -8.5039,-30.78907 z" /><path
             id="path418"
             style="fill:url(#linearGradient423);fill-opacity:1;fill-rule:nonzero;stroke-width:4.18681"
             d="m 860.29598,-50.15094 c -3.17469,-0.0799 -7.45244,2.58437 -14.49805,8.46289 -11.21552,9.35771 -28.85805,24.84678 -32.07813,28.16211 -3.17552,3.26941 -3.56148,4.47965 -14.91601,46.66797 -17.44147,64.80446 -28.71868,106.52211 -35.8125,133.54296 32.67368,-2.81462 66.17709,-4.69822 99.16797,-8.38085 6.40033,-24.03731 16.06526,-73.17173 22.22851,-114.23633 3.02396,-20.14813 3.18371,-22.42089 1.98243,-28.22461 -2.12051,-10.24456 -18.8237,-59.89615 -21.18946,-62.98633 -1.47186,-1.92257 -2.97995,-2.95984 -4.88476,-3.00781 z m -8.30664,33.05273 c 7.51551,0 11.27557,11.51164 5.91015,18.09570003 C 856.20482,3.07708 854.33383,4.00726 851.85457,4.00726 c -5.00496,0 -8.5,-4.42723997 -8.5,-10.77148 0,-6.31564 3.35564,-10.33399 8.63477,-10.33399 z"
             sodipodi:nodetypes="ssssccsssssssss" /><path
             style="baseline-shift:baseline;display:inline;overflow:visible;opacity:0.3;vector-effect:none;fill:#000000;stroke-width:5.36527;enable-background:accumulate;stop-color:#000000"
             d="m 852.02667,-23.03898 c -3.88305,0 -7.33244,1.51574 -9.76233,4.42273 -2.42994,2.907 -3.72711,7.10106 -3.72711,11.79396 0,9.4694 5.74076,16.77389 13.31917,16.77389 3.67192,0 6.91347,-1.60009 9.45963,-4.72456 8.27354,-10.15268 2.35672,-28.26602 -9.28936,-28.26602 z m 0,5.94344 c 7.61605,0 11.33348,11.38665 5.85554,18.10879 -1.79727,2.2055 -3.34352,2.99493 -6.02581,2.99493 -5.24927,0 -8.47582,-4.03971997 -8.47582,-10.83047 0,-3.40052 0.85769,-5.8438 2.27033,-7.53374 1.41256,-1.6899 3.49368,-2.73951 6.37576,-2.73951 z"
             id="path419" /><path
             id="path420"
             style="opacity:0.2;fill:#000000;stroke-width:4.18681;filter:url(#filter29)"
             d="m 860.29598,-50.15094 c 0,0 -1.32883,23.3158 -6.8418,33.20508 6.51549,1.37581 9.44959,11.80245 4.44531,17.94335003 C 856.20482,3.07707 854.33383,4.00921 851.85457,4.00921 c -0.0635,0 -0.12634,-9.2e-4 -0.18945,-0.002 -1.29321,14.92706 -9.35555,98.83568 -31.75196,158.22852 14.10683,-1.12495 28.22354,-2.36614 42.24805,-3.93164 6.40033,-24.0376 16.06339,-73.17224 22.22656,-114.23633 3.02397,-20.14816 3.18371,-22.42087 1.98243,-28.22461 -2.1205,-10.24455 -18.8237,-59.89615 -21.18946,-62.98633 -1.47182,-1.92256 -2.97999,-2.95984 -4.88476,-3.00781 z m -63.19336,255.01953 c -1.85343,2.24902 -3.76478,4.31772 -5.73633,6.18555 4.51066,-1.77853 9.67707,-3.82476 15.59961,-6.17579 -3.44601,-0.002 -6.7315,-0.005 -9.86328,-0.01 z" /><path
             style="fill:url(#linearGradient424);fill-opacity:1;fill-rule:nonzero;stroke-width:3.77953"
             d="m 737.39313,212.65996 c -6.93683,-2.57106 -12.29371,-5.80279 -17.23934,-10.40021 -5.3495,-4.97288 -11.20138,-13.2985 -12.23119,-17.40159 -0.53643,-2.13725 -0.25863,-2.81309 2.19882,-3.18161 113.64277,-17.04212 248.06007,-1.82719 339.11438,-84.657039 0.3501,-0.31851 3.1471,-8.27546 -8.6859,-9.38287 -6.5713,-0.61498 -8.2188,-8.71324 -8,-8.88608 0.019,-0.0136 58.8594,-2.20242 60.5056,-0.55617 1.2275,1.22742 0.078,62.553369 -0.041,62.673279 -0.1448,0.14589 -8.7438,-1.73896 -8.8523,-8.47945 -0.1549,-9.61897 -8.7767,-8.5288 -9.0065,-8.26514 -6.6694,7.65668 -31.3809,55.93716 -47.8452,70.70113 -7.3772,6.61534 -17.4373,12.48707 -27.36258,15.97055 -41.2781,7.33325 -90.66512,2.93125 -133.49998,2.99524 -101.72341,0.15194 -126.17344,-0.062 -129.05465,-1.13004 z"
             id="path421"
             sodipodi:nodetypes="cssssssssssssscc" /><path
             id="path422"
             style="opacity:0.2;fill:#000000;stroke-width:7;filter:url(#filter27)"
             d="m 1093.0558,78.194621 c 0,0 -11.2059,28.518289 -29.9199,36.003909 -19.4454,7.77817 5.9403,89.85552 -342.98242,88.06054 4.94563,4.59742 10.3034,7.82933 17.24023,10.4004 2.88121,1.06803 27.33128,1.28279 129.05469,1.13085 42.83486,-0.064 92.2219,4.33716 133.5,-2.99609 9.9253,-3.48348 19.9841,-9.35536 27.3613,-15.9707 16.4643,-14.76397 41.1763,-63.04449 47.8457,-70.70117 0.2298,-0.26366 8.8509,-1.35335 9.0059,8.26562 0.1081,6.71416 8.6418,8.60994 8.8515,8.48047 v 0 c 0.1191,-0.11991 1.2686,-61.446409 0.041,-62.673829 z"
             sodipodi:nodetypes="csccscsssccc" /></g></g></g><g
       id="g478"
       inkscape:export-filename="wordmark-vertical.svg"
       inkscape:export-xdpi="96"
       inkscape:export-ydpi="96"><text
         xml:space="preserve"
         style="font-size:60.4785px;font-family:Serif;-inkscape-font-specification:Serif;letter-spacing:0px;writing-mode:lr-tb;direction:ltr;fill:#f9f9f9;fill-opacity:1;fill-rule:nonzero;stroke:none;stroke-width:1.27005"
         x="1707.0958"
         y="-583.36737"
         id="text336"><tspan
           sodipodi:role="line"
           id="tspan336"
           style="font-style:normal;font-variant:normal;font-weight:bold;font-stretch:normal;font-size:60.4785px;font-family:'Space Grotesk';-inkscape-font-specification:'Space Grotesk Bold';fill:#f9f9f9;fill-opacity:1;stroke:none;stroke-width:1.27005"
           x="1707.0958"
           y="-583.36737">Vela</tspan></text><g
         id="g432"
         transform="translate(784.87402,-270.873)"><rect
           style="fill:#f9f9f9;fill-opacity:1;fill-rule:nonzero;stroke:none;stroke-width:21.2057"
           id="rect424"
           width="144.23181"
           height="146.29227"
           x="910.7356"
           y="-519.98285"
           rx="25.449871"
           ry="27.74036" /><g
           id="g431"
           transform="matrix(0.26458333,0,0,0.26458333,743.91839,-462.69341)"><path
             id="path424"
             style="fill:url(#linearGradient432);fill-opacity:1;fill-rule:nonzero;stroke-width:4.0427"
             d="m 897.9034,-95.18234 c -3.23139,0.14486 -6.64525,2.32977 -8.05078,5.43945 -0.77314,1.71063 -4.19111,11.98022 -7.59571,22.82032 l -6.18945,19.70898 2.79492,9.33984 c 1.53718,5.13724 5.4543,12.55222 9.29102,23.87891 8.46081,24.97787 9.68043,34.347 6.24219,57.71875 -8.57813,58.31046 -15.55418,90.12156 -22.07227,111.9707 50.33833,-6.25067 99.14729,-17.38051 141.60158,-43.19531 -6.857,-22.95561 -20.3163,-64.01679 -30.53517,-92.41016 -20.43489,-56.77893 -31.03136,-82.56851 -35.44532,-86.27343 -4.42208,-3.71171 -44.55089,-27.8245 -47.85937,-28.75782 -0.69952,-0.19731 -1.43594,-0.27366 -2.18164,-0.24023 z m 10.27539,30.60742 c 7.47519,0 11.39193,10.23746 6.29297,16.44727 -2.97309,3.62074 -6.39043,4.27535 -10.375,1.99023 -8.07923,-4.63335 -5.02323,-18.4375 4.08203,-18.4375 z" /><path
             style="baseline-shift:baseline;display:inline;overflow:visible;opacity:0.3;vector-effect:none;fill:#000000;stroke-width:5.19915;enable-background:accumulate;stop-color:#000000"
             d="m 908.20375,-70.17602 c -6.92836,0 -11.88261,5.43474 -13.27196,11.70887 -1.38939,6.27412 0.76097,13.72115 6.93029,17.25918 2.89436,1.65989 5.83045,2.36575 8.64862,1.82476 2.81813,-0.54099 5.37702,-2.30908 7.55686,-4.96378 3.94764,-4.80766 4.45913,-11.38308 2.46834,-16.58576 -1.99087,-5.20268 -6.55582,-9.24327 -12.33215,-9.24327 z m 0,5.56117 c 3.83724,0 6.58802,2.53318 7.87964,5.90875 1.29169,3.37557 1.05297,7.36817 -1.55694,10.54666 -1.64368,2.00178 -3.19646,2.98074 -4.81319,3.29109 -1.61673,0.31039 -3.44716,-0.0246 -5.67716,-1.3034 -4.22109,-2.42074 -5.30161,-6.83509 -4.39551,-10.92683 0.9061,-4.09174 3.78164,-7.51627 8.56316,-7.51627 z"
             id="path425" /><path
             id="path426"
             style="opacity:0.2;fill:#000000;stroke-width:4.0427;filter:url(#filter28)"
             d="m 897.9034,-95.18039 c -3.23138,0.14486 -6.64525,2.32784 -8.05078,5.4375 -0.77314,1.71063 -4.19111,11.98021 -7.59571,22.82032 l -6.18945,19.70898 2.79492,9.33984 c 1.53718,5.13726 5.45431,12.55225 9.29102,23.87891 8.46081,24.97788 9.68043,34.34894 6.24219,57.7207 -8.57817,58.31073 -15.55579,90.11974 -22.07422,111.96875 21.73775,-2.69922 43.1917,-6.30875 63.9707,-11.61718 19.15727,-92.24927 -19.18478,-175.49102 -25.94336,-189.16797 -1.91682,0.5993 -3.99293,0.24864 -6.25195,-1.04688 -7.5298,-4.31826 -5.38681,-16.60313 2.31054,-18.2539 -8.49332,-10.77133 -8.5039,-30.78907 -8.5039,-30.78907 z" /><path
             id="path427"
             style="fill:url(#linearGradient433);fill-opacity:1;fill-rule:nonzero;stroke-width:4.18681"
             d="m 860.29598,-50.15094 c -3.17469,-0.0799 -7.45244,2.58437 -14.49805,8.46289 -11.21552,9.35771 -28.85805,24.84678 -32.07813,28.16211 -3.17552,3.26941 -3.56148,4.47965 -14.91601,46.66797 -17.44147,64.80446 -28.71868,106.52211 -35.8125,133.54296 32.67368,-2.81462 66.17709,-4.69822 99.16797,-8.38085 6.40033,-24.03731 16.06526,-73.17173 22.22851,-114.23633 3.02396,-20.14813 3.18371,-22.42089 1.98243,-28.22461 -2.12051,-10.24456 -18.8237,-59.89615 -21.18946,-62.98633 -1.47186,-1.92257 -2.97995,-2.95984 -4.88476,-3.00781 z m -8.30664,33.05273 c 7.51551,0 11.27557,11.51164 5.91015,18.09570003 C 856.20482,3.07708 854.33383,4.00726 851.85457,4.00726 c -5.00496,0 -8.5,-4.42723997 -8.5,-10.77148 0,-6.31564 3.35564,-10.33399 8.63477,-10.33399 z"
             sodipodi:nodetypes="ssssccsssssssss" /><path
             style="baseline-shift:baseline;display:inline;overflow:visible;opacity:0.3;vector-effect:none;fill:#000000;stroke-width:5.36527;enable-background:accumulate;stop-color:#000000"
             d="m 852.02667,-23.03898 c -3.88305,0 -7.33244,1.51574 -9.76233,4.42273 -2.42994,2.907 -3.72711,7.10106 -3.72711,11.79396 0,9.4694 5.74076,16.77389 13.31917,16.77389 3.67192,0 6.91347,-1.60009 9.45963,-4.72456 8.27354,-10.15268 2.35672,-28.26602 -9.28936,-28.26602 z m 0,5.94344 c 7.61605,0 11.33348,11.38665 5.85554,18.10879 -1.79727,2.2055 -3.34352,2.99493 -6.02581,2.99493 -5.24927,0 -8.47582,-4.03971997 -8.47582,-10.83047 0,-3.40052 0.85769,-5.8438 2.27033,-7.53374 1.41256,-1.6899 3.49368,-2.73951 6.37576,-2.73951 z"
             id="path428" /><path
             id="path429"
             style="opacity:0.2;fill:#000000;stroke-width:4.18681;filter:url(#filter29)"
             d="m 860.29598,-50.15094 c 0,0 -1.32883,23.3158 -6.8418,33.20508 6.51549,1.37581 9.44959,11.80245 4.44531,17.94335003 C 856.20482,3.07707 854.33383,4.00921 851.85457,4.00921 c -0.0635,0 -0.12634,-9.2e-4 -0.18945,-0.002 -1.29321,14.92706 -9.35555,98.83568 -31.75196,158.22852 14.10683,-1.12495 28.22354,-2.36614 42.24805,-3.93164 6.40033,-24.0376 16.06339,-73.17224 22.22656,-114.23633 3.02397,-20.14816 3.18371,-22.42087 1.98243,-28.22461 -2.1205,-10.24455 -18.8237,-59.89615 -21.18946,-62.98633 -1.47182,-1.92256 -2.97999,-2.95984 -4.88476,-3.00781 z m -63.19336,255.01953 c -1.85343,2.24902 -3.76478,4.31772 -5.73633,6.18555 4.51066,-1.77853 9.67707,-3.82476 15.59961,-6.17579 -3.44601,-0.002 -6.7315,-0.005 -9.86328,-0.01 z" /><path
             style="fill:url(#linearGradient434);fill-opacity:1;fill-rule:nonzero;stroke-width:3.77953"
             d="m 737.39313,212.65996 c -6.93683,-2.57106 -12.29371,-5.80279 -17.23934,-10.40021 -5.3495,-4.97288 -11.20138,-13.2985 -12.23119,-17.40159 -0.53643,-2.13725 -0.25863,-2.81309 2.19882,-3.18161 113.64277,-17.04212 248.06007,-1.82719 339.11438,-84.657039 0.3501,-0.31851 3.1471,-8.27546 -8.6859,-9.38287 -6.5713,-0.61498 -8.2188,-8.71324 -8,-8.88608 0.019,-0.0136 58.8594,-2.20242 60.5056,-0.55617 1.2275,1.22742 0.078,62.553369 -0.041,62.673279 -0.1448,0.14589 -8.7438,-1.73896 -8.8523,-8.47945 -0.1549,-9.61897 -8.7767,-8.5288 -9.0065,-8.26514 -6.6694,7.65668 -31.3809,55.93716 -47.8452,70.70113 -7.3772,6.61534 -17.4373,12.48707 -27.36258,15.97055 -41.2781,7.33325 -90.66512,2.93125 -133.49998,2.99524 -101.72341,0.15194 -126.17344,-0.062 -129.05465,-1.13004 z"
             id="path430"
             sodipodi:nodetypes="cssssssssssssscc" /><path
             id="path431"
             style="opacity:0.2;fill:#000000;stroke-width:7;filter:url(#filter27)"
             d="m 1093.0558,78.194621 c 0,0 -11.2059,28.518289 -29.9199,36.003909 -19.4454,7.77817 5.9403,89.85552 -342.98242,88.06054 4.94563,4.59742 10.3034,7.82933 17.24023,10.4004 2.88121,1.06803 27.33128,1.28279 129.05469,1.13085 42.83486,-0.064 92.2219,4.33716 133.5,-2.99609 9.9253,-3.48348 19.9841,-9.35536 27.3613,-15.9707 16.4643,-14.76397 41.1763,-63.04449 47.8457,-70.70117 0.2298,-0.26366 8.8509,-1.35335 9.0059,8.26562 0.1081,6.71416 8.6418,8.60994 8.8515,8.48047 v 0 c 0.1191,-0.11991 1.2686,-61.446409 0.041,-62.673829 z"
             sodipodi:nodetypes="csccscsssccc" /></g></g></g><g
       id="g474"
       inkscape:export-filename="icon.svg"
       inkscape:export-xdpi="96"
       inkscape:export-ydpi="96"><g
         id="g442"
         transform="translate(950.80718,-270.873)"><rect
           style="fill:#f9f9f9;fill-opacity:1;fill-rule:nonzero;stroke:none;stroke-width:21.2057"
           id="rect434"
           width="144.23181"
           height="146.29227"
           x="910.7356"
           y="-519.98285"
           rx="25.449871"
           ry="27.74036" /><g
           id="g441"
           transform="matrix(0.26458333,0,0,0.26458333,743.91839,-462.69341)"><path
             id="path434"
             style="fill:url(#linearGradient442);fill-opacity:1;fill-rule:nonzero;stroke-width:4.0427"
             d="m 897.9034,-95.18234 c -3.23139,0.14486 -6.64525,2.32977 -8.05078,5.43945 -0.77314,1.71063 -4.19111,11.98022 -7.59571,22.82032 l -6.18945,19.70898 2.79492,9.33984 c 1.53718,5.13724 5.4543,12.55222 9.29102,23.87891 8.46081,24.97787 9.68043,34.347 6.24219,57.71875 -8.57813,58.31046 -15.55418,90.12156 -22.07227,111.9707 50.33833,-6.25067 99.14729,-17.38051 141.60158,-43.19531 -6.857,-22.95561 -20.3163,-64.01679 -30.53517,-92.41016 -20.43489,-56.77893 -31.03136,-82.56851 -35.44532,-86.27343 -4.42208,-3.71171 -44.55089,-27.8245 -47.85937,-28.75782 -0.69952,-0.19731 -1.43594,-0.27366 -2.18164,-0.24023 z m 10.27539,30.60742 c 7.47519,0 11.39193,10.23746 6.29297,16.44727 -2.97309,3.62074 -6.39043,4.27535 -10.375,1.99023 -8.07923,-4.63335 -5.02323,-18.4375 4.08203,-18.4375 z" /><path
             style="baseline-shift:baseline;display:inline;overflow:visible;opacity:0.3;vector-effect:none;fill:#000000;stroke-width:5.19915;enable-background:accumulate;stop-color:#000000"
             d="m 908.20375,-70.17602 c -6.92836,0 -11.88261,5.43474 -13.27196,11.70887 -1.38939,6.27412 0.76097,13.72115 6.93029,17.25918 2.89436,1.65989 5.83045,2.36575 8.64862,1.82476 2.81813,-0.54099 5.37702,-2.30908 7.55686,-4.96378 3.94764,-4.80766 4.45913,-11.38308 2.46834,-16.58576 -1.99087,-5.20268 -6.55582,-9.24327 -12.33215,-9.24327 z m 0,5.56117 c 3.83724,0 6.58802,2.53318 7.87964,5.90875 1.29169,3.37557 1.05297,7.36817 -1.55694,10.54666 -1.64368,2.00178 -3.19646,2.98074 -4.81319,3.29109 -1.61673,0.31039 -3.44716,-0.0246 -5.67716,-1.3034 -4.22109,-2.42074 -5.30161,-6.83509 -4.39551,-10.92683 0.9061,-4.09174 3.78164,-7.51627 8.56316,-7.51627 z"
             id="path435" /><path
             id="path436"
             style="opacity:0.2;fill:#000000;stroke-width:4.0427;filter:url(#filter28)"
             d="m 897.9034,-95.18039 c -3.23138,0.14486 -6.64525,2.32784 -8.05078,5.4375 -0.77314,1.71063 -4.19111,11.98021 -7.59571,22.82032 l -6.18945,19.70898 2.79492,9.33984 c 1.53718,5.13726 5.45431,12.55225 9.29102,23.87891 8.46081,24.97788 9.68043,34.34894 6.24219,57.7207 -8.57817,58.31073 -15.55579,90.11974 -22.07422,111.96875 21.73775,-2.69922 43.1917,-6.30875 63.9707,-11.61718 19.15727,-92.24927 -19.18478,-175.49102 -25.94336,-189.16797 -1.91682,0.5993 -3.99293,0.24864 -6.25195,-1.04688 -7.5298,-4.31826 -5.38681,-16.60313 2.31054,-18.2539 -8.49332,-10.77133 -8.5039,-30.78907 -8.5039,-30.78907 z" /><path
             id="path437"
             style="fill:url(#linearGradient443);fill-opacity:1;fill-rule:nonzero;stroke-width:4.18681"
             d="m 860.29598,-50.15094 c -3.17469,-0.0799 -7.45244,2.58437 -14.49805,8.46289 -11.21552,9.35771 -28.85805,24.84678 -32.07813,28.16211 -3.17552,3.26941 -3.56148,4.47965 -14.91601,46.66797 -17.44147,64.80446 -28.71868,106.52211 -35.8125,133.54296 32.67368,-2.81462 66.17709,-4.69822 99.16797,-8.38085 6.40033,-24.03731 16.06526,-73.17173 22.22851,-114.23633 3.02396,-20.14813 3.18371,-22.42089 1.98243,-28.22461 -2.12051,-10.24456 -18.8237,-59.89615 -21.18946,-62.98633 -1.47186,-1.92257 -2.97995,-2.95984 -4.88476,-3.00781 z m -8.30664,33.05273 c 7.51551,0 11.27557,11.51164 5.91015,18.09570003 C 856.20482,3.07708 854.33383,4.00726 851.85457,4.00726 c -5.00496,0 -8.5,-4.42723997 -8.5,-10.77148 0,-6.31564 3.35564,-10.33399 8.63477,-10.33399 z"
             sodipodi:nodetypes="ssssccsssssssss" /><path
             style="baseline-shift:baseline;display:inline;overflow:visible;opacity:0.3;vector-effect:none;fill:#000000;stroke-width:5.36527;enable-background:accumulate;stop-color:#000000"
             d="m 852.02667,-23.03898 c -3.88305,0 -7.33244,1.51574 -9.76233,4.42273 -2.42994,2.907 -3.72711,7.10106 -3.72711,11.79396 0,9.4694 5.74076,16.77389 13.31917,16.77389 3.67192,0 6.91347,-1.60009 9.45963,-4.72456 8.27354,-10.15268 2.35672,-28.26602 -9.28936,-28.26602 z m 0,5.94344 c 7.61605,0 11.33348,11.38665 5.85554,18.10879 -1.79727,2.2055 -3.34352,2.99493 -6.02581,2.99493 -5.24927,0 -8.47582,-4.03971997 -8.47582,-10.83047 0,-3.40052 0.85769,-5.8438 2.27033,-7.53374 1.41256,-1.6899 3.49368,-2.73951 6.37576,-2.73951 z"
             id="path438" /><path
             id="path439"
             style="opacity:0.2;fill:#000000;stroke-width:4.18681;filter:url(#filter29)"
             d="m 860.29598,-50.15094 c 0,0 -1.32883,23.3158 -6.8418,33.20508 6.51549,1.37581 9.44959,11.80245 4.44531,17.94335003 C 856.20482,3.07707 854.33383,4.00921 851.85457,4.00921 c -0.0635,0 -0.12634,-9.2e-4 -0.18945,-0.002 -1.29321,14.92706 -9.35555,98.83568 -31.75196,158.22852 14.10683,-1.12495 28.22354,-2.36614 42.24805,-3.93164 6.40033,-24.0376 16.06339,-73.17224 22.22656,-114.23633 3.02397,-20.14816 3.18371,-22.42087 1.98243,-28.22461 -2.1205,-10.24455 -18.8237,-59.89615 -21.18946,-62.98633 -1.47182,-1.92256 -2.97999,-2.95984 -4.88476,-3.00781 z m -63.19336,255.01953 c -1.85343,2.24902 -3.76478,4.31772 -5.73633,6.18555 4.51066,-1.77853 9.67707,-3.82476 15.59961,-6.17579 -3.44601,-0.002 -6.7315,-0.005 -9.86328,-0.01 z" /><path
             style="fill:url(#linearGradient444);fill-opacity:1;fill-rule:nonzero;stroke-width:3.77953"
             d="m 737.39313,212.65996 c -6.93683,-2.57106 -12.29371,-5.80279 -17.23934,-10.40021 -5.3495,-4.97288 -11.20138,-13.2985 -12.23119,-17.40159 -0.53643,-2.13725 -0.25863,-2.81309 2.19882,-3.18161 113.64277,-17.04212 248.06007,-1.82719 339.11438,-84.657039 0.3501,-0.31851 3.1471,-8.27546 -8.6859,-9.38287 -6.5713,-0.61498 -8.2188,-8.71324 -8,-8.88608 0.019,-0.0136 58.8594,-2.20242 60.5056,-0.55617 1.2275,1.22742 0.078,62.553369 -0.041,62.673279 -0.1448,0.14589 -8.7438,-1.73896 -8.8523,-8.47945 -0.1549,-9.61897 -8.7767,-8.5288 -9.0065,-8.26514 -6.6694,7.65668 -31.3809,55.93716 -47.8452,70.70113 -7.3772,6.61534 -17.4373,12.48707 -27.36258,15.97055 -41.2781,7.33325 -90.66512,2.93125 -133.49998,2.99524 -101.72341,0.15194 -126.17344,-0.062 -129.05465,-1.13004 z"
             id="path440"
             sodipodi:nodetypes="cssssssssssssscc" /><path
             id="path441"
             style="opacity:0.2;fill:#000000;stroke-width:7;filter:url(#filter27)"
             d="m 1093.0558,78.194621 c 0,0 -11.2059,28.518289 -29.9199,36.003909 -19.4454,7.77817 5.9403,89.85552 -342.98242,88.06054 4.94563,4.59742 10.3034,7.82933 17.24023,10.4004 2.88121,1.06803 27.33128,1.28279 129.05469,1.13085 42.83486,-0.064 92.2219,4.33716 133.5,-2.99609 9.9253,-3.48348 19.9841,-9.35536 27.3613,-15.9707 16.4643,-14.76397 41.1763,-63.04449 47.8457,-70.70117 0.2298,-0.26366 8.8509,-1.35335 9.0059,8.26562 0.1081,6.71416 8.6418,8.60994 8.8515,8.48047 v 0 c 0.1191,-0.11991 1.2686,-61.446409 0.041,-62.673829 z"
             sodipodi:nodetypes="csccscsssccc" /></g></g></g><g
       id="g473"
       inkscape:export-filename="icon-bnw.svg"
       inkscape:export-xdpi="96"
       inkscape:export-ydpi="96"><rect
         style="fill:#f9f9f9;fill-opacity:1;fill-rule:nonzero;stroke:none;stroke-width:21.2057"
         id="rect444"
         width="144.23181"
         height="146.29227"
         x="2027.476"
         y="-790.85583"
         rx="25.449871"
         ry="27.74036" /><g
         id="g454"
         style="fill:#808080"><path
           id="path444"
           style="fill:#808080;fill-opacity:1;fill-rule:nonzero;stroke-width:1.06963"
           d="m 2098.229,-758.75007 c -0.855,0.0383 -1.7583,0.61642 -2.1301,1.43919 -0.2046,0.4526 -1.1089,3.16976 -2.0097,6.03787 l -1.6377,5.21467 0.7395,2.47117 c 0.4067,1.35923 1.4432,3.32111 2.4583,6.31796 2.2386,6.60873 2.5613,9.08764 1.6516,15.27142 -2.2697,15.42797 -4.1154,23.84466 -5.84,29.62558 13.3187,-1.65382 26.2327,-4.59859 37.4654,-11.42876 -1.8142,-6.07367 -5.3753,-16.93778 -8.0791,-24.45019 -5.4067,-15.02276 -8.2104,-21.84625 -9.3782,-22.82651 -1.17,-0.98206 -11.7874,-7.3619 -12.6628,-7.60884 -0.1851,-0.0522 -0.3799,-0.0724 -0.5772,-0.0636 z m 2.7187,8.09821 c 1.9778,0 3.0141,2.70866 1.665,4.35168 -0.7866,0.95798 -1.6908,1.13118 -2.7451,0.52658 -2.1376,-1.22591 -1.329,-4.87826 1.0801,-4.87826 z" /><path
           id="path447"
           style="fill:#808080;fill-opacity:1;fill-rule:nonzero;stroke-width:1.10776"
           d="m 2088.2787,-746.83551 c -0.84,-0.0211 -1.9718,0.68378 -3.836,2.23914 -2.9674,2.47589 -7.6353,6.57404 -8.4873,7.45122 -0.8402,0.86503 -0.9423,1.18524 -3.9465,12.34757 -4.6148,17.14618 -7.5985,28.18397 -9.4754,35.33324 8.6449,-0.7447 17.5093,-1.24307 26.2382,-2.21743 1.6934,-6.35988 4.2506,-19.36002 5.8813,-30.22503 0.8001,-5.33086 0.8423,-5.9322 0.5245,-7.46776 -0.5611,-2.71054 -4.9805,-15.84753 -5.6064,-16.66514 -0.3894,-0.50868 -0.7884,-0.78312 -1.2924,-0.79581 z m -2.1978,8.7452 c 1.9885,0 2.9833,3.04579 1.5637,4.78782 -0.4484,0.55022 -0.9434,0.79633 -1.5994,0.79633 -1.3242,0 -2.2489,-1.17137 -2.2489,-2.84995 0,-1.67101 0.8878,-2.7342 2.2846,-2.7342 z"
           sodipodi:nodetypes="ssssccsssssssss" /><path
           style="fill:#808080;fill-opacity:1;fill-rule:nonzero;stroke-width:1"
           d="m 2055.7606,-677.30013 c -1.8353,-0.68026 -3.2527,-1.53532 -4.5612,-2.75172 -1.4154,-1.31574 -2.9637,-3.51856 -3.2362,-4.60417 -0.1419,-0.56548 -0.068,-0.7443 0.5818,-0.8418 30.068,-4.50906 65.6325,-0.48345 89.724,-22.39884 0.093,-0.0843 0.8327,-2.18955 -2.2981,-2.48256 -1.7387,-0.16271 -2.1746,-2.30537 -2.1167,-2.3511 0,-0.004 15.5732,-0.58273 16.0088,-0.14716 0.3247,0.32476 0.021,16.55058 -0.011,16.58231 -0.038,0.0386 -2.3134,-0.4601 -2.3422,-2.24352 -0.041,-2.54502 -2.3221,-2.25658 -2.3829,-2.18682 -1.7646,2.02583 -8.3029,14.80004 -12.6591,18.70634 -1.9519,1.75031 -4.6136,3.30387 -7.2396,4.22554 -10.9215,1.94026 -23.9885,0.77556 -35.3219,0.79249 -26.9143,0.0402 -33.3834,-0.0164 -34.1457,-0.29899 z"
           id="path450"
           sodipodi:nodetypes="cssssssssssssscc" /></g><path
         style="baseline-shift:baseline;display:inline;overflow:visible;opacity:0.3;vector-effect:none;fill:#000000;stroke-width:1.37561;enable-background:accumulate;stop-color:#000000"
         d="m 2100.9543,-752.13382 c -1.8332,0 -3.144,1.43795 -3.5116,3.09798 -0.3676,1.66002 0.2014,3.63038 1.8337,4.56649 0.7658,0.43918 1.5426,0.62594 2.2883,0.4828 0.7456,-0.14314 1.4226,-0.61094 1.9994,-1.31333 1.0445,-1.27203 1.1798,-3.01178 0.6531,-4.38832 -0.5268,-1.37654 -1.7346,-2.44562 -3.2629,-2.44562 z m 0,1.4714 c 1.0152,0 1.7431,0.67024 2.0848,1.56335 0.3418,0.89312 0.2786,1.9495 -0.4119,2.79047 -0.4349,0.52964 -0.8458,0.78866 -1.2735,0.87077 -0.4278,0.0821 -0.9121,-0.007 -1.5021,-0.34486 -1.1168,-0.64048 -1.4027,-1.80845 -1.163,-2.89105 0.2397,-1.08261 1.0006,-1.98868 2.2657,-1.98868 z"
         id="path445" /><path
         style="baseline-shift:baseline;display:inline;overflow:visible;opacity:0.3;vector-effect:none;fill:#000000;stroke-width:1.41956;enable-background:accumulate;stop-color:#000000"
         d="m 2086.0908,-739.66214 c -1.0274,0 -1.9401,0.40104 -2.583,1.17018 -0.6429,0.76914 -0.9861,1.87882 -0.9861,3.12049 0,2.50544 1.5189,4.43809 3.524,4.43809 0.9715,0 1.8292,-0.42336 2.5029,-1.25004 2.189,-2.68623 0.6235,-7.47872 -2.4578,-7.47872 z m 0,1.57254 c 2.015,0 2.9986,3.01271 1.5492,4.79128 -0.4755,0.58354 -0.8846,0.79241 -1.5943,0.79241 -1.3889,0 -2.2426,-1.06884 -2.2426,-2.86556 0,-0.89973 0.227,-1.54618 0.6007,-1.99331 0.3738,-0.44712 0.9244,-0.72482 1.687,-0.72482 z"
         id="path448" /><g
         id="g456"><path
           id="path446"
           style="opacity:0.2;fill:#000000;stroke-width:4.0427;filter:url(#filter28)"
           d="m 897.9034,-95.18039 c -3.23138,0.14486 -6.64525,2.32784 -8.05078,5.4375 -0.77314,1.71063 -4.19111,11.98021 -7.59571,22.82032 l -6.18945,19.70898 2.79492,9.33984 c 1.53718,5.13726 5.45431,12.55225 9.29102,23.87891 8.46081,24.97788 9.68043,34.34894 6.24219,57.7207 -8.57817,58.31073 -15.55579,90.11974 -22.07422,111.96875 21.73775,-2.69922 43.1917,-6.30875 63.9707,-11.61718 19.15727,-92.24927 -19.18478,-175.49102 -25.94336,-189.16797 -1.91682,0.5993 -3.99293,0.24864 -6.25195,-1.04688 -7.5298,-4.31826 -5.38681,-16.60313 2.31054,-18.2539 -8.49332,-10.77133 -8.5039,-30.78907 -8.5039,-30.78907 z"
           transform="matrix(0.26458333,0,0,0.26458333,1860.6587,-733.56641)" /><path
           id="path449"
           style="opacity:0.2;fill:#000000;stroke-width:4.18681;filter:url(#filter29)"
           d="m 860.29598,-50.15094 c 0,0 -1.32883,23.3158 -6.8418,33.20508 6.51549,1.37581 9.44959,11.80245 4.44531,17.94335003 C 856.20482,3.07707 854.33383,4.00921 851.85457,4.00921 c -0.0635,0 -0.12634,-9.2e-4 -0.18945,-0.002 -1.29321,14.92706 -9.35555,98.83568 -31.75196,158.22852 14.10683,-1.12495 28.22354,-2.36614 42.24805,-3.93164 6.40033,-24.0376 16.06339,-73.17224 22.22656,-114.23633 3.02397,-20.14816 3.18371,-22.42087 1.98243,-28.22461 -2.1205,-10.24455 -18.8237,-59.89615 -21.18946,-62.98633 -1.47182,-1.92256 -2.97999,-2.95984 -4.88476,-3.00781 z m -63.19336,255.01953 c -1.85343,2.24902 -3.76478,4.31772 -5.73633,6.18555 4.51066,-1.77853 9.67707,-3.82476 15.59961,-6.17579 -3.44601,-0.002 -6.7315,-0.005 -9.86328,-0.01 z"
           transform="matrix(0.26458333,0,0,0.26458333,1860.6587,-733.56641)" /><path
           id="path451"
           style="opacity:0.2;fill:#000000;stroke-width:7;filter:url(#filter27)"
           d="m 1093.0558,78.194621 c 0,0 -11.2059,28.518289 -29.9199,36.003909 -19.4454,7.77817 5.9403,89.85552 -342.98242,88.06054 4.94563,4.59742 10.3034,7.82933 17.24023,10.4004 2.88121,1.06803 27.33128,1.28279 129.05469,1.13085 42.83486,-0.064 92.2219,4.33716 133.5,-2.99609 9.9253,-3.48348 19.9841,-9.35536 27.3613,-15.9707 16.4643,-14.76397 41.1763,-63.04449 47.8457,-70.70117 0.2298,-0.26366 8.8509,-1.35335 9.0059,8.26562 0.1081,6.71416 8.6418,8.60994 8.8515,8.48047 v 0 c 0.1191,-0.11991 1.2686,-61.446409 0.041,-62.673829 z"
           sodipodi:nodetypes="csccscsssccc"
           transform="matrix(0.26458333,0,0,0.26458333,1860.6587,-733.56641)" /></g></g><g
       id="g475"
       inkscape:export-filename="icon flat.svg"
       inkscape:export-xdpi="96"
       inkscape:export-ydpi="96"><rect
         style="fill:#f9f9f9;fill-opacity:1;fill-rule:nonzero;stroke:none;stroke-width:21.2057"
         id="rect456"
         width="144.23181"
         height="146.29227"
         x="1861.5427"
         y="-626.95868"
         rx="25.449871"
         ry="27.74036" /><path
         id="path456"
         style="fill:url(#linearGradient471);fill-opacity:1;fill-rule:nonzero;stroke-width:1.06963"
         d="m 1932.2959,-594.8529 c -0.855,0.0383 -1.7583,0.61642 -2.1301,1.43919 -0.2046,0.4526 -1.1089,3.16976 -2.0097,6.03787 l -1.6377,5.21467 0.7395,2.47117 c 0.4067,1.35923 1.4432,3.32111 2.4583,6.31796 2.2386,6.60873 2.5613,9.08764 1.6516,15.27142 -2.2697,15.42797 -4.1154,23.84466 -5.84,29.62558 13.3187,-1.65382 26.2327,-4.59859 37.4654,-11.42876 -1.8142,-6.07367 -5.3753,-16.93778 -8.0791,-24.45019 -5.4067,-15.02276 -8.2104,-21.84625 -9.3782,-22.82651 -1.17,-0.98206 -11.7874,-7.3619 -12.6628,-7.60884 -0.1851,-0.0522 -0.3799,-0.0724 -0.5772,-0.0636 z m 2.7187,8.09821 c 1.9778,0 3.0141,2.70866 1.665,4.35168 -0.7866,0.95798 -1.6908,1.13118 -2.7451,0.52658 -2.1376,-1.22591 -1.329,-4.87826 1.0801,-4.87826 z" /><path
         style="baseline-shift:baseline;display:inline;overflow:visible;opacity:0.3;vector-effect:none;fill:#000000;stroke-width:1.37561;enable-background:accumulate;stop-color:#000000"
         d="m 1935.0212,-588.23665 c -1.8332,0 -3.144,1.43795 -3.5116,3.09798 -0.3676,1.66002 0.2014,3.63038 1.8337,4.56649 0.7658,0.43918 1.5426,0.62594 2.2883,0.4828 0.7456,-0.14314 1.4226,-0.61094 1.9994,-1.31333 1.0445,-1.27203 1.1798,-3.01178 0.6531,-4.38832 -0.5268,-1.37654 -1.7346,-2.44562 -3.2629,-2.44562 z m 0,1.4714 c 1.0152,0 1.7431,0.67024 2.0848,1.56335 0.3418,0.89312 0.2786,1.9495 -0.4119,2.79047 -0.4349,0.52964 -0.8458,0.78866 -1.2735,0.87077 -0.4278,0.0821 -0.9121,-0.007 -1.5021,-0.34486 -1.1168,-0.64048 -1.4027,-1.80845 -1.163,-2.89105 0.2397,-1.08261 1.0006,-1.98868 2.2657,-1.98868 z"
         id="path457" /><path
         id="path459"
         style="fill:url(#linearGradient472);fill-opacity:1;fill-rule:nonzero;stroke-width:1.10776"
         d="m 1922.3456,-582.93834 c -0.84,-0.0211 -1.9718,0.68378 -3.836,2.23914 -2.9674,2.47589 -7.6353,6.57404 -8.4873,7.45122 -0.8402,0.86503 -0.9423,1.18524 -3.9465,12.34757 -4.6148,17.14618 -7.5985,28.18397 -9.4754,35.33324 8.6449,-0.7447 17.5093,-1.24307 26.2382,-2.21743 1.6934,-6.35988 4.2506,-19.36002 5.8813,-30.22503 0.8001,-5.33086 0.8423,-5.9322 0.5245,-7.46776 -0.5611,-2.71054 -4.9805,-15.84753 -5.6064,-16.66514 -0.3894,-0.50868 -0.7884,-0.78312 -1.2924,-0.79581 z m -2.1978,8.7452 c 1.9885,0 2.9833,3.04579 1.5637,4.78782 -0.4484,0.55022 -0.9434,0.79633 -1.5994,0.79633 -1.3242,0 -2.2489,-1.17137 -2.2489,-2.84995 0,-1.67101 0.8878,-2.7342 2.2846,-2.7342 z"
         sodipodi:nodetypes="ssssccsssssssss" /><path
         style="baseline-shift:baseline;display:inline;overflow:visible;opacity:0.3;vector-effect:none;fill:#000000;stroke-width:1.41956;enable-background:accumulate;stop-color:#000000"
         d="m 1920.1577,-575.76497 c -1.0274,0 -1.9401,0.40104 -2.583,1.17018 -0.6429,0.76914 -0.9861,1.87882 -0.9861,3.12049 0,2.50544 1.5189,4.43809 3.524,4.43809 0.9715,0 1.8292,-0.42336 2.5029,-1.25004 2.189,-2.68623 0.6235,-7.47872 -2.4578,-7.47872 z m 0,1.57254 c 2.015,0 2.9986,3.01271 1.5492,4.79128 -0.4755,0.58354 -0.8846,0.79241 -1.5943,0.79241 -1.3889,0 -2.2426,-1.06884 -2.2426,-2.86556 0,-0.89973 0.227,-1.54618 0.6007,-1.99331 0.3738,-0.44712 0.9244,-0.72482 1.687,-0.72482 z"
         id="path460" /><path
         style="fill:url(#linearGradient473);fill-opacity:1;fill-rule:nonzero;stroke-width:1"
         d="m 1889.8275,-513.40296 c -1.8353,-0.68026 -3.2527,-1.53532 -4.5612,-2.75172 -1.4154,-1.31574 -2.9637,-3.51856 -3.2362,-4.60417 -0.1419,-0.56548 -0.068,-0.7443 0.5818,-0.8418 30.068,-4.50906 65.6325,-0.48345 89.724,-22.39884 0.093,-0.0843 0.8327,-2.18955 -2.2981,-2.48256 -1.7387,-0.16271 -2.1746,-2.30537 -2.1167,-2.3511 0,-0.004 15.5732,-0.58273 16.0088,-0.14716 0.3247,0.32476 0.021,16.55058 -0.011,16.58231 -0.038,0.0386 -2.3134,-0.4601 -2.3422,-2.24352 -0.041,-2.54502 -2.3221,-2.25658 -2.3829,-2.18682 -1.7646,2.02583 -8.3029,14.80004 -12.6591,18.70634 -1.9519,1.75031 -4.6136,3.30387 -7.2396,4.22554 -10.9215,1.94026 -23.9885,0.77556 -35.3219,0.79249 -26.9143,0.0402 -33.3834,-0.0164 -34.1457,-0.29899 z"
         id="path462"
         sodipodi:nodetypes="cssssssssssssscc" /></g><g
       id="g477"
       inkscape:export-filename="icon-flat-bnw.svg"
       inkscape:export-xdpi="96"
       inkscape:export-ydpi="96"><rect
         style="fill:#f9f9f9;fill-opacity:1;fill-rule:nonzero;stroke:none;stroke-width:21.2057"
         id="rect464"
         width="144.23181"
         height="146.29227"
         x="2027.476"
         y="-626.95868"
         rx="25.449871"
         ry="27.74036" /><g
         id="g476"><path
           id="path464"
           style="fill:#808080;fill-opacity:1;fill-rule:nonzero;stroke-width:1.06963"
           d="m 2098.229,-594.8529 c -0.855,0.0383 -1.7583,0.61642 -2.1301,1.43919 -0.2046,0.4526 -1.1089,3.16976 -2.0097,6.03787 l -1.6377,5.21467 0.7395,2.47117 c 0.4067,1.35923 1.4432,3.32111 2.4583,6.31796 2.2386,6.60873 2.5613,9.08764 1.6516,15.27142 -2.2697,15.42797 -4.1154,23.84466 -5.84,29.62558 13.3187,-1.65382 26.2327,-4.59859 37.4654,-11.42876 -1.8142,-6.07367 -5.3753,-16.93778 -8.0791,-24.45019 -5.4067,-15.02276 -8.2104,-21.84625 -9.3782,-22.82651 -1.17,-0.98206 -11.7874,-7.3619 -12.6628,-7.60884 -0.1851,-0.0522 -0.3799,-0.0724 -0.5772,-0.0636 z m 2.7187,8.09821 c 1.9778,0 3.0141,2.70866 1.665,4.35168 -0.7866,0.95798 -1.6908,1.13118 -2.7451,0.52658 -2.1376,-1.22591 -1.329,-4.87826 1.0801,-4.87826 z" /><path
           id="path465"
           style="fill:#808080;fill-opacity:1;fill-rule:nonzero;stroke-width:1.10776"
           d="m 2088.2787,-582.93834 c -0.84,-0.0211 -1.9718,0.68378 -3.836,2.23914 -2.9674,2.47589 -7.6353,6.57404 -8.4873,7.45122 -0.8402,0.86503 -0.9423,1.18524 -3.9465,12.34757 -4.6148,17.14618 -7.5985,28.18397 -9.4754,35.33324 8.6449,-0.7447 17.5093,-1.24307 26.2382,-2.21743 1.6934,-6.35988 4.2506,-19.36002 5.8813,-30.22503 0.8001,-5.33086 0.8423,-5.9322 0.5245,-7.46776 -0.5611,-2.71054 -4.9805,-15.84753 -5.6064,-16.66514 -0.3894,-0.50868 -0.7884,-0.78312 -1.2924,-0.79581 z m -2.1978,8.7452 c 1.9885,0 2.9833,3.04579 1.5637,4.78782 -0.4484,0.55022 -0.9434,0.79633 -1.5994,0.79633 -1.3242,0 -2.2489,-1.17137 -2.2489,-2.84995 0,-1.67101 0.8878,-2.7342 2.2846,-2.7342 z"
           sodipodi:nodetypes="ssssccsssssssss" /><path
           style="fill:#808080;fill-opacity:1;fill-rule:nonzero;stroke-width:1"
           d="m 2055.7606,-513.40296 c -1.8353,-0.68026 -3.2527,-1.53532 -4.5612,-2.75172 -1.4154,-1.31574 -2.9637,-3.51856 -3.2362,-4.60417 -0.1419,-0.56548 -0.068,-0.7443 0.5818,-0.8418 30.068,-4.50906 65.6325,-0.48345 89.724,-22.39884 0.093,-0.0843 0.8327,-2.18955 -2.2981,-2.48256 -1.7387,-0.16271 -2.1746,-2.30537 -2.1167,-2.3511 0,-0.004 15.5732,-0.58273 16.0088,-0.14716 0.3247,0.32476 0.021,16.55058 -0.011,16.58231 -0.038,0.0386 -2.3134,-0.4601 -2.3422,-2.24352 -0.041,-2.54502 -2.3221,-2.25658 -2.3829,-2.18682 -1.7646,2.02583 -8.3029,14.80004 -12.6591,18.70634 -1.9519,1.75031 -4.6136,3.30387 -7.2396,4.22554 -10.9215,1.94026 -23.9885,0.77556 -35.3219,0.79249 -26.9143,0.0402 -33.3834,-0.0164 -34.1457,-0.29899 z"
           id="path466"
           sodipodi:nodetypes="cssssssssssssscc" /></g><path
         style="baseline-shift:baseline;display:inline;overflow:visible;opacity:0.3;vector-effect:none;fill:#000000;stroke-width:1.37561;enable-background:accumulate;stop-color:#000000"
         d="m 2100.9543,-588.23665 c -1.8332,0 -3.144,1.43795 -3.5116,3.09798 -0.3676,1.66002 0.2014,3.63038 1.8337,4.56649 0.7658,0.43918 1.5426,0.62594 2.2883,0.4828 0.7456,-0.14314 1.4226,-0.61094 1.9994,-1.31333 1.0445,-1.27203 1.1798,-3.01178 0.6531,-4.38832 -0.5268,-1.37654 -1.7346,-2.44562 -3.2629,-2.44562 z m 0,1.4714 c 1.0152,0 1.7431,0.67024 2.0848,1.56335 0.3418,0.89312 0.2786,1.9495 -0.4119,2.79047 -0.4349,0.52964 -0.8458,0.78866 -1.2735,0.87077 -0.4278,0.0821 -0.9121,-0.007 -1.5021,-0.34486 -1.1168,-0.64048 -1.4027,-1.80845 -1.163,-2.89105 0.2397,-1.08261 1.0006,-1.98868 2.2657,-1.98868 z"
         id="path467" /><path
         style="baseline-shift:baseline;display:inline;overflow:visible;opacity:0.3;vector-effect:none;fill:#000000;stroke-width:1.41956;enable-background:accumulate;stop-color:#000000"
         d="m 2086.0908,-575.76497 c -1.0274,0 -1.9401,0.40104 -2.583,1.17018 -0.6429,0.76914 -0.9861,1.87882 -0.9861,3.12049 0,2.50544 1.5189,4.43809 3.524,4.43809 0.9715,0 1.8292,-0.42336 2.5029,-1.25004 2.189,-2.68623 0.6235,-7.47872 -2.4578,-7.47872 z m 0,1.57254 c 2.015,0 2.9986,3.01271 1.5492,4.79128 -0.4755,0.58354 -0.8846,0.79241 -1.5943,0.79241 -1.3889,0 -2.2426,-1.06884 -2.2426,-2.86556 0,-0.89973 0.227,-1.54618 0.6007,-1.99331 0.3738,-0.44712 0.9244,-0.72482 1.687,-0.72482 z"
         id="path468" /></g><g
       id="g539"
       inkscape:export-filename="wordmark-horizontal-dark.svg"
       inkscape:export-xdpi="96"
       inkscape:export-ydpi="96"><text
         xml:space="preserve"
         style="font-size:140.326px;font-family:Serif;-inkscape-font-specification:Serif;letter-spacing:0px;writing-mode:lr-tb;direction:ltr;fill:#000000;fill-opacity:1;fill-rule:nonzero;stroke:none;stroke-width:2.94684"
         x="2398.0273"
         y="-884.26617"
         id="text478"><tspan
           sodipodi:role="line"
           id="tspan478"
           style="font-style:normal;font-variant:normal;font-weight:bold;font-stretch:normal;font-size:140.326px;font-family:'Space Grotesk';-inkscape-font-specification:'Space Grotesk Bold';fill:#000000;fill-opacity:1;stroke:none;stroke-width:2.94684"
           x="2398.0273"
           y="-884.26617">Vela</tspan></text><g
         id="g538"><rect
           style="fill:#000000;fill-opacity:1;fill-rule:nonzero;stroke:none;stroke-width:21.2057"
           id="rect478"
           width="144.23181"
           height="146.29227"
           x="2238.3694"
           y="-1009.6384"
           rx="25.449871"
           ry="27.74036" /><g
           id="g485"
           transform="matrix(0.26458333,0,0,0.26458333,2071.5521,-952.34893)"><path
             id="path478"
             style="fill:url(#linearGradient530);fill-opacity:1;fill-rule:nonzero;stroke-width:4.0427"
             d="m 897.9034,-95.18234 c -3.23139,0.14486 -6.64525,2.32977 -8.05078,5.43945 -0.77314,1.71063 -4.19111,11.98022 -7.59571,22.82032 l -6.18945,19.70898 2.79492,9.33984 c 1.53718,5.13724 5.4543,12.55222 9.29102,23.87891 8.46081,24.97787 9.68043,34.347 6.24219,57.71875 -8.57813,58.31046 -15.55418,90.12156 -22.07227,111.9707 50.33833,-6.25067 99.14729,-17.38051 141.60158,-43.19531 -6.857,-22.95561 -20.3163,-64.01679 -30.53517,-92.41016 -20.43489,-56.77893 -31.03136,-82.56851 -35.44532,-86.27343 -4.42208,-3.71171 -44.55089,-27.8245 -47.85937,-28.75782 -0.69952,-0.19731 -1.43594,-0.27366 -2.18164,-0.24023 z m 10.27539,30.60742 c 7.47519,0 11.39193,10.23746 6.29297,16.44727 -2.97309,3.62074 -6.39043,4.27535 -10.375,1.99023 -8.07923,-4.63335 -5.02323,-18.4375 4.08203,-18.4375 z" /><path
             style="baseline-shift:baseline;display:inline;overflow:visible;opacity:0.3;vector-effect:none;fill:#000000;stroke-width:5.19915;enable-background:accumulate;stop-color:#000000"
             d="m 908.20375,-70.17602 c -6.92836,0 -11.88261,5.43474 -13.27196,11.70887 -1.38939,6.27412 0.76097,13.72115 6.93029,17.25918 2.89436,1.65989 5.83045,2.36575 8.64862,1.82476 2.81813,-0.54099 5.37702,-2.30908 7.55686,-4.96378 3.94764,-4.80766 4.45913,-11.38308 2.46834,-16.58576 -1.99087,-5.20268 -6.55582,-9.24327 -12.33215,-9.24327 z m 0,5.56117 c 3.83724,0 6.58802,2.53318 7.87964,5.90875 1.29169,3.37557 1.05297,7.36817 -1.55694,10.54666 -1.64368,2.00178 -3.19646,2.98074 -4.81319,3.29109 -1.61673,0.31039 -3.44716,-0.0246 -5.67716,-1.3034 -4.22109,-2.42074 -5.30161,-6.83509 -4.39551,-10.92683 0.9061,-4.09174 3.78164,-7.51627 8.56316,-7.51627 z"
             id="path479" /><path
             id="path480"
             style="opacity:0.2;fill:#000000;stroke-width:4.0427;filter:url(#filter28)"
             d="m 897.9034,-95.18039 c -3.23138,0.14486 -6.64525,2.32784 -8.05078,5.4375 -0.77314,1.71063 -4.19111,11.98021 -7.59571,22.82032 l -6.18945,19.70898 2.79492,9.33984 c 1.53718,5.13726 5.45431,12.55225 9.29102,23.87891 8.46081,24.97788 9.68043,34.34894 6.24219,57.7207 -8.57817,58.31073 -15.55579,90.11974 -22.07422,111.96875 21.73775,-2.69922 43.1917,-6.30875 63.9707,-11.61718 19.15727,-92.24927 -19.18478,-175.49102 -25.94336,-189.16797 -1.91682,0.5993 -3.99293,0.24864 -6.25195,-1.04688 -7.5298,-4.31826 -5.38681,-16.60313 2.31054,-18.2539 -8.49332,-10.77133 -8.5039,-30.78907 -8.5039,-30.78907 z" /><path
             id="path481"
             style="fill:url(#linearGradient531);fill-opacity:1;fill-rule:nonzero;stroke-width:4.18681"
             d="m 860.29598,-50.15094 c -3.17469,-0.0799 -7.45244,2.58437 -14.49805,8.46289 -11.21552,9.35771 -28.85805,24.84678 -32.07813,28.16211 -3.17552,3.26941 -3.56148,4.47965 -14.91601,46.66797 -17.44147,64.80446 -28.71868,106.52211 -35.8125,133.54296 32.67368,-2.81462 66.17709,-4.69822 99.16797,-8.38085 6.40033,-24.03731 16.06526,-73.17173 22.22851,-114.23633 3.02396,-20.14813 3.18371,-22.42089 1.98243,-28.22461 -2.12051,-10.24456 -18.8237,-59.89615 -21.18946,-62.98633 -1.47186,-1.92257 -2.97995,-2.95984 -4.88476,-3.00781 z m -8.30664,33.05273 c 7.51551,0 11.27557,11.51164 5.91015,18.09570003 C 856.20482,3.07708 854.33383,4.00726 851.85457,4.00726 c -5.00496,0 -8.5,-4.42723997 -8.5,-10.77148 0,-6.31564 3.35564,-10.33399 8.63477,-10.33399 z"
             sodipodi:nodetypes="ssssccsssssssss" /><path
             style="baseline-shift:baseline;display:inline;overflow:visible;opacity:0.3;vector-effect:none;fill:#000000;stroke-width:5.36527;enable-background:accumulate;stop-color:#000000"
             d="m 852.02667,-23.03898 c -3.88305,0 -7.33244,1.51574 -9.76233,4.42273 -2.42994,2.907 -3.72711,7.10106 -3.72711,11.79396 0,9.4694 5.74076,16.77389 13.31917,16.77389 3.67192,0 6.91347,-1.60009 9.45963,-4.72456 8.27354,-10.15268 2.35672,-28.26602 -9.28936,-28.26602 z m 0,5.94344 c 7.61605,0 11.33348,11.38665 5.85554,18.10879 -1.79727,2.2055 -3.34352,2.99493 -6.02581,2.99493 -5.24927,0 -8.47582,-4.03971997 -8.47582,-10.83047 0,-3.40052 0.85769,-5.8438 2.27033,-7.53374 1.41256,-1.6899 3.49368,-2.73951 6.37576,-2.73951 z"
             id="path482" /><path
             id="path483"
             style="opacity:0.2;fill:#000000;stroke-width:4.18681;filter:url(#filter29)"
             d="m 860.29598,-50.15094 c 0,0 -1.32883,23.3158 -6.8418,33.20508 6.51549,1.37581 9.44959,11.80245 4.44531,17.94335003 C 856.20482,3.07707 854.33383,4.00921 851.85457,4.00921 c -0.0635,0 -0.12634,-9.2e-4 -0.18945,-0.002 -1.29321,14.92706 -9.35555,98.83568 -31.75196,158.22852 14.10683,-1.12495 28.22354,-2.36614 42.24805,-3.93164 6.40033,-24.0376 16.06339,-73.17224 22.22656,-114.23633 3.02397,-20.14816 3.18371,-22.42087 1.98243,-28.22461 -2.1205,-10.24455 -18.8237,-59.89615 -21.18946,-62.98633 -1.47182,-1.92256 -2.97999,-2.95984 -4.88476,-3.00781 z m -63.19336,255.01953 c -1.85343,2.24902 -3.76478,4.31772 -5.73633,6.18555 4.51066,-1.77853 9.67707,-3.82476 15.59961,-6.17579 -3.44601,-0.002 -6.7315,-0.005 -9.86328,-0.01 z" /><path
             style="fill:url(#linearGradient532);fill-opacity:1;fill-rule:nonzero;stroke-width:3.77953"
             d="m 737.39313,212.65996 c -6.93683,-2.57106 -12.29371,-5.80279 -17.23934,-10.40021 -5.3495,-4.97288 -11.20138,-13.2985 -12.23119,-17.40159 -0.53643,-2.13725 -0.25863,-2.81309 2.19882,-3.18161 113.64277,-17.04212 248.06007,-1.82719 339.11438,-84.657039 0.3501,-0.31851 3.1471,-8.27546 -8.6859,-9.38287 -6.5713,-0.61498 -8.2188,-8.71324 -8,-8.88608 0.019,-0.0136 58.8594,-2.20242 60.5056,-0.55617 1.2275,1.22742 0.078,62.553369 -0.041,62.673279 -0.1448,0.14589 -8.7438,-1.73896 -8.8523,-8.47945 -0.1549,-9.61897 -8.7767,-8.5288 -9.0065,-8.26514 -6.6694,7.65668 -31.3809,55.93716 -47.8452,70.70113 -7.3772,6.61534 -17.4373,12.48707 -27.36258,15.97055 -41.2781,7.33325 -90.66512,2.93125 -133.49998,2.99524 -101.72341,0.15194 -126.17344,-0.062 -129.05465,-1.13004 z"
             id="path484"
             sodipodi:nodetypes="cssssssssssssscc" /><path
             id="path485"
             style="opacity:0.2;fill:#000000;stroke-width:7;filter:url(#filter27)"
             d="m 1093.0558,78.194621 c 0,0 -11.2059,28.518289 -29.9199,36.003909 -19.4454,7.77817 5.9403,89.85552 -342.98242,88.06054 4.94563,4.59742 10.3034,7.82933 17.24023,10.4004 2.88121,1.06803 27.33128,1.28279 129.05469,1.13085 42.83486,-0.064 92.2219,4.33716 133.5,-2.99609 9.9253,-3.48348 19.9841,-9.35536 27.3613,-15.9707 16.4643,-14.76397 41.1763,-63.04449 47.8457,-70.70117 0.2298,-0.26366 8.8509,-1.35335 9.0059,8.26562 0.1081,6.71416 8.6418,8.60994 8.8515,8.48047 v 0 c 0.1191,-0.11991 1.2686,-61.446409 0.041,-62.673829 z"
             sodipodi:nodetypes="csccscsssccc" /></g></g></g><g
       id="g537"
       inkscape:export-filename="wordmark-vertical-dark.svg"
       inkscape:export-xdpi="96"
       inkscape:export-ydpi="96"><text
         xml:space="preserve"
         style="font-size:60.4785px;font-family:Serif;-inkscape-font-specification:Serif;letter-spacing:0px;writing-mode:lr-tb;direction:ltr;fill:#000000;fill-opacity:1;fill-rule:nonzero;stroke:none;stroke-width:1.27005"
         x="2248.4087"
         y="-583.36737"
         id="text486"><tspan
           sodipodi:role="line"
           id="tspan486"
           style="font-style:normal;font-variant:normal;font-weight:bold;font-stretch:normal;font-size:60.4785px;font-family:'Space Grotesk';-inkscape-font-specification:'Space Grotesk Bold';fill:#000000;fill-opacity:1;stroke:none;stroke-width:1.27005"
           x="2248.4087"
           y="-583.36737">Vela</tspan></text><g
         id="g536"><rect
           style="fill:#000000;fill-opacity:1;fill-rule:nonzero;stroke:none;stroke-width:21.2057"
           id="rect486"
           width="144.23181"
           height="146.29227"
           x="2236.9226"
           y="-790.85583"
           rx="25.449871"
           ry="27.74036" /><g
           id="g493"
           transform="matrix(0.26458333,0,0,0.26458333,2070.1054,-733.56641)"><path
             id="path486"
             style="fill:url(#linearGradient527);fill-opacity:1;fill-rule:nonzero;stroke-width:4.0427"
             d="m 897.9034,-95.18234 c -3.23139,0.14486 -6.64525,2.32977 -8.05078,5.43945 -0.77314,1.71063 -4.19111,11.98022 -7.59571,22.82032 l -6.18945,19.70898 2.79492,9.33984 c 1.53718,5.13724 5.4543,12.55222 9.29102,23.87891 8.46081,24.97787 9.68043,34.347 6.24219,57.71875 -8.57813,58.31046 -15.55418,90.12156 -22.07227,111.9707 50.33833,-6.25067 99.14729,-17.38051 141.60158,-43.19531 -6.857,-22.95561 -20.3163,-64.01679 -30.53517,-92.41016 -20.43489,-56.77893 -31.03136,-82.56851 -35.44532,-86.27343 -4.42208,-3.71171 -44.55089,-27.8245 -47.85937,-28.75782 -0.69952,-0.19731 -1.43594,-0.27366 -2.18164,-0.24023 z m 10.27539,30.60742 c 7.47519,0 11.39193,10.23746 6.29297,16.44727 -2.97309,3.62074 -6.39043,4.27535 -10.375,1.99023 -8.07923,-4.63335 -5.02323,-18.4375 4.08203,-18.4375 z" /><path
             style="baseline-shift:baseline;display:inline;overflow:visible;opacity:0.3;vector-effect:none;fill:#000000;stroke-width:5.19915;enable-background:accumulate;stop-color:#000000"
             d="m 908.20375,-70.17602 c -6.92836,0 -11.88261,5.43474 -13.27196,11.70887 -1.38939,6.27412 0.76097,13.72115 6.93029,17.25918 2.89436,1.65989 5.83045,2.36575 8.64862,1.82476 2.81813,-0.54099 5.37702,-2.30908 7.55686,-4.96378 3.94764,-4.80766 4.45913,-11.38308 2.46834,-16.58576 -1.99087,-5.20268 -6.55582,-9.24327 -12.33215,-9.24327 z m 0,5.56117 c 3.83724,0 6.58802,2.53318 7.87964,5.90875 1.29169,3.37557 1.05297,7.36817 -1.55694,10.54666 -1.64368,2.00178 -3.19646,2.98074 -4.81319,3.29109 -1.61673,0.31039 -3.44716,-0.0246 -5.67716,-1.3034 -4.22109,-2.42074 -5.30161,-6.83509 -4.39551,-10.92683 0.9061,-4.09174 3.78164,-7.51627 8.56316,-7.51627 z"
             id="path487" /><path
             id="path488"
             style="opacity:0.2;fill:#000000;stroke-width:4.0427;filter:url(#filter28)"
             d="m 897.9034,-95.18039 c -3.23138,0.14486 -6.64525,2.32784 -8.05078,5.4375 -0.77314,1.71063 -4.19111,11.98021 -7.59571,22.82032 l -6.18945,19.70898 2.79492,9.33984 c 1.53718,5.13726 5.45431,12.55225 9.29102,23.87891 8.46081,24.97788 9.68043,34.34894 6.24219,57.7207 -8.57817,58.31073 -15.55579,90.11974 -22.07422,111.96875 21.73775,-2.69922 43.1917,-6.30875 63.9707,-11.61718 19.15727,-92.24927 -19.18478,-175.49102 -25.94336,-189.16797 -1.91682,0.5993 -3.99293,0.24864 -6.25195,-1.04688 -7.5298,-4.31826 -5.38681,-16.60313 2.31054,-18.2539 -8.49332,-10.77133 -8.5039,-30.78907 -8.5039,-30.78907 z" /><path
             id="path489"
             style="fill:url(#linearGradient528);fill-opacity:1;fill-rule:nonzero;stroke-width:4.18681"
             d="m 860.29598,-50.15094 c -3.17469,-0.0799 -7.45244,2.58437 -14.49805,8.46289 -11.21552,9.35771 -28.85805,24.84678 -32.07813,28.16211 -3.17552,3.26941 -3.56148,4.47965 -14.91601,46.66797 -17.44147,64.80446 -28.71868,106.52211 -35.8125,133.54296 32.67368,-2.81462 66.17709,-4.69822 99.16797,-8.38085 6.40033,-24.03731 16.06526,-73.17173 22.22851,-114.23633 3.02396,-20.14813 3.18371,-22.42089 1.98243,-28.22461 -2.12051,-10.24456 -18.8237,-59.89615 -21.18946,-62.98633 -1.47186,-1.92257 -2.97995,-2.95984 -4.88476,-3.00781 z m -8.30664,33.05273 c 7.51551,0 11.27557,11.51164 5.91015,18.09570003 C 856.20482,3.07708 854.33383,4.00726 851.85457,4.00726 c -5.00496,0 -8.5,-4.42723997 -8.5,-10.77148 0,-6.31564 3.35564,-10.33399 8.63477,-10.33399 z"
             sodipodi:nodetypes="ssssccsssssssss" /><path
             style="baseline-shift:baseline;display:inline;overflow:visible;opacity:0.3;vector-effect:none;fill:#000000;stroke-width:5.36527;enable-background:accumulate;stop-color:#000000"
             d="m 852.02667,-23.03898 c -3.88305,0 -7.33244,1.51574 -9.76233,4.42273 -2.42994,2.907 -3.72711,7.10106 -3.72711,11.79396 0,9.4694 5.74076,16.77389 13.31917,16.77389 3.67192,0 6.91347,-1.60009 9.45963,-4.72456 8.27354,-10.15268 2.35672,-28.26602 -9.28936,-28.26602 z m 0,5.94344 c 7.61605,0 11.33348,11.38665 5.85554,18.10879 -1.79727,2.2055 -3.34352,2.99493 -6.02581,2.99493 -5.24927,0 -8.47582,-4.03971997 -8.47582,-10.83047 0,-3.40052 0.85769,-5.8438 2.27033,-7.53374 1.41256,-1.6899 3.49368,-2.73951 6.37576,-2.73951 z"
             id="path490" /><path
             id="path491"
             style="opacity:0.2;fill:#000000;stroke-width:4.18681;filter:url(#filter29)"
             d="m 860.29598,-50.15094 c 0,0 -1.32883,23.3158 -6.8418,33.20508 6.51549,1.37581 9.44959,11.80245 4.44531,17.94335003 C 856.20482,3.07707 854.33383,4.00921 851.85457,4.00921 c -0.0635,0 -0.12634,-9.2e-4 -0.18945,-0.002 -1.29321,14.92706 -9.35555,98.83568 -31.75196,158.22852 14.10683,-1.12495 28.22354,-2.36614 42.24805,-3.93164 6.40033,-24.0376 16.06339,-73.17224 22.22656,-114.23633 3.02397,-20.14816 3.18371,-22.42087 1.98243,-28.22461 -2.1205,-10.24455 -18.8237,-59.89615 -21.18946,-62.98633 -1.47182,-1.92256 -2.97999,-2.95984 -4.88476,-3.00781 z m -63.19336,255.01953 c -1.85343,2.24902 -3.76478,4.31772 -5.73633,6.18555 4.51066,-1.77853 9.67707,-3.82476 15.59961,-6.17579 -3.44601,-0.002 -6.7315,-0.005 -9.86328,-0.01 z" /><path
             style="fill:url(#linearGradient529);fill-opacity:1;fill-rule:nonzero;stroke-width:3.77953"
             d="m 737.39313,212.65996 c -6.93683,-2.57106 -12.29371,-5.80279 -17.23934,-10.40021 -5.3495,-4.97288 -11.20138,-13.2985 -12.23119,-17.40159 -0.53643,-2.13725 -0.25863,-2.81309 2.19882,-3.18161 113.64277,-17.04212 248.06007,-1.82719 339.11438,-84.657039 0.3501,-0.31851 3.1471,-8.27546 -8.6859,-9.38287 -6.5713,-0.61498 -8.2188,-8.71324 -8,-8.88608 0.019,-0.0136 58.8594,-2.20242 60.5056,-0.55617 1.2275,1.22742 0.078,62.553369 -0.041,62.673279 -0.1448,0.14589 -8.7438,-1.73896 -8.8523,-8.47945 -0.1549,-9.61897 -8.7767,-8.5288 -9.0065,-8.26514 -6.6694,7.65668 -31.3809,55.93716 -47.8452,70.70113 -7.3772,6.61534 -17.4373,12.48707 -27.36258,15.97055 -41.2781,7.33325 -90.66512,2.93125 -133.49998,2.99524 -101.72341,0.15194 -126.17344,-0.062 -129.05465,-1.13004 z"
             id="path492"
             sodipodi:nodetypes="cssssssssssssscc" /><path
             id="path493"
             style="opacity:0.2;fill:#000000;stroke-width:7;filter:url(#filter27)"
             d="m 1093.0558,78.194621 c 0,0 -11.2059,28.518289 -29.9199,36.003909 -19.4454,7.77817 5.9403,89.85552 -342.98242,88.06054 4.94563,4.59742 10.3034,7.82933 17.24023,10.4004 2.88121,1.06803 27.33128,1.28279 129.05469,1.13085 42.83486,-0.064 92.2219,4.33716 133.5,-2.99609 9.9253,-3.48348 19.9841,-9.35536 27.3613,-15.9707 16.4643,-14.76397 41.1763,-63.04449 47.8457,-70.70117 0.2298,-0.26366 8.8509,-1.35335 9.0059,8.26562 0.1081,6.71416 8.6418,8.60994 8.8515,8.48047 v 0 c 0.1191,-0.11991 1.2686,-61.446409 0.041,-62.673829 z"
             sodipodi:nodetypes="csccscsssccc" /></g></g></g><g
       id="g535"
       inkscape:export-filename="icon-dark.svg"
       inkscape:export-xdpi="96"
       inkscape:export-ydpi="96"><rect
         style="fill:#000000;fill-opacity:1;fill-rule:nonzero;stroke:none;stroke-width:21.2057"
         id="rect495"
         width="144.23181"
         height="146.29227"
         x="2402.8557"
         y="-790.85583"
         rx="25.449871"
         ry="27.74036" /><g
         id="g502"
         transform="matrix(0.26458333,0,0,0.26458333,2236.0385,-733.56641)"><path
           id="path495"
           style="fill:url(#linearGradient524);fill-opacity:1;fill-rule:nonzero;stroke-width:4.0427"
           d="m 897.9034,-95.18234 c -3.23139,0.14486 -6.64525,2.32977 -8.05078,5.43945 -0.77314,1.71063 -4.19111,11.98022 -7.59571,22.82032 l -6.18945,19.70898 2.79492,9.33984 c 1.53718,5.13724 5.4543,12.55222 9.29102,23.87891 8.46081,24.97787 9.68043,34.347 6.24219,57.71875 -8.57813,58.31046 -15.55418,90.12156 -22.07227,111.9707 50.33833,-6.25067 99.14729,-17.38051 141.60158,-43.19531 -6.857,-22.95561 -20.3163,-64.01679 -30.53517,-92.41016 -20.43489,-56.77893 -31.03136,-82.56851 -35.44532,-86.27343 -4.42208,-3.71171 -44.55089,-27.8245 -47.85937,-28.75782 -0.69952,-0.19731 -1.43594,-0.27366 -2.18164,-0.24023 z m 10.27539,30.60742 c 7.47519,0 11.39193,10.23746 6.29297,16.44727 -2.97309,3.62074 -6.39043,4.27535 -10.375,1.99023 -8.07923,-4.63335 -5.02323,-18.4375 4.08203,-18.4375 z" /><path
           style="baseline-shift:baseline;display:inline;overflow:visible;opacity:0.3;vector-effect:none;fill:#000000;stroke-width:5.19915;enable-background:accumulate;stop-color:#000000"
           d="m 908.20375,-70.17602 c -6.92836,0 -11.88261,5.43474 -13.27196,11.70887 -1.38939,6.27412 0.76097,13.72115 6.93029,17.25918 2.89436,1.65989 5.83045,2.36575 8.64862,1.82476 2.81813,-0.54099 5.37702,-2.30908 7.55686,-4.96378 3.94764,-4.80766 4.45913,-11.38308 2.46834,-16.58576 -1.99087,-5.20268 -6.55582,-9.24327 -12.33215,-9.24327 z m 0,5.56117 c 3.83724,0 6.58802,2.53318 7.87964,5.90875 1.29169,3.37557 1.05297,7.36817 -1.55694,10.54666 -1.64368,2.00178 -3.19646,2.98074 -4.81319,3.29109 -1.61673,0.31039 -3.44716,-0.0246 -5.67716,-1.3034 -4.22109,-2.42074 -5.30161,-6.83509 -4.39551,-10.92683 0.9061,-4.09174 3.78164,-7.51627 8.56316,-7.51627 z"
           id="path496" /><path
           id="path497"
           style="opacity:0.2;fill:#000000;stroke-width:4.0427;filter:url(#filter28)"
           d="m 897.9034,-95.18039 c -3.23138,0.14486 -6.64525,2.32784 -8.05078,5.4375 -0.77314,1.71063 -4.19111,11.98021 -7.59571,22.82032 l -6.18945,19.70898 2.79492,9.33984 c 1.53718,5.13726 5.45431,12.55225 9.29102,23.87891 8.46081,24.97788 9.68043,34.34894 6.24219,57.7207 -8.57817,58.31073 -15.55579,90.11974 -22.07422,111.96875 21.73775,-2.69922 43.1917,-6.30875 63.9707,-11.61718 19.15727,-92.24927 -19.18478,-175.49102 -25.94336,-189.16797 -1.91682,0.5993 -3.99293,0.24864 -6.25195,-1.04688 -7.5298,-4.31826 -5.38681,-16.60313 2.31054,-18.2539 -8.49332,-10.77133 -8.5039,-30.78907 -8.5039,-30.78907 z" /><path
           id="path498"
           style="fill:url(#linearGradient525);fill-opacity:1;fill-rule:nonzero;stroke-width:4.18681"
           d="m 860.29598,-50.15094 c -3.17469,-0.0799 -7.45244,2.58437 -14.49805,8.46289 -11.21552,9.35771 -28.85805,24.84678 -32.07813,28.16211 -3.17552,3.26941 -3.56148,4.47965 -14.91601,46.66797 -17.44147,64.80446 -28.71868,106.52211 -35.8125,133.54296 32.67368,-2.81462 66.17709,-4.69822 99.16797,-8.38085 6.40033,-24.03731 16.06526,-73.17173 22.22851,-114.23633 3.02396,-20.14813 3.18371,-22.42089 1.98243,-28.22461 -2.12051,-10.24456 -18.8237,-59.89615 -21.18946,-62.98633 -1.47186,-1.92257 -2.97995,-2.95984 -4.88476,-3.00781 z m -8.30664,33.05273 c 7.51551,0 11.27557,11.51164 5.91015,18.09570003 C 856.20482,3.07708 854.33383,4.00726 851.85457,4.00726 c -5.00496,0 -8.5,-4.42723997 -8.5,-10.77148 0,-6.31564 3.35564,-10.33399 8.63477,-10.33399 z"
           sodipodi:nodetypes="ssssccsssssssss" /><path
           style="baseline-shift:baseline;display:inline;overflow:visible;opacity:0.3;vector-effect:none;fill:#000000;stroke-width:5.36527;enable-background:accumulate;stop-color:#000000"
           d="m 852.02667,-23.03898 c -3.88305,0 -7.33244,1.51574 -9.76233,4.42273 -2.42994,2.907 -3.72711,7.10106 -3.72711,11.79396 0,9.4694 5.74076,16.77389 13.31917,16.77389 3.67192,0 6.91347,-1.60009 9.45963,-4.72456 8.27354,-10.15268 2.35672,-28.26602 -9.28936,-28.26602 z m 0,5.94344 c 7.61605,0 11.33348,11.38665 5.85554,18.10879 -1.79727,2.2055 -3.34352,2.99493 -6.02581,2.99493 -5.24927,0 -8.47582,-4.03971997 -8.47582,-10.83047 0,-3.40052 0.85769,-5.8438 2.27033,-7.53374 1.41256,-1.6899 3.49368,-2.73951 6.37576,-2.73951 z"
           id="path499" /><path
           id="path500"
           style="opacity:0.2;fill:#000000;stroke-width:4.18681;filter:url(#filter29)"
           d="m 860.29598,-50.15094 c 0,0 -1.32883,23.3158 -6.8418,33.20508 6.51549,1.37581 9.44959,11.80245 4.44531,17.94335003 C 856.20482,3.07707 854.33383,4.00921 851.85457,4.00921 c -0.0635,0 -0.12634,-9.2e-4 -0.18945,-0.002 -1.29321,14.92706 -9.35555,98.83568 -31.75196,158.22852 14.10683,-1.12495 28.22354,-2.36614 42.24805,-3.93164 6.40033,-24.0376 16.06339,-73.17224 22.22656,-114.23633 3.02397,-20.14816 3.18371,-22.42087 1.98243,-28.22461 -2.1205,-10.24455 -18.8237,-59.89615 -21.18946,-62.98633 -1.47182,-1.92256 -2.97999,-2.95984 -4.88476,-3.00781 z m -63.19336,255.01953 c -1.85343,2.24902 -3.76478,4.31772 -5.73633,6.18555 4.51066,-1.77853 9.67707,-3.82476 15.59961,-6.17579 -3.44601,-0.002 -6.7315,-0.005 -9.86328,-0.01 z" /><path
           style="fill:url(#linearGradient526);fill-opacity:1;fill-rule:nonzero;stroke-width:3.77953"
           d="m 737.39313,212.65996 c -6.93683,-2.57106 -12.29371,-5.80279 -17.23934,-10.40021 -5.3495,-4.97288 -11.20138,-13.2985 -12.23119,-17.40159 -0.53643,-2.13725 -0.25863,-2.81309 2.19882,-3.18161 113.64277,-17.04212 248.06007,-1.82719 339.11438,-84.657039 0.3501,-0.31851 3.1471,-8.27546 -8.6859,-9.38287 -6.5713,-0.61498 -8.2188,-8.71324 -8,-8.88608 0.019,-0.0136 58.8594,-2.20242 60.5056,-0.55617 1.2275,1.22742 0.078,62.553369 -0.041,62.673279 -0.1448,0.14589 -8.7438,-1.73896 -8.8523,-8.47945 -0.1549,-9.61897 -8.7767,-8.5288 -9.0065,-8.26514 -6.6694,7.65668 -31.3809,55.93716 -47.8452,70.70113 -7.3772,6.61534 -17.4373,12.48707 -27.36258,15.97055 -41.2781,7.33325 -90.66512,2.93125 -133.49998,2.99524 -101.72341,0.15194 -126.17344,-0.062 -129.05465,-1.13004 z"
           id="path501"
           sodipodi:nodetypes="cssssssssssssscc" /><path
           id="path502"
           style="opacity:0.2;fill:#000000;stroke-width:7;filter:url(#filter27)"
           d="m 1093.0558,78.194621 c 0,0 -11.2059,28.518289 -29.9199,36.003909 -19.4454,7.77817 5.9403,89.85552 -342.98242,88.06054 4.94563,4.59742 10.3034,7.82933 17.24023,10.4004 2.88121,1.06803 27.33128,1.28279 129.05469,1.13085 42.83486,-0.064 92.2219,4.33716 133.5,-2.99609 9.9253,-3.48348 19.9841,-9.35536 27.3613,-15.9707 16.4643,-14.76397 41.1763,-63.04449 47.8457,-70.70117 0.2298,-0.26366 8.8509,-1.35335 9.0059,8.26562 0.1081,6.71416 8.6418,8.60994 8.8515,8.48047 v 0 c 0.1191,-0.11991 1.2686,-61.446409 0.041,-62.673829 z"
           sodipodi:nodetypes="csccscsssccc" /></g></g><g
       id="g533"
       inkscape:export-filename="icon-bnw-dark.svg"
       inkscape:export-xdpi="96"
       inkscape:export-ydpi="96"><rect
         style="fill:#000000;fill-opacity:1;fill-rule:nonzero;stroke:none;stroke-width:21.2057"
         id="rect504"
         width="144.23181"
         height="146.29227"
         x="2568.7888"
         y="-790.85583"
         rx="25.449871"
         ry="27.74036" /><g
         id="g506"
         style="fill:#e6e6e6"
         transform="translate(541.31295)"><path
           id="path504"
           style="fill:#e6e6e6;fill-opacity:1;fill-rule:nonzero;stroke-width:1.06963"
           d="m 2098.229,-758.75007 c -0.855,0.0383 -1.7583,0.61642 -2.1301,1.43919 -0.2046,0.4526 -1.1089,3.16976 -2.0097,6.03787 l -1.6377,5.21467 0.7395,2.47117 c 0.4067,1.35923 1.4432,3.32111 2.4583,6.31796 2.2386,6.60873 2.5613,9.08764 1.6516,15.27142 -2.2697,15.42797 -4.1154,23.84466 -5.84,29.62558 13.3187,-1.65382 26.2327,-4.59859 37.4654,-11.42876 -1.8142,-6.07367 -5.3753,-16.93778 -8.0791,-24.45019 -5.4067,-15.02276 -8.2104,-21.84625 -9.3782,-22.82651 -1.17,-0.98206 -11.7874,-7.3619 -12.6628,-7.60884 -0.1851,-0.0522 -0.3799,-0.0724 -0.5772,-0.0636 z m 2.7187,8.09821 c 1.9778,0 3.0141,2.70866 1.665,4.35168 -0.7866,0.95798 -1.6908,1.13118 -2.7451,0.52658 -2.1376,-1.22591 -1.329,-4.87826 1.0801,-4.87826 z" /><path
           id="path505"
           style="fill:#e6e6e6;fill-opacity:1;fill-rule:nonzero;stroke-width:1.10776"
           d="m 2088.2787,-746.83551 c -0.84,-0.0211 -1.9718,0.68378 -3.836,2.23914 -2.9674,2.47589 -7.6353,6.57404 -8.4873,7.45122 -0.8402,0.86503 -0.9423,1.18524 -3.9465,12.34757 -4.6148,17.14618 -7.5985,28.18397 -9.4754,35.33324 8.6449,-0.7447 17.5093,-1.24307 26.2382,-2.21743 1.6934,-6.35988 4.2506,-19.36002 5.8813,-30.22503 0.8001,-5.33086 0.8423,-5.9322 0.5245,-7.46776 -0.5611,-2.71054 -4.9805,-15.84753 -5.6064,-16.66514 -0.3894,-0.50868 -0.7884,-0.78312 -1.2924,-0.79581 z m -2.1978,8.7452 c 1.9885,0 2.9833,3.04579 1.5637,4.78782 -0.4484,0.55022 -0.9434,0.79633 -1.5994,0.79633 -1.3242,0 -2.2489,-1.17137 -2.2489,-2.84995 0,-1.67101 0.8878,-2.7342 2.2846,-2.7342 z"
           sodipodi:nodetypes="ssssccsssssssss" /><path
           style="fill:#e6e6e6;fill-opacity:1;fill-rule:nonzero;stroke-width:1"
           d="m 2055.7606,-677.30013 c -1.8353,-0.68026 -3.2527,-1.53532 -4.5612,-2.75172 -1.4154,-1.31574 -2.9637,-3.51856 -3.2362,-4.60417 -0.1419,-0.56548 -0.068,-0.7443 0.5818,-0.8418 30.068,-4.50906 65.6325,-0.48345 89.724,-22.39884 0.093,-0.0843 0.8327,-2.18955 -2.2981,-2.48256 -1.7387,-0.16271 -2.1746,-2.30537 -2.1167,-2.3511 0,-0.004 15.5732,-0.58273 16.0088,-0.14716 0.3247,0.32476 0.021,16.55058 -0.011,16.58231 -0.038,0.0386 -2.3134,-0.4601 -2.3422,-2.24352 -0.041,-2.54502 -2.3221,-2.25658 -2.3829,-2.18682 -1.7646,2.02583 -8.3029,14.80004 -12.6591,18.70634 -1.9519,1.75031 -4.6136,3.30387 -7.2396,4.22554 -10.9215,1.94026 -23.9885,0.77556 -35.3219,0.79249 -26.9143,0.0402 -33.3834,-0.0164 -34.1457,-0.29899 z"
           id="path506"
           sodipodi:nodetypes="cssssssssssssscc" /></g><path
         style="baseline-shift:baseline;display:inline;overflow:visible;opacity:0.3;vector-effect:none;fill:#000000;stroke-width:1.37561;enable-background:accumulate;stop-color:#000000"
         d="m 2642.2672,-752.13382 c -1.8332,0 -3.1439,1.43795 -3.5115,3.09798 -0.3676,1.66002 0.2014,3.63038 1.8337,4.56649 0.7658,0.43918 1.5426,0.62594 2.2883,0.4828 0.7456,-0.14314 1.4226,-0.61094 1.9994,-1.31333 1.0445,-1.27203 1.1798,-3.01178 0.6531,-4.38832 -0.5268,-1.37654 -1.7346,-2.44562 -3.263,-2.44562 z m 0,1.4714 c 1.0152,0 1.7432,0.67024 2.0849,1.56335 0.3418,0.89312 0.2786,1.9495 -0.4119,2.79047 -0.435,0.52964 -0.8459,0.78866 -1.2735,0.87077 -0.4278,0.0821 -0.9121,-0.007 -1.5021,-0.34486 -1.1168,-0.64048 -1.4028,-1.80845 -1.163,-2.89105 0.2397,-1.08261 1.0005,-1.98868 2.2656,-1.98868 z"
         id="path507" /><path
         style="baseline-shift:baseline;display:inline;overflow:visible;opacity:0.3;vector-effect:none;fill:#000000;stroke-width:1.41956;enable-background:accumulate;stop-color:#000000"
         d="m 2627.4038,-739.66214 c -1.0274,0 -1.9401,0.40104 -2.5831,1.17018 -0.6428,0.76914 -0.9861,1.87882 -0.9861,3.12049 0,2.50544 1.5189,4.43809 3.524,4.43809 0.9715,0 1.8292,-0.42336 2.5029,-1.25004 2.189,-2.68623 0.6235,-7.47872 -2.4577,-7.47872 z m 0,1.57254 c 2.0149,0 2.9985,3.01271 1.5491,4.79128 -0.4755,0.58354 -0.8845,0.79241 -1.5943,0.79241 -1.3889,0 -2.2426,-1.06884 -2.2426,-2.86556 0,-0.89973 0.227,-1.54618 0.6007,-1.99331 0.3738,-0.44712 0.9244,-0.72482 1.6871,-0.72482 z"
         id="path508" /><g
         id="g511"
         transform="translate(541.31295)"><path
           id="path509"
           style="opacity:0.2;fill:#000000;stroke-width:4.0427;filter:url(#filter28)"
           d="m 897.9034,-95.18039 c -3.23138,0.14486 -6.64525,2.32784 -8.05078,5.4375 -0.77314,1.71063 -4.19111,11.98021 -7.59571,22.82032 l -6.18945,19.70898 2.79492,9.33984 c 1.53718,5.13726 5.45431,12.55225 9.29102,23.87891 8.46081,24.97788 9.68043,34.34894 6.24219,57.7207 -8.57817,58.31073 -15.55579,90.11974 -22.07422,111.96875 21.73775,-2.69922 43.1917,-6.30875 63.9707,-11.61718 19.15727,-92.24927 -19.18478,-175.49102 -25.94336,-189.16797 -1.91682,0.5993 -3.99293,0.24864 -6.25195,-1.04688 -7.5298,-4.31826 -5.38681,-16.60313 2.31054,-18.2539 -8.49332,-10.77133 -8.5039,-30.78907 -8.5039,-30.78907 z"
           transform="matrix(0.26458333,0,0,0.26458333,1860.6587,-733.56641)" /><path
           id="path510"
           style="opacity:0.2;fill:#000000;stroke-width:4.18681;filter:url(#filter29)"
           d="m 860.29598,-50.15094 c 0,0 -1.32883,23.3158 -6.8418,33.20508 6.51549,1.37581 9.44959,11.80245 4.44531,17.94335003 C 856.20482,3.07707 854.33383,4.00921 851.85457,4.00921 c -0.0635,0 -0.12634,-9.2e-4 -0.18945,-0.002 -1.29321,14.92706 -9.35555,98.83568 -31.75196,158.22852 14.10683,-1.12495 28.22354,-2.36614 42.24805,-3.93164 6.40033,-24.0376 16.06339,-73.17224 22.22656,-114.23633 3.02397,-20.14816 3.18371,-22.42087 1.98243,-28.22461 -2.1205,-10.24455 -18.8237,-59.89615 -21.18946,-62.98633 -1.47182,-1.92256 -2.97999,-2.95984 -4.88476,-3.00781 z m -63.19336,255.01953 c -1.85343,2.24902 -3.76478,4.31772 -5.73633,6.18555 4.51066,-1.77853 9.67707,-3.82476 15.59961,-6.17579 -3.44601,-0.002 -6.7315,-0.005 -9.86328,-0.01 z"
           transform="matrix(0.26458333,0,0,0.26458333,1860.6587,-733.56641)" /><path
           id="path511"
           style="opacity:0.2;fill:#000000;stroke-width:7;filter:url(#filter27)"
           d="m 1093.0558,78.194621 c 0,0 -11.2059,28.518289 -29.9199,36.003909 -19.4454,7.77817 5.9403,89.85552 -342.98242,88.06054 4.94563,4.59742 10.3034,7.82933 17.24023,10.4004 2.88121,1.06803 27.33128,1.28279 129.05469,1.13085 42.83486,-0.064 92.2219,4.33716 133.5,-2.99609 9.9253,-3.48348 19.9841,-9.35536 27.3613,-15.9707 16.4643,-14.76397 41.1763,-63.04449 47.8457,-70.70117 0.2298,-0.26366 8.8509,-1.35335 9.0059,8.26562 0.1081,6.71416 8.6418,8.60994 8.8515,8.48047 v 0 c 0.1191,-0.11991 1.2686,-61.446409 0.041,-62.673829 z"
           sodipodi:nodetypes="csccscsssccc"
           transform="matrix(0.26458333,0,0,0.26458333,1860.6587,-733.56641)" /></g></g><g
       id="g534"
       inkscape:export-filename="icon-flat-dark.svg"
       inkscape:export-xdpi="96"
       inkscape:export-ydpi="96"><rect
         style="fill:#000000;fill-opacity:1;fill-rule:nonzero;stroke:none;stroke-width:21.2057"
         id="rect512"
         width="144.23181"
         height="146.29227"
         x="2402.8557"
         y="-626.95868"
         rx="25.449871"
         ry="27.74036" /><path
         id="path512"
         style="fill:url(#linearGradient521);fill-opacity:1;fill-rule:nonzero;stroke-width:1.06963"
         d="m 2473.6089,-594.8529 c -0.855,0.0383 -1.7583,0.61642 -2.1301,1.43919 -0.2046,0.4526 -1.1089,3.16976 -2.0098,6.03787 l -1.6376,5.21467 0.7395,2.47117 c 0.4066,1.35923 1.4431,3.32111 2.4582,6.31796 2.2387,6.60873 2.5613,9.08764 1.6516,15.27142 -2.2697,15.42797 -4.1154,23.84466 -5.84,29.62558 13.3188,-1.65382 26.2327,-4.59859 37.4654,-11.42876 -1.8142,-6.07367 -5.3753,-16.93778 -8.079,-24.45019 -5.4067,-15.02276 -8.2104,-21.84625 -9.3783,-22.82651 -1.17,-0.98206 -11.7873,-7.3619 -12.6628,-7.60884 -0.1851,-0.0522 -0.3799,-0.0724 -0.5772,-0.0636 z m 2.7187,8.09821 c 1.9777,0 3.0141,2.70866 1.665,4.35168 -0.7866,0.95798 -1.6909,1.13118 -2.7452,0.52658 -2.1376,-1.22591 -1.3289,-4.87826 1.0802,-4.87826 z" /><path
         style="baseline-shift:baseline;display:inline;overflow:visible;opacity:0.3;vector-effect:none;fill:#000000;stroke-width:1.37561;enable-background:accumulate;stop-color:#000000"
         d="m 2476.3341,-588.23665 c -1.8332,0 -3.1439,1.43795 -3.5116,3.09798 -0.3676,1.66002 0.2014,3.63038 1.8338,4.56649 0.7657,0.43918 1.5425,0.62594 2.2882,0.4828 0.7456,-0.14314 1.4227,-0.61094 1.9994,-1.31333 1.0445,-1.27203 1.1798,-3.01178 0.6531,-4.38832 -0.5268,-1.37654 -1.7346,-2.44562 -3.2629,-2.44562 z m 0,1.4714 c 1.0153,0 1.7431,0.67024 2.0849,1.56335 0.3418,0.89312 0.2785,1.9495 -0.4119,2.79047 -0.4349,0.52964 -0.8458,0.78866 -1.2735,0.87077 -0.4278,0.0821 -0.9121,-0.007 -1.5021,-0.34486 -1.1168,-0.64048 -1.4028,-1.80845 -1.1631,-2.89105 0.2397,-1.08261 1.0007,-1.98868 2.2657,-1.98868 z"
         id="path513" /><path
         id="path514"
         style="fill:url(#linearGradient522);fill-opacity:1;fill-rule:nonzero;stroke-width:1.10776"
         d="m 2463.6586,-582.93834 c -0.84,-0.0211 -1.9719,0.68378 -3.8361,2.23914 -2.9673,2.47589 -7.6352,6.57404 -8.4872,7.45122 -0.8402,0.86503 -0.9423,1.18524 -3.9465,12.34757 -4.6149,17.14618 -7.5985,28.18397 -9.4755,35.33324 8.645,-0.7447 17.5094,-1.24307 26.2383,-2.21743 1.6934,-6.35988 4.2505,-19.36002 5.8813,-30.22503 0.8001,-5.33086 0.8422,-5.9322 0.5245,-7.46776 -0.5611,-2.71054 -4.9805,-15.84753 -5.6064,-16.66514 -0.3894,-0.50868 -0.7884,-0.78312 -1.2924,-0.79581 z m -2.1978,8.7452 c 1.9885,0 2.9833,3.04579 1.5636,4.78782 -0.4483,0.55022 -0.9434,0.79633 -1.5994,0.79633 -1.3242,0 -2.2488,-1.17137 -2.2488,-2.84995 0,-1.67101 0.8877,-2.7342 2.2846,-2.7342 z"
         sodipodi:nodetypes="ssssccsssssssss" /><path
         style="baseline-shift:baseline;display:inline;overflow:visible;opacity:0.3;vector-effect:none;fill:#000000;stroke-width:1.41956;enable-background:accumulate;stop-color:#000000"
         d="m 2461.4707,-575.76497 c -1.0274,0 -1.9401,0.40104 -2.5831,1.17018 -0.6429,0.76914 -0.9861,1.87882 -0.9861,3.12049 0,2.50544 1.5189,4.43809 3.5241,4.43809 0.9714,0 1.8291,-0.42336 2.5028,-1.25004 2.189,-2.68623 0.6235,-7.47872 -2.4577,-7.47872 z m 0,1.57254 c 2.015,0 2.9986,3.01271 1.5491,4.79128 -0.4754,0.58354 -0.8846,0.79241 -1.5942,0.79241 -1.3889,0 -2.2427,-1.06884 -2.2427,-2.86556 0,-0.89973 0.2271,-1.54618 0.6007,-1.99331 0.3738,-0.44712 0.9245,-0.72482 1.6871,-0.72482 z"
         id="path515" /><path
         style="fill:url(#linearGradient523);fill-opacity:1;fill-rule:nonzero;stroke-width:1"
         d="m 2431.1404,-513.40296 c -1.8352,-0.68026 -3.2527,-1.53532 -4.5612,-2.75172 -1.4153,-1.31574 -2.9636,-3.51856 -3.2361,-4.60417 -0.142,-0.56548 -0.068,-0.7443 0.5817,-0.8418 30.068,-4.50906 65.6326,-0.48345 89.724,-22.39884 0.093,-0.0843 0.8327,-2.18955 -2.2981,-2.48256 -1.7387,-0.16271 -2.1746,-2.30537 -2.1166,-2.3511 0,-0.004 15.5731,-0.58273 16.0087,-0.14716 0.3247,0.32476 0.021,16.55058 -0.011,16.58231 -0.038,0.0386 -2.3134,-0.4601 -2.3422,-2.24352 -0.041,-2.54502 -2.3222,-2.25658 -2.383,-2.18682 -1.7645,2.02583 -8.3029,14.80004 -12.6591,18.70634 -1.9519,1.75031 -4.6135,3.30387 -7.2396,4.22554 -10.9215,1.94026 -23.9885,0.77556 -35.3218,0.79249 -26.9144,0.0402 -33.3835,-0.0164 -34.1458,-0.29899 z"
         id="path516"
         sodipodi:nodetypes="cssssssssssssscc" /></g><g
       id="g532"
       inkscape:export-filename="icon-flat-bnw-dark.svg"
       inkscape:export-xdpi="96"
       inkscape:export-ydpi="96"><rect
         style="fill:#000000;fill-opacity:1;fill-rule:nonzero;stroke:none;stroke-width:21.2057"
         id="rect516"
         width="144.23181"
         height="146.29227"
         x="2568.7888"
         y="-626.95868"
         rx="25.449871"
         ry="27.74036" /><g
         id="g519"
         transform="translate(541.31295)"
         style="fill:#e6e6e6"><path
           id="path517"
           style="fill:#e6e6e6;fill-opacity:1;fill-rule:nonzero;stroke-width:1.06963"
           d="m 2098.229,-594.8529 c -0.855,0.0383 -1.7583,0.61642 -2.1301,1.43919 -0.2046,0.4526 -1.1089,3.16976 -2.0097,6.03787 l -1.6377,5.21467 0.7395,2.47117 c 0.4067,1.35923 1.4432,3.32111 2.4583,6.31796 2.2386,6.60873 2.5613,9.08764 1.6516,15.27142 -2.2697,15.42797 -4.1154,23.84466 -5.84,29.62558 13.3187,-1.65382 26.2327,-4.59859 37.4654,-11.42876 -1.8142,-6.07367 -5.3753,-16.93778 -8.0791,-24.45019 -5.4067,-15.02276 -8.2104,-21.84625 -9.3782,-22.82651 -1.17,-0.98206 -11.7874,-7.3619 -12.6628,-7.60884 -0.1851,-0.0522 -0.3799,-0.0724 -0.5772,-0.0636 z m 2.7187,8.09821 c 1.9778,0 3.0141,2.70866 1.665,4.35168 -0.7866,0.95798 -1.6908,1.13118 -2.7451,0.52658 -2.1376,-1.22591 -1.329,-4.87826 1.0801,-4.87826 z" /><path
           id="path518"
           style="fill:#e6e6e6;fill-opacity:1;fill-rule:nonzero;stroke-width:1.10776"
           d="m 2088.2787,-582.93834 c -0.84,-0.0211 -1.9718,0.68378 -3.836,2.23914 -2.9674,2.47589 -7.6353,6.57404 -8.4873,7.45122 -0.8402,0.86503 -0.9423,1.18524 -3.9465,12.34757 -4.6148,17.14618 -7.5985,28.18397 -9.4754,35.33324 8.6449,-0.7447 17.5093,-1.24307 26.2382,-2.21743 1.6934,-6.35988 4.2506,-19.36002 5.8813,-30.22503 0.8001,-5.33086 0.8423,-5.9322 0.5245,-7.46776 -0.5611,-2.71054 -4.9805,-15.84753 -5.6064,-16.66514 -0.3894,-0.50868 -0.7884,-0.78312 -1.2924,-0.79581 z m -2.1978,8.7452 c 1.9885,0 2.9833,3.04579 1.5637,4.78782 -0.4484,0.55022 -0.9434,0.79633 -1.5994,0.79633 -1.3242,0 -2.2489,-1.17137 -2.2489,-2.84995 0,-1.67101 0.8878,-2.7342 2.2846,-2.7342 z"
           sodipodi:nodetypes="ssssccsssssssss" /><path
           style="fill:#e6e6e6;fill-opacity:1;fill-rule:nonzero;stroke-width:1"
           d="m 2055.7606,-513.40296 c -1.8353,-0.68026 -3.2527,-1.53532 -4.5612,-2.75172 -1.4154,-1.31574 -2.9637,-3.51856 -3.2362,-4.60417 -0.1419,-0.56548 -0.068,-0.7443 0.5818,-0.8418 30.068,-4.50906 65.6325,-0.48345 89.724,-22.39884 0.093,-0.0843 0.8327,-2.18955 -2.2981,-2.48256 -1.7387,-0.16271 -2.1746,-2.30537 -2.1167,-2.3511 0,-0.004 15.5732,-0.58273 16.0088,-0.14716 0.3247,0.32476 0.021,16.55058 -0.011,16.58231 -0.038,0.0386 -2.3134,-0.4601 -2.3422,-2.24352 -0.041,-2.54502 -2.3221,-2.25658 -2.3829,-2.18682 -1.7646,2.02583 -8.3029,14.80004 -12.6591,18.70634 -1.9519,1.75031 -4.6136,3.30387 -7.2396,4.22554 -10.9215,1.94026 -23.9885,0.77556 -35.3219,0.79249 -26.9143,0.0402 -33.3834,-0.0164 -34.1457,-0.29899 z"
           id="path519"
           sodipodi:nodetypes="cssssssssssssscc" /></g><path
         style="baseline-shift:baseline;display:inline;overflow:visible;opacity:0.3;vector-effect:none;fill:#000000;stroke-width:1.37561;enable-background:accumulate;stop-color:#000000"
         d="m 2642.2672,-588.23665 c -1.8332,0 -3.1439,1.43795 -3.5115,3.09798 -0.3676,1.66002 0.2014,3.63038 1.8337,4.56649 0.7658,0.43918 1.5426,0.62594 2.2883,0.4828 0.7456,-0.14314 1.4226,-0.61094 1.9994,-1.31333 1.0445,-1.27203 1.1798,-3.01178 0.6531,-4.38832 -0.5268,-1.37654 -1.7346,-2.44562 -3.263,-2.44562 z m 0,1.4714 c 1.0152,0 1.7432,0.67024 2.0849,1.56335 0.3418,0.89312 0.2786,1.9495 -0.4119,2.79047 -0.435,0.52964 -0.8459,0.78866 -1.2735,0.87077 -0.4278,0.0821 -0.9121,-0.007 -1.5021,-0.34486 -1.1168,-0.64048 -1.4028,-1.80845 -1.163,-2.89105 0.2397,-1.08261 1.0005,-1.98868 2.2656,-1.98868 z"
         id="path520" /><path
         style="baseline-shift:baseline;display:inline;overflow:visible;opacity:0.3;vector-effect:none;fill:#000000;stroke-width:1.41956;enable-background:accumulate;stop-color:#000000"
         d="m 2627.4038,-575.76497 c -1.0274,0 -1.9401,0.40104 -2.5831,1.17018 -0.6428,0.76914 -0.9861,1.87882 -0.9861,3.12049 0,2.50544 1.5189,4.43809 3.524,4.43809 0.9715,0 1.8292,-0.42336 2.5029,-1.25004 2.189,-2.68623 0.6235,-7.47872 -2.4577,-7.47872 z m 0,1.57254 c 2.0149,0 2.9985,3.01271 1.5491,4.79128 -0.4755,0.58354 -0.8845,0.79241 -1.5943,0.79241 -1.3889,0 -2.2426,-1.06884 -2.2426,-2.86556 0,-0.89973 0.227,-1.54618 0.6007,-1.99331 0.3738,-0.44712 0.9244,-0.72482 1.6871,-0.72482 z"
         id="path521" /></g></g></svg>
