<?xml version="1.0" encoding="UTF-8" standalone="no"?>
<!-- Created with Inkscape (http://www.inkscape.org/) -->

<svg
   width="144.23177mm"
   height="208.33517mm"
   viewBox="0 0 144.23177 208.33517"
   version="1.1"
   id="svg1"
   xml:space="preserve"
   inkscape:version="1.4.3 (0d15f75, 2025-12-25)"
   sodipodi:docname="vela-logo-original.svg"
   xmlns:inkscape="http://www.inkscape.org/namespaces/inkscape"
   xmlns:sodipodi="http://sodipodi.sourceforge.net/DTD/sodipodi-0.dtd"
   xmlns:xlink="http://www.w3.org/1999/xlink"
   xmlns="http://www.w3.org/2000/svg"
   xmlns:svg="http://www.w3.org/2000/svg"><sodipodi:namedview
     id="namedview1"
     pagecolor="#505050"
     bordercolor="#ffffff"
     borderopacity="1"
     inkscape:showpageshadow="0"
     inkscape:pageopacity="0"
     inkscape:pagecheckerboard="1"
     inkscape:deskcolor="#505050"
     inkscape:document-units="mm"
     inkscape:zoom="0.12995318"
     inkscape:cx="2243.1156"
     inkscape:cy="1927.6173"
     inkscape:window-width="3440"
     inkscape:window-height="1369"
     inkscape:window-x="-8"
     inkscape:window-y="-8"
     inkscape:window-maximized="1"
     inkscape:current-layer="layer1"
     showguides="true"><inkscape:page
       x="0"
       y="1.6257262e-20"
       width="144.23177"
       height="208.33516"
       id="page2"
       margin="0"
       bleed="0" /></sodipodi:namedview><defs
     id="defs1"><linearGradient
       id="linearGradient152"
       inkscape:collect="always"><stop
         style="stop-color:#FACC15;stop-opacity:1;"
         offset="0"
         id="stop149" /><stop
         style="stop-color:#F59E0B;stop-opacity:1;"
         offset="0.20795684"
         id="stop150" /><stop
         style="stop-color:#FF2E4D;stop-opacity:1;"
         offset="0.46613425"
         id="stop151" /><stop
         style="stop-color:#A31234;stop-opacity:1;"
         offset="0.75824177"
         id="stop152" /><stop
         style="stop-color:#7F1D3B;stop-opacity:1;"
         offset="1"
         id="stop153" /></linearGradient><filter
       style="color-interpolation-filters:sRGB"
       inkscape:label="Blur"
       id="filter28"
       x="-0.06928479"
       y="-0.019133034"
       width="1.1385696"
       height="1.0382661"><feGaussianBlur
         stdDeviation="2 2"
         result="blur"
         id="feGaussianBlur28" /></filter><filter
       style="color-interpolation-filters:sRGB"
       inkscape:label="Blur"
       id="filter29"
       x="-0.05015555"
       y="-0.018376362"
       width="1.1003111"
       height="1.0367527"><feGaussianBlur
         stdDeviation="2 2"
         result="blur"
         id="feGaussianBlur29" /></filter><filter
       style="color-interpolation-filters:sRGB"
       inkscape:label="Blur"
       id="filter27"
       x="-0.012852712"
       y="-0.03507554"
       width="1.0257054"
       height="1.0701511"><feGaussianBlur
         stdDeviation="2 2"
         result="blur"
         id="feGaussianBlur27" /></filter><linearGradient
       inkscape:collect="always"
       xlink:href="#linearGradient152"
       id="linearGradient527"
       gradientUnits="userSpaceOnUse"
       gradientTransform="matrix(3.7795276,0,0,4.3241946,-213.55568,-164.82457)"
       x1="344.50818"
       y1="67.128716"
       x2="242.40085"
       y2="103.01679" /><linearGradient
       inkscape:collect="always"
       xlink:href="#linearGradient152"
       id="linearGradient528"
       gradientUnits="userSpaceOnUse"
       gradientTransform="matrix(3.7795276,0,0,4.6379774,-213.55568,-178.37144)"
       x1="344.50818"
       y1="67.128716"
       x2="242.40085"
       y2="103.01679" /><linearGradient
       inkscape:collect="always"
       xlink:href="#linearGradient152"
       id="linearGradient529"
       gradientUnits="userSpaceOnUse"
       gradientTransform="matrix(3.7795276,0,0,3.7795276,-208.46117,-175.52115)"
       x1="344.50818"
       y1="67.128716"
       x2="242.40085"
       y2="103.01679" /></defs><g
     inkscape:label="Layer 1"
     inkscape:groupmode="layer"
     id="layer1"
     transform="translate(-2236.9225,790.85584)"><g
       id="g537"><text
         xml:space="preserve"
         style="font-size:60.4785px;font-family:Serif;-inkscape-font-specification:Serif;letter-spacing:0px;writing-mode:lr-tb;direction:ltr;fill:#000000;fill-opacity:1;fill-rule:nonzero;stroke:none;stroke-width:1.27005"
         x="2248.4087"
         y="-583.36737"
         id="text486"><tspan
           sodipodi:role="line"
           id="tspan486"
           style="font-style:normal;font-variant:normal;font-weight:bold;font-stretch:normal;font-size:60.4785px;font-family:'Space Grotesk';-inkscape-font-specification:'Space Grotesk Bold';fill:#000000;fill-opacity:1;stroke:none;stroke-width:1.27005"
           x="2248.4087"
           y="-583.36737">Vela</tspan></text><g
         id="g536"><rect
           style="fill:#000000;fill-opacity:1;fill-rule:nonzero;stroke:none;stroke-width:21.2057"
           id="rect486"
           width="144.23181"
           height="146.29227"
           x="2236.9226"
           y="-790.85583"
           rx="25.449871"
           ry="27.74036" /><g
           id="g493"
           transform="matrix(0.26458333,0,0,0.26458333,2070.1054,-733.56641)"><path
             id="path486"
             style="fill:url(#linearGradient527);fill-opacity:1;fill-rule:nonzero;stroke-width:4.0427"
             d="m 897.9034,-95.18234 c -3.23139,0.14486 -6.64525,2.32977 -8.05078,5.43945 -0.77314,1.71063 -4.19111,11.98022 -7.59571,22.82032 l -6.18945,19.70898 2.79492,9.33984 c 1.53718,5.13724 5.4543,12.55222 9.29102,23.87891 8.46081,24.97787 9.68043,34.347 6.24219,57.71875 -8.57813,58.31046 -15.55418,90.12156 -22.07227,111.9707 50.33833,-6.25067 99.14729,-17.38051 141.60158,-43.19531 -6.857,-22.95561 -20.3163,-64.01679 -30.53517,-92.41016 -20.43489,-56.77893 -31.03136,-82.56851 -35.44532,-86.27343 -4.42208,-3.71171 -44.55089,-27.8245 -47.85937,-28.75782 -0.69952,-0.19731 -1.43594,-0.27366 -2.18164,-0.24023 z m 10.27539,30.60742 c 7.47519,0 11.39193,10.23746 6.29297,16.44727 -2.97309,3.62074 -6.39043,4.27535 -10.375,1.99023 -8.07923,-4.63335 -5.02323,-18.4375 4.08203,-18.4375 z" /><path
             style="baseline-shift:baseline;display:inline;overflow:visible;opacity:0.3;vector-effect:none;fill:#000000;stroke-width:5.19915;enable-background:accumulate;stop-color:#000000"
             d="m 908.20375,-70.17602 c -6.92836,0 -11.88261,5.43474 -13.27196,11.70887 -1.38939,6.27412 0.76097,13.72115 6.93029,17.25918 2.89436,1.65989 5.83045,2.36575 8.64862,1.82476 2.81813,-0.54099 5.37702,-2.30908 7.55686,-4.96378 3.94764,-4.80766 4.45913,-11.38308 2.46834,-16.58576 -1.99087,-5.20268 -6.55582,-9.24327 -12.33215,-9.24327 z m 0,5.56117 c 3.83724,0 6.58802,2.53318 7.87964,5.90875 1.29169,3.37557 1.05297,7.36817 -1.55694,10.54666 -1.64368,2.00178 -3.19646,2.98074 -4.81319,3.29109 -1.61673,0.31039 -3.44716,-0.0246 -5.67716,-1.3034 -4.22109,-2.42074 -5.30161,-6.83509 -4.39551,-10.92683 0.9061,-4.09174 3.78164,-7.51627 8.56316,-7.51627 z"
             id="path487" /><path
             id="path488"
             style="opacity:0.2;fill:#000000;stroke-width:4.0427;filter:url(#filter28)"
             d="m 897.9034,-95.18039 c -3.23138,0.14486 -6.64525,2.32784 -8.05078,5.4375 -0.77314,1.71063 -4.19111,11.98021 -7.59571,22.82032 l -6.18945,19.70898 2.79492,9.33984 c 1.53718,5.13726 5.45431,12.55225 9.29102,23.87891 8.46081,24.97788 9.68043,34.34894 6.24219,57.7207 -8.57817,58.31073 -15.55579,90.11974 -22.07422,111.96875 21.73775,-2.69922 43.1917,-6.30875 63.9707,-11.61718 19.15727,-92.24927 -19.18478,-175.49102 -25.94336,-189.16797 -1.91682,0.5993 -3.99293,0.24864 -6.25195,-1.04688 -7.5298,-4.31826 -5.38681,-16.60313 2.31054,-18.2539 -8.49332,-10.77133 -8.5039,-30.78907 -8.5039,-30.78907 z" /><path
             id="path489"
             style="fill:url(#linearGradient528);fill-opacity:1;fill-rule:nonzero;stroke-width:4.18681"
             d="m 860.29598,-50.15094 c -3.17469,-0.0799 -7.45244,2.58437 -14.49805,8.46289 -11.21552,9.35771 -28.85805,24.84678 -32.07813,28.16211 -3.17552,3.26941 -3.56148,4.47965 -14.91601,46.66797 -17.44147,64.80446 -28.71868,106.52211 -35.8125,133.54296 32.67368,-2.81462 66.17709,-4.69822 99.16797,-8.38085 6.40033,-24.03731 16.06526,-73.17173 22.22851,-114.23633 3.02396,-20.14813 3.18371,-22.42089 1.98243,-28.22461 -2.12051,-10.24456 -18.8237,-59.89615 -21.18946,-62.98633 -1.47186,-1.92257 -2.97995,-2.95984 -4.88476,-3.00781 z m -8.30664,33.05273 c 7.51551,0 11.27557,11.51164 5.91015,18.09570003 C 856.20482,3.07708 854.33383,4.00726 851.85457,4.00726 c -5.00496,0 -8.5,-4.42723997 -8.5,-10.77148 0,-6.31564 3.35564,-10.33399 8.63477,-10.33399 z"
             sodipodi:nodetypes="ssssccsssssssss" /><path
             style="baseline-shift:baseline;display:inline;overflow:visible;opacity:0.3;vector-effect:none;fill:#000000;stroke-width:5.36527;enable-background:accumulate;stop-color:#000000"
             d="m 852.02667,-23.03898 c -3.88305,0 -7.33244,1.51574 -9.76233,4.42273 -2.42994,2.907 -3.72711,7.10106 -3.72711,11.79396 0,9.4694 5.74076,16.77389 13.31917,16.77389 3.67192,0 6.91347,-1.60009 9.45963,-4.72456 8.27354,-10.15268 2.35672,-28.26602 -9.28936,-28.26602 z m 0,5.94344 c 7.61605,0 11.33348,11.38665 5.85554,18.10879 -1.79727,2.2055 -3.34352,2.99493 -6.02581,2.99493 -5.24927,0 -8.47582,-4.03971997 -8.47582,-10.83047 0,-3.40052 0.85769,-5.8438 2.27033,-7.53374 1.41256,-1.6899 3.49368,-2.73951 6.37576,-2.73951 z"
             id="path490" /><path
             id="path491"
             style="opacity:0.2;fill:#000000;stroke-width:4.18681;filter:url(#filter29)"
             d="m 860.29598,-50.15094 c 0,0 -1.32883,23.3158 -6.8418,33.20508 6.51549,1.37581 9.44959,11.80245 4.44531,17.94335003 C 856.20482,3.07707 854.33383,4.00921 851.85457,4.00921 c -0.0635,0 -0.12634,-9.2e-4 -0.18945,-0.002 -1.29321,14.92706 -9.35555,98.83568 -31.75196,158.22852 14.10683,-1.12495 28.22354,-2.36614 42.24805,-3.93164 6.40033,-24.0376 16.06339,-73.17224 22.22656,-114.23633 3.02397,-20.14816 3.18371,-22.42087 1.98243,-28.22461 -2.1205,-10.24455 -18.8237,-59.89615 -21.18946,-62.98633 -1.47182,-1.92256 -2.97999,-2.95984 -4.88476,-3.00781 z m -63.19336,255.01953 c -1.85343,2.24902 -3.76478,4.31772 -5.73633,6.18555 4.51066,-1.77853 9.67707,-3.82476 15.59961,-6.17579 -3.44601,-0.002 -6.7315,-0.005 -9.86328,-0.01 z" /><path
             style="fill:url(#linearGradient529);fill-opacity:1;fill-rule:nonzero;stroke-width:3.77953"
             d="m 737.39313,212.65996 c -6.93683,-2.57106 -12.29371,-5.80279 -17.23934,-10.40021 -5.3495,-4.97288 -11.20138,-13.2985 -12.23119,-17.40159 -0.53643,-2.13725 -0.25863,-2.81309 2.19882,-3.18161 113.64277,-17.04212 248.06007,-1.82719 339.11438,-84.657039 0.3501,-0.31851 3.1471,-8.27546 -8.6859,-9.38287 -6.5713,-0.61498 -8.2188,-8.71324 -8,-8.88608 0.019,-0.0136 58.8594,-2.20242 60.5056,-0.55617 1.2275,1.22742 0.078,62.553369 -0.041,62.673279 -0.1448,0.14589 -8.7438,-1.73896 -8.8523,-8.47945 -0.1549,-9.61897 -8.7767,-8.5288 -9.0065,-8.26514 -6.6694,7.65668 -31.3809,55.93716 -47.8452,70.70113 -7.3772,6.61534 -17.4373,12.48707 -27.36258,15.97055 -41.2781,7.33325 -90.66512,2.93125 -133.49998,2.99524 -101.72341,0.15194 -126.17344,-0.062 -129.05465,-1.13004 z"
             id="path492"
             sodipodi:nodetypes="cssssssssssssscc" /><path
             id="path493"
             style="opacity:0.2;fill:#000000;stroke-width:7;filter:url(#filter27)"
             d="m 1093.0558,78.194621 c 0,0 -11.2059,28.518289 -29.9199,36.003909 -19.4454,7.77817 5.9403,89.85552 -342.98242,88.06054 4.94563,4.59742 10.3034,7.82933 17.24023,10.4004 2.88121,1.06803 27.33128,1.28279 129.05469,1.13085 42.83486,-0.064 92.2219,4.33716 133.5,-2.99609 9.9253,-3.48348 19.9841,-9.35536 27.3613,-15.9707 16.4643,-14.76397 41.1763,-63.04449 47.8457,-70.70117 0.2298,-0.26366 8.8509,-1.35335 9.0059,8.26562 0.1081,6.71416 8.6418,8.60994 8.8515,8.48047 v 0 c 0.1191,-0.11991 1.2686,-61.446409 0.041,-62.673829 z"
             sodipodi:nodetypes="csccscsssccc" /></g></g></g></g></svg>
