<?xml version="1.0" encoding="UTF-8" standalone="no"?>
<!-- Vela brand asset — app icon (tile + mark). Wordmark is outlined (no font dependency). -->

<svg
   width="512"
   height="512"
   viewBox="0 0 512 512"
   version="1.1"
   id="svg18"
   sodipodi:docname="vela-app-icon.svg"
   inkscape:version="1.4.3 (0d15f75, 2025-12-25)"
   inkscape:export-filename="vela-app-icon.svg"
   inkscape:export-xdpi="96"
   inkscape:export-ydpi="96"
   xmlns:inkscape="http://www.inkscape.org/namespaces/inkscape"
   xmlns:sodipodi="http://sodipodi.sourceforge.net/DTD/sodipodi-0.dtd"
   xmlns="http://www.w3.org/2000/svg"
   xmlns:svg="http://www.w3.org/2000/svg">
  <sodipodi:namedview
     id="namedview18"
     pagecolor="#505050"
     bordercolor="#ffffff"
     borderopacity="1"
     inkscape:showpageshadow="0"
     inkscape:pageopacity="0"
     inkscape:pagecheckerboard="1"
     inkscape:deskcolor="#505050"
     inkscape:zoom="1.1396485"
     inkscape:cx="-46.066837"
     inkscape:cy="265.43273"
     inkscape:window-width="3440"
     inkscape:window-height="1369"
     inkscape:window-x="-8"
     inkscape:window-y="-8"
     inkscape:window-maximized="1"
     inkscape:current-layer="svg18">
    <inkscape:page
       x="0"
       y="0"
       width="512"
       height="512"
       id="page2"
       margin="0"
       bleed="0" />
  </sodipodi:namedview>
  <defs
     id="defs14">
    <linearGradient
       id="vm-front"
       gradientUnits="userSpaceOnUse"
       x1="312"
       y1="70"
       x2="244"
       y2="316"
       gradientTransform="matrix(0.74,0,0,0.74,64,88)">
      <stop
         offset="0"
         stop-color="#FACC15"
         id="stop1" />
      <stop
         offset="0.42"
         stop-color="#F59E0B"
         id="stop2" />
      <stop
         offset="1"
         stop-color="#FF2E4D"
         id="stop3" />
    </linearGradient>
    <linearGradient
       id="vm-back"
       gradientUnits="userSpaceOnUse"
       x1="184"
       y1="116"
       x2="124"
       y2="316"
       gradientTransform="matrix(0.74,0,0,0.74,62.205656,85.264781)">
      <stop
         offset="0"
         stop-color="#FF2E4D"
         id="stop4" />
      <stop
         offset="0.55"
         stop-color="#A31234"
         id="stop5" />
      <stop
         offset="1"
         stop-color="#7F1D3B"
         id="stop6" />
    </linearGradient>
    <linearGradient
       id="vm-hull"
       gradientUnits="userSpaceOnUse"
       x1="56"
       y1="390"
       x2="452"
       y2="360"
       gradientTransform="matrix(0.74,0,0,0.74,66,66)">
      <stop
         offset="0"
         stop-color="#7F1D3B"
         id="stop7" />
      <stop
         offset="0.3"
         stop-color="#A31234"
         id="stop8" />
      <stop
         offset="0.62"
         stop-color="#FF2E4D"
         id="stop9" />
      <stop
         offset="0.86"
         stop-color="#F59E0B"
         id="stop10" />
      <stop
         offset="1"
         stop-color="#FACC15"
         id="stop11" />
    </linearGradient>
  </defs>
  <rect
     width="512"
     height="512"
     rx="115"
     fill="#ffffff"
     id="rect14"
     x="0"
     y="0" />
  <rect
     width="512"
     height="512"
     rx="115"
     fill="none"
     stroke="#2a1d22"
     stroke-opacity="0.06"
     stroke-width="4"
     id="rect15"
     x="0"
     y="0" />
  <path
     id="path15"
     style="fill:url(#vm-back);stroke-width:0.74"
     d="M 200.05469 157.50391 C 193.44953 157.69956 189.30039 165.36993 186.52539 175.54492 C 170.98539 216.98492 159.88531 264.34539 155.44531 306.52539 C 155.28623 307.53292 155.21682 312.64987 155.20703 318.0625 C 185.01319 324.25978 210.92208 327.37311 233.29883 328.32227 C 233.8658 320.4423 234.02054 307.29177 233.88477 304.30469 C 233.14477 267.30469 229.44492 216.98539 222.04492 177.02539 C 221.05354 164.64719 215.6474 158.76474 201.4082 157.56641 C 200.9457 157.51153 200.49503 157.49086 200.05469 157.50391 z " />
  <path
     id="path16"
     style="fill:url(#vm-front);stroke-width:0.74"
     d="M 285.46875 130.56055 C 276.65295 130.23894 273.97422 139.61565 271.19922 151.64062 C 259.35922 201.96062 250.47906 262.6393 246.03906 307.7793 C 245.78716 309.54264 245.38441 321.14264 245.26562 328.46875 C 288.56511 329.83761 318.2132 323.00095 337.01953 314.99609 C 337.14629 310.97387 337.17482 307.61467 337.06055 306.30078 C 335.58055 271.52078 327.44086 209.35914 313.38086 153.11914 C 310.42621 134.49024 309.076 132.76018 287.31641 130.75586 C 286.67229 130.64612 286.05647 130.58199 285.46875 130.56055 z " />
  <path
     fill="url(#vm-hull)"
     d="m 108.92,317.6 c 144.85806,41.28771 215.49474,17.87112 240.19873,0.71366 L 357.56,313.16 c 2.66302,-1.62586 3.94667,-2.96 2.96,-5.92 l -4.44,-10.36 c -0.98667,-3.94667 0.49333,-4.68667 4.44,-2.22 l 35.52,17.02 c 3.45333,1.97333 3.45333,4.19333 0,6.66 -19.24,14.06 -42.92,28.86 -69.56,40.7 -44.4,19.24 -111,17.76 -150.96,2.96 -29.6,-11.84 -53.28,-28.12 -66.6,-44.4 z"
     id="path17"
     style="fill:url(#vm-hull);stroke-width:0.74"
     sodipodi:nodetypes="ccscccccccc" />
  <circle
     style="fill:#ffffff;stroke-width:7"
     id="path1"
     cx="201.95987"
     cy="192.9632"
     r="7.4455252" />
  <circle
     style="fill:#ffffff;stroke-width:7"
     id="circle1"
     cx="294.40848"
     cy="166.90385"
     r="7.4455252" />
</svg>
