<?xml version="1.0" encoding="UTF-8" standalone="no"?>
<!-- Created with Inkscape (http://www.inkscape.org/) -->

<svg
   width="144.23177mm"
   height="147.10542mm"
   viewBox="0 0 144.23177 147.10542"
   version="1.1"
   id="svg1"
   xml:space="preserve"
   inkscape:version="1.4.3 (0d15f75, 2025-12-25)"
   sodipodi:docname="Vela logo.svg"
   inkscape:export-filename="Work\Work\InstantShop\branding\Logo + name white.svg"
   inkscape:export-xdpi="96"
   inkscape:export-ydpi="96"
   xmlns:inkscape="http://www.inkscape.org/namespaces/inkscape"
   xmlns:sodipodi="http://sodipodi.sourceforge.net/DTD/sodipodi-0.dtd"
   xmlns="http://www.w3.org/2000/svg"
   xmlns:svg="http://www.w3.org/2000/svg"><sodipodi:namedview
     id="namedview1"
     pagecolor="#505050"
     bordercolor="#ffffff"
     borderopacity="1"
     inkscape:showpageshadow="0"
     inkscape:pageopacity="0"
     inkscape:pagecheckerboard="1"
     inkscape:deskcolor="#505050"
     inkscape:document-units="mm"
     inkscape:zoom="0.18378155"
     inkscape:cx="1531.7098"
     inkscape:cy="1684.0646"
     inkscape:window-width="3440"
     inkscape:window-height="1369"
     inkscape:window-x="-8"
     inkscape:window-y="-8"
     inkscape:window-maximized="1"
     inkscape:current-layer="layer1"
     showguides="true"><inkscape:page
       x="-1.7462439e-20"
       y="0"
       width="144.23178"
       height="147.10542"
       id="page2"
       margin="0"
       bleed="0" /></sodipodi:namedview><defs
     id="defs1" /><g
     inkscape:label="Layer 1"
     inkscape:groupmode="layer"
     id="layer1"
     transform="translate(-1041.8953,673.78642)"><g
       id="g116"><path
         style="fill:#000000"
         d="m 1091.6054,-571.02075 c 0.013,-0.30822 0.075,-0.37092 0.1599,-0.15985 0.076,0.191 0.067,0.4192 -0.021,0.50712 -0.088,0.0879 -0.1505,-0.0684 -0.139,-0.34727 z"
         id="path125" /><path
         style="fill:#000000"
         d="m 1135.77,-544.39246 c 0,-0.13693 0.1177,-0.32171 0.2615,-0.41062 0.15,-0.0927 0.1944,0.0135 0.104,0.24897 -0.1759,0.45837 -0.3655,0.54224 -0.3655,0.16165 z"
         id="path126" /><path
         style="fill:#000000"
         d="m 1130.0814,-532.50182 c 0.09,-0.14552 0.2161,-0.26459 0.2802,-0.26459 0.064,0 0.1167,0.11907 0.1167,0.26459 0,0.14552 -0.1261,0.26458 -0.2802,0.26458 -0.1541,0 -0.2066,-0.11906 -0.1167,-0.26458 z"
         id="path127" /><path
         style="fill:#000000"
         d="m 1143.3106,-531.44349 c -0.09,-0.14552 -0.037,-0.26458 0.1167,-0.26458 0.1541,0 0.2802,0.11906 0.2802,0.26458 0,0.14552 -0.053,0.26458 -0.1167,0.26458 -0.064,0 -0.1903,-0.11906 -0.2802,-0.26458 z"
         id="path128" /><path
         style="fill:#000000"
         d="m 1143.3106,-528.53307 c 0.09,-0.14552 0.216,-0.26459 0.2802,-0.26459 0.064,0 0.1167,0.11907 0.1167,0.26459 0,0.14552 -0.1261,0.26458 -0.2802,0.26458 -0.1541,0 -0.2066,-0.11906 -0.1167,-0.26458 z"
         id="path129" /><path
         style="fill:#000000"
         d="m 1137.8866,-526.94557 c 0,-0.14553 0.1191,-0.26459 0.2646,-0.26459 0.1455,0 0.2646,0.11906 0.2646,0.26459 0,0.14552 -0.1191,0.26458 -0.2646,0.26458 -0.1455,0 -0.2646,-0.11906 -0.2646,-0.26458 z"
         id="path130" /><rect
         style="fill:#000000;fill-opacity:1;fill-rule:nonzero;stroke:none;stroke-width:21.2057"
         id="rect138"
         width="144.23181"
         height="146.29227"
         x="1041.8953"
         y="-673.78644"
         rx="25.449871"
         ry="27.74036" /><g
         id="g141"
         style="fill:#e6e6e6;fill-opacity:1;fill-rule:nonzero"
         transform="translate(820.55348,-660.19916)"><path
           id="path139"
           style="fill:#e6e6e6;fill-opacity:1;fill-rule:nonzero"
           d="m 294.07342,16.105392 c -0.85497,0.0335 -1.75823,0.53867 -2.13011,1.257804 -0.20456,0.395594 -1.10889,2.77035 -2.00969,5.277197 l -1.63763,4.557862 0.73949,2.160075 c 0.40671,1.188025 1.44299,2.90294 2.45812,5.522315 2.23859,5.776307 2.56141,7.942972 1.65171,13.347851 -2.75447,16.365314 -4.8846,23.704 -6.93153,28.85368 -0.20974,0.52767 0.81216,0.303381 6.51967,-1.886839 9.28143,-3.561692 17.8571,-5.327176 27.25621,-5.611556 5.63866,-0.17061 5.95313,-0.252662 5.95313,-1.545642 0,-1.14953 -5.46599,-16.083107 -9.25112,-25.27546 -5.40673,-13.130521 -8.21038,-19.09445 -9.37824,-19.951237 -1.17001,-0.858357 -11.78742,-6.434921 -12.66279,-6.650757 -0.18508,-0.04563 -0.37992,-0.06302 -0.57722,-0.05529 z m 2.71869,7.078121 c 1.97781,0 3.01412,2.367326 1.66502,3.803385 -0.78663,0.837321 -1.69081,0.988885 -2.74506,0.460437 -2.13763,-1.071494 -1.32906,-4.263822 1.08004,-4.263822 z"
           sodipodi:nodetypes="ssccssssssssssssssss" /><path
           id="path140"
           style="fill:#e6e6e6;fill-opacity:1;fill-rule:nonzero"
           d="m 284.12312,27.645773 c -0.83997,-0.01724 -1.97179,0.557219 -3.83594,1.824694 -2.96744,2.01763 -7.63536,5.357161 -8.48734,6.071981 -0.84019,0.704922 -0.94231,0.966163 -3.94653,10.062435 -13.84537,41.921354 -13.00859,39.033034 -11.64993,40.201704 0.39176,0.33698 0.99752,0.61237 1.34617,0.61237 0.67433,0 2.82222,-0.65973 15.21199,-4.6762 7.69504,-2.49455 7.82142,-2.54739 8.96689,-3.73311 0.63939,-0.66186 1.54714,-2.04576 2.01848,-3.07735 1.54378,-3.378715 4.80575,-16.412819 6.7505,-26.972002 0.80009,-4.344162 0.84235,-4.83407 0.52451,-6.085417 -0.56105,-2.208841 -4.98043,-12.914287 -5.60637,-13.580566 -0.38943,-0.414528 -0.78845,-0.638198 -1.29243,-0.648539 z m -2.1978,7.126696 c 1.98848,0 2.98333,2.48197 1.56373,3.901571 -0.44838,0.448381 -0.94342,0.649056 -1.59939,0.649056 -1.32423,0 -2.24896,-0.954968 -2.24896,-2.322856 0,-1.361723 0.88785,-2.227771 2.28462,-2.227771 z" /><path
           style="fill:#e6e6e6;fill-opacity:1;fill-rule:nonzero"
           d="m 250.25728,102.70625 c -1.83537,-0.68026 -3.25271,-1.53532 -4.56124,-2.751723 -1.41539,-1.31574 -2.9637,-3.51856 -3.23617,-4.60417 -0.14193,-0.56548 -0.0574,-0.68776 0.58177,-0.8418 0.82985,-0.19999 6.47644,-2.01423 16.09364,-5.17087 3.4925,-1.14634 10.99344,-3.59345 16.66875,-5.43803 5.67531,-1.84458 14.24781,-4.66237 19.05,-6.26175 22.43078,-7.47061 21.8115,-4.694739 37.91162,-5.528192 0.12507,-0.0065 0.83267,-2.18955 -2.29813,-2.48255 -1.73866,-0.162714 -2.17456,-2.30538 -2.11667,-2.35111 0.005,-0.0036 15.57321,-0.582722 16.00876,-0.147154 0.32479,0.324756 0.0206,16.550579 -0.0109,16.582306 -0.0383,0.0386 -2.31345,-0.4601 -2.34216,-2.24352 -0.041,-2.54502 -2.32218,-2.25658 -2.38297,-2.18682 -1.76463,2.02583 -8.30288,14.80004 -12.65905,18.70634 -1.95188,1.75031 -4.61361,3.303873 -7.23968,4.225543 l -2.11666,0.74289 -33.20521,0.0496 c -26.91432,0.0402 -33.38339,-0.0164 -34.14571,-0.29899 z"
           id="path141"
           sodipodi:nodetypes="cssssssssssssssscsc" /></g><path
         style="baseline-shift:baseline;display:inline;overflow:visible;opacity:0.3;vector-effect:none;fill:#000000;stroke-width:1.28606;enable-background:accumulate;stop-color:#000000"
         d="m 1117.3512,-638.31102 c -1.8332,0 -3.144,1.25682 -3.5116,2.70775 -0.3676,1.45094 0.2014,3.17312 1.8337,3.99131 0.7658,0.38386 1.5426,0.5471 2.2882,0.42199 0.7457,-0.12511 1.4227,-0.53399 1.9995,-1.14791 1.0444,-1.11181 1.1798,-2.63242 0.653,-3.83557 -0.5267,-1.20316 -1.7345,-2.13757 -3.2628,-2.13757 z m 0,1.28606 c 1.0152,0 1.743,0.58581 2.0848,1.36643 0.3417,0.78063 0.2786,1.70394 -0.412,2.439 -0.4348,0.46292 -0.8457,0.68931 -1.2734,0.76108 -0.4278,0.0718 -0.9121,-0.006 -1.5021,-0.30142 -1.1169,-0.55981 -1.4027,-1.58066 -1.163,-2.5269 0.2397,-0.94625 1.0006,-1.73819 2.2657,-1.73819 z"
         id="path142" /><path
         style="baseline-shift:baseline;display:inline;overflow:visible;opacity:0.3;vector-effect:none;fill:#000000;stroke-width:1.28147;enable-background:accumulate;stop-color:#000000"
         d="m 1102.4876,-626.70773 c -1.0273,0 -1.94,0.32681 -2.5829,0.95359 -0.6429,0.62678 -0.9861,1.53106 -0.9861,2.54291 0,2.0417 1.5189,3.61663 3.524,3.61663 0.9715,0 1.8292,-0.345 2.5029,-1.01866 2.189,-2.18904 0.6235,-6.09447 -2.4579,-6.09447 z m 0,1.28147 c 2.0151,0 2.9987,2.45509 1.5493,3.90446 -0.4755,0.47553 -0.8846,0.64574 -1.5943,0.64574 -1.3889,0 -2.2426,-0.87101 -2.2426,-2.33517 0,-0.73319 0.227,-1.25999 0.6007,-1.62436 0.3738,-0.36437 0.9244,-0.59067 1.6869,-0.59067 z"
         id="path143" /><path
         id="path144"
         style="opacity:0.2;fill:#000000"
         d="m 1164.9117,-593.07044 c 0,0 -0.8201,4.13446 -4.8692,7.10376 -27.5691,11.14394 -14.6517,25.40023 -95.4999,23.80133 0.5267,0.69727 1.1274,1.38307 1.7058,1.92082 1.3086,1.21641 2.7256,2.07151 4.561,2.75177 0.7623,0.28259 7.2314,0.33889 34.1457,0.29869 l 33.2052,-0.0496 2.1167,-0.74259 c 2.6261,-0.92167 5.288,-2.47527 7.2399,-4.22558 4.3561,-3.9063 10.8945,-16.68053 12.6591,-18.70636 0.061,-0.0698 2.3418,-0.35807 2.3828,2.18695 0.029,1.76949 2.2686,2.27423 2.341,2.24431 l 5e-4,-5.2e-4 5e-4,-5.2e-4 c 0.032,-0.0317 0.3355,-16.23288 0.012,-16.58141 z"
         sodipodi:nodetypes="cccsssccsssccssc" /><path
         id="path145"
         style="opacity:0.2;fill:#000000"
         d="m 1114.6258,-644.09368 c -0.8549,0.0335 -1.7582,0.53867 -2.1301,1.2578 -0.2045,0.3956 -1.1089,2.77035 -2.0097,5.2772 l -1.6376,4.55786 0.7395,2.16008 c 0.4067,1.18802 1.4431,2.90277 2.4583,5.52214 2.2386,5.77631 2.5612,7.94315 1.6515,13.34803 -2.7544,16.36531 -4.8849,23.70385 -6.9318,28.85353 -0.2098,0.52767 0.8125,0.30351 6.52,-1.88671 3.9036,-1.49798 7.6822,-2.67815 11.4499,-3.56412 5.1777,-21.41109 -5.0235,-40.76947 -6.8171,-43.94202 -0.5072,0.13859 -1.0565,0.0577 -1.6542,-0.24185 -1.9923,-0.99863 -1.4253,-3.83969 0.6113,-4.22145 -2.2472,-2.49094 -2.25,-7.12049 -2.25,-7.12049 z" /><path
         id="path146"
         style="opacity:0.2;fill:#000000"
         d="m 1104.6756,-632.5533 c 0,0 -0.3516,5.02701 -1.8103,7.15925 1.7239,0.29665 2.5002,2.54497 1.1762,3.86902 -0.4484,0.44838 -0.9434,0.64905 -1.5994,0.64905 -0.017,0 -0.033,-2.1e-4 -0.05,-5.1e-4 -0.46,4.32677 -4.1574,35.53425 -15.9541,44.64172 1.8448,-0.59275 4.1043,-1.32302 6.8761,-2.22157 7.695,-2.49455 7.8214,-2.54739 8.9669,-3.73311 0.6394,-0.66186 1.5471,-2.04574 2.0185,-3.07733 1.5438,-3.37871 4.8057,-16.41281 6.7505,-26.97199 0.8001,-4.34417 0.8423,-4.83407 0.5245,-6.08542 -0.5611,-2.20885 -4.9805,-12.91429 -5.6064,-13.58057 -0.3894,-0.41453 -0.7884,-0.6382 -1.2924,-0.64854 z" /></g></g></svg>
